M48
METRIC,LZ,000.000
;FILE_FORMAT=3:3
;TYPE=PLATED
;Layer: PTH_Through
;EasyEDA v6.5.51, 2025-09-10 15:25:43
;7811fd6da6e84b80a6dd4c2e862b6bcc,8ef3a173406043228c96bdea823fb63d,10
;Gerber Generator version 0.2
;Holesize 1 = 0.306 mm
T01C0.306
;Holesize 2 = 0.889 mm
T02C0.889
;Holesize 3 = 0.900 mm
T03C0.900
;Holesize 4 = 0.901 mm
T04C0.901
;Holesize 5 = 0.915 mm
T05C0.915
;Holesize 6 = 1.101 mm
T06C1.101
%
G05
G90
T01
X007084Y-017915
X006262Y-015602
X021984Y-011282
T02
X003810Y-043180
X006350Y-043180
X008890Y-043180
X011430Y-043180
X-011430Y-043180
X-008890Y-043180
X-006350Y-043180
X-003810Y-043180
X-006350Y-012700
X-008890Y-012700
X-011430Y-012700
X-013970Y-012700
X-016510Y-012700
X-019050Y-012700
X019050Y-012700
X016510Y-012700
X013970Y-012700
X011430Y-012700
X008890Y-012700
X006350Y-012700
T03
X-011430Y017780
X-003810Y017780
X003810Y017780
X011430Y017780
T04
X005588Y-035375
X000507Y-035376
X-004573Y-035376
X-009653Y-035376
X-014733Y-035376
X-019813Y-035376
X-024893Y-035376
X-027432Y-020135
X-022352Y-020136
X-017272Y-020136
X-012192Y-020136
X-007111Y-020136
X-002032Y-020136
X003048Y-020136
X005588Y-020135
X000508Y-020135
X-004572Y-020135
X-009652Y-020135
X-014732Y-020135
X-019812Y-020135
X-024892Y-020135
X-027432Y-035375
X-022352Y-035375
X-017272Y-035375
X-012192Y-035375
X-007112Y-035375
X-002032Y-035375
X003048Y-035375
X008128Y-035375
X008128Y-020135
T05
X024142Y010967
X024142Y013507
X021602Y010967
X021602Y013507
X019062Y010967
X019062Y013507
X016522Y010967
X016522Y013507
X013982Y010967
X013982Y013507
X011442Y010967
X011442Y013507
X008902Y010967
X008902Y013507
X006362Y010967
X006362Y013507
X003822Y010967
X003822Y013507
X001282Y010967
X001282Y013507
X-001258Y010967
X-001258Y013507
X-003798Y010967
X-003798Y013507
X-006338Y010967
X-006338Y013507
X-008878Y010967
X-008878Y013507
X-011418Y010967
X-011418Y013507
X-013958Y010967
X-013958Y013507
X-016498Y010967
X-016498Y013507
X-019038Y010967
X-019038Y013507
X-021578Y010967
X-021578Y013507
X-024118Y010967
X-024118Y013507
X019444Y-020071
X021984Y-020071
X024524Y-020071
X027064Y-020071
X029604Y-020071
X029604Y-035057
X027064Y-035057
X024524Y-035057
X021984Y-035057
X019444Y-035057
X016904Y-035057
X016904Y-020071
T06
X025400Y-013970
X025400Y-011430
X-025400Y-013970
X-025400Y-011430
M30
