G04 Layer: BottomLayer*
G04 EasyEDA v6.5.51, 2025-09-10 15:25:43*
G04 7811fd6da6e84b80a6dd4c2e862b6bcc,8ef3a173406043228c96bdea823fb63d,10*
G04 Gerber Generator version 0.2*
G04 Scale: 100 percent, Rotated: No, Reflected: No *
G04 Dimensions in millimeters *
G04 leading zeros omitted , absolute positions ,4 integer and 5 decimal *
%FSLAX45Y45*%
%MOMM*%

%ADD10C,0.2540*%
%ADD11C,0.5800*%
%ADD12C,1.5240*%
%ADD13R,1.5240X1.5240*%
%ADD14C,1.8796*%
%ADD15C,1.6000*%
%ADD16R,1.6000X1.6000*%
%ADD17R,1.5748X1.5748*%
%ADD18C,1.5748*%
%ADD19C,0.0160*%
%ADD20R,1.5748X1.7000*%
%ADD21C,1.7000*%
%ADD22C,0.6100*%

%LPD*%
D10*
X-2190506Y1096660D02*
G01*
X-2157790Y1096660D01*
X-2411790Y1096660D02*
G01*
X-2190506Y1096660D01*
X-2190506Y1096660D02*
G01*
X-2190506Y-1154160D01*
X-2190506Y-1154160D02*
G01*
X-1258859Y-1154160D01*
X-1143010Y-1270010D01*
X-2433355Y-1397010D02*
G01*
X-2190506Y-1154160D01*
X-2540010Y-1397010D02*
G01*
X-2433355Y-1397010D01*
X1142989Y1777989D02*
G01*
X1007912Y1913067D01*
X-1007932Y1913067D01*
X-1143010Y1777989D01*
X-1395790Y1096660D02*
G01*
X-1246083Y1246367D01*
X-1096959Y1246367D01*
X-1014790Y1328536D01*
X-1014790Y1391757D01*
X-628558Y1777989D01*
X-381010Y1777989D01*
X-965210Y-3537518D02*
G01*
X-353349Y-4149379D01*
X720359Y-4149379D01*
X888989Y-4318010D01*
X-1473210Y-3537518D02*
G01*
X-692718Y-4318010D01*
X-635010Y-4318010D01*
X-1143010Y-4318010D02*
G01*
X-1249664Y-4318010D01*
X-1981210Y-3537518D02*
G01*
X-1249664Y-4269064D01*
X-1249664Y-4318010D01*
X-2235210Y-2013518D02*
G01*
X-967648Y-3281080D01*
X920917Y-3281080D01*
X1282994Y-3643157D01*
X2568920Y-3643157D01*
X2706359Y-3505718D01*
X-1219210Y-2013518D02*
G01*
X-1105164Y-1899472D01*
X-921014Y-1899472D01*
X-838210Y-1982276D01*
X-838210Y-2047478D01*
X-115935Y-2769753D01*
X1208394Y-2769753D01*
X1944359Y-3505718D01*
X-711210Y-2013518D02*
G01*
X-594014Y-2130714D01*
X2836763Y-2130714D01*
X2960359Y-2007118D01*
X-203210Y-2013518D02*
G01*
X18785Y-1791522D01*
X708345Y-1791522D01*
X-965210Y-2013518D02*
G01*
X-36027Y-2942701D01*
X1127343Y-2942701D01*
X1690359Y-3505718D01*
X626176Y-1560205D02*
G01*
X-1019896Y-1560205D01*
X-1473210Y-2013518D01*
X2960359Y-3505718D02*
G01*
X2770291Y-3695786D01*
X1277965Y-3695786D01*
X972200Y-3390021D01*
X-1112707Y-3390021D01*
X-2489210Y-2013518D01*
X-1727210Y-3537518D02*
G01*
X-1669501Y-3537518D01*
X-889010Y-4318010D01*
X-1219210Y-3537518D02*
G01*
X-438718Y-4318010D01*
X-381010Y-4318010D01*
X-711210Y-3537518D02*
G01*
X-173161Y-4075567D01*
X900546Y-4075567D01*
X1142989Y-4318010D01*
D11*
X2539989Y-1397010D02*
G01*
X2681798Y-1397010D01*
X2198359Y-3505718D02*
G01*
X3101025Y-2603052D01*
X3101025Y-1816237D01*
X2681798Y-1397010D01*
X1904989Y-1270010D02*
G01*
X1969251Y-1270010D01*
X2706359Y-2007118D01*
X2452359Y-2007118D02*
G01*
X1954900Y-1509659D01*
X1890638Y-1509659D01*
X1650989Y-1270010D01*
X-635010Y-1270010D02*
G01*
X142890Y-1270010D01*
X284698Y-1128201D01*
X2198359Y-1128201D01*
X1944359Y-2007118D02*
G01*
X1353581Y-1416339D01*
X-742680Y-1416339D01*
X-889010Y-1270010D01*
D12*
G01*
X2414219Y1096670D03*
G01*
X2414219Y1350670D03*
G01*
X2160219Y1096670D03*
G01*
X2160219Y1350670D03*
G01*
X1906219Y1096670D03*
G01*
X1906219Y1350670D03*
G01*
X1652219Y1096670D03*
G01*
X1652219Y1350670D03*
G01*
X1398219Y1096670D03*
G01*
X1398219Y1350670D03*
G01*
X1144219Y1096670D03*
G01*
X1144219Y1350670D03*
G01*
X890219Y1096670D03*
G01*
X890219Y1350670D03*
G01*
X636219Y1096670D03*
G01*
X636219Y1350670D03*
G01*
X382219Y1096670D03*
G01*
X382219Y1350670D03*
G01*
X128219Y1096670D03*
G01*
X128219Y1350670D03*
G01*
X-125780Y1096670D03*
G01*
X-125780Y1350670D03*
G01*
X-379780Y1096670D03*
G01*
X-379780Y1350670D03*
G01*
X-633780Y1096670D03*
G01*
X-633780Y1350670D03*
G01*
X-887780Y1096670D03*
G01*
X-887780Y1350670D03*
G01*
X-1141780Y1096670D03*
G01*
X-1141780Y1350670D03*
G01*
X-1395780Y1096670D03*
G01*
X-1395780Y1350670D03*
G01*
X-1649780Y1096670D03*
G01*
X-1649780Y1350670D03*
G01*
X-1903780Y1096670D03*
G01*
X-1903780Y1350670D03*
G01*
X-2157780Y1096670D03*
G01*
X-2157780Y1350670D03*
G01*
X-2411780Y1096670D03*
D13*
G01*
X-2411780Y1350670D03*
D14*
G01*
X-1143000Y1778000D03*
G01*
X-381000Y1778000D03*
G01*
X381000Y1778000D03*
G01*
X1143000Y1778000D03*
D12*
G01*
X1944370Y-2007107D03*
G01*
X2198370Y-2007107D03*
G01*
X2452370Y-2007107D03*
G01*
X2706370Y-2007107D03*
G01*
X2960370Y-2007107D03*
G01*
X2960370Y-3505707D03*
G01*
X2706370Y-3505707D03*
G01*
X2452370Y-3505707D03*
G01*
X2198370Y-3505707D03*
G01*
X1944370Y-3505707D03*
G01*
X1690370Y-3505707D03*
G01*
X1690370Y-2007107D03*
D15*
G01*
X558800Y-3537508D03*
G01*
X50800Y-3537508D03*
G01*
X-457200Y-3537508D03*
G01*
X-965200Y-3537508D03*
G01*
X-1473200Y-3537508D03*
G01*
X-1981200Y-3537508D03*
G01*
X-2489200Y-3537508D03*
G01*
X-2743200Y-2013508D03*
G01*
X-2235200Y-2013508D03*
G01*
X-1727200Y-2013508D03*
G01*
X-1219200Y-2013508D03*
G01*
X-711200Y-2013508D03*
G01*
X-203200Y-2013508D03*
G01*
X304800Y-2013508D03*
G01*
X558800Y-2013508D03*
G01*
X50800Y-2013508D03*
G01*
X-457200Y-2013508D03*
G01*
X-965200Y-2013508D03*
G01*
X-1473200Y-2013508D03*
G01*
X-1981200Y-2013508D03*
G01*
X-2489200Y-2013508D03*
G01*
X-2743200Y-3537508D03*
G01*
X-2235200Y-3537508D03*
G01*
X-1727200Y-3537508D03*
G01*
X-1219200Y-3537508D03*
G01*
X-711200Y-3537508D03*
G01*
X-203200Y-3537508D03*
G01*
X304800Y-3537508D03*
D16*
G01*
X812800Y-3537534D03*
G01*
X812800Y-2013534D03*
D17*
G01*
X381000Y-4318000D03*
D18*
G01*
X635000Y-4318000D03*
G01*
X889000Y-4318000D03*
G01*
X1143000Y-4318000D03*
D17*
G01*
X-1143000Y-4318000D03*
D18*
G01*
X-889000Y-4318000D03*
G01*
X-635000Y-4318000D03*
G01*
X-381000Y-4318000D03*
G01*
X-635000Y-1270000D03*
G01*
X-889000Y-1270000D03*
G01*
X-1143000Y-1270000D03*
G01*
X-1397000Y-1270000D03*
G01*
X-1651000Y-1270000D03*
D17*
G01*
X-1905000Y-1270000D03*
D18*
G01*
X1905000Y-1270000D03*
G01*
X1651000Y-1270000D03*
G01*
X1397000Y-1270000D03*
G01*
X1143000Y-1270000D03*
G01*
X889000Y-1270000D03*
D17*
G01*
X635000Y-1270000D03*
D20*
G01*
X2540000Y-1397000D03*
D21*
G01*
X2540000Y-1143000D03*
D20*
G01*
X-2540000Y-1397000D03*
D21*
G01*
X-2540000Y-1143000D03*
D22*
G01*
X708355Y-1791512D03*
G01*
X626186Y-1560195D03*
G01*
X2198370Y-1128191D03*
M02*
