G04 Layer: TopLayer*
G04 EasyEDA v6.5.51, 2025-09-10 15:25:43*
G04 7811fd6da6e84b80a6dd4c2e862b6bcc,8ef3a173406043228c96bdea823fb63d,10*
G04 Gerber Generator version 0.2*
G04 Scale: 100 percent, Rotated: No, Reflected: No *
G04 Dimensions in millimeters *
G04 leading zeros omitted , absolute positions ,4 integer and 5 decimal *
%FSLAX45Y45*%
%MOMM*%

%ADD10C,0.2540*%
%ADD11C,0.5800*%
%ADD12C,1.5240*%
%ADD13R,1.5240X1.5240*%
%ADD14C,1.8796*%
%ADD15C,1.6000*%
%ADD16R,1.6000X1.6000*%
%ADD17R,0.0189X1.6000*%
%ADD18R,1.5748X1.5748*%
%ADD19C,1.5748*%
%ADD20R,1.5748X1.7000*%
%ADD21C,1.7000*%
%ADD22C,0.6100*%

%LPD*%
G36*
X-101Y-4974082D02*
G01*
X-100330Y-4973066D01*
X-200558Y-4970018D01*
X-300634Y-4964988D01*
X-400659Y-4957927D01*
X-500481Y-4948834D01*
X-600100Y-4937760D01*
X-699516Y-4924653D01*
X-798576Y-4909566D01*
X-897382Y-4892446D01*
X-995781Y-4873396D01*
X-1093774Y-4852314D01*
X-1191361Y-4829302D01*
X-1288440Y-4804308D01*
X-1385011Y-4777384D01*
X-1480972Y-4748479D01*
X-1576374Y-4717694D01*
X-1671116Y-4684979D01*
X-1765198Y-4650333D01*
X-1858568Y-4613808D01*
X-1951177Y-4575403D01*
X-2042972Y-4535170D01*
X-2133955Y-4493056D01*
X-2224074Y-4449165D01*
X-2313279Y-4403445D01*
X-2401519Y-4355947D01*
X-2488844Y-4306671D01*
X-2575102Y-4255617D01*
X-2660345Y-4202836D01*
X-2744520Y-4148378D01*
X-2827528Y-4092244D01*
X-2909468Y-4034434D01*
X-2990138Y-3974998D01*
X-3069640Y-3913936D01*
X-3147923Y-3851249D01*
X-3224885Y-3787038D01*
X-3300526Y-3721303D01*
X-3374847Y-3653993D01*
X-3447796Y-3585260D01*
X-3519373Y-3515055D01*
X-3589477Y-3443427D01*
X-3658158Y-3370376D01*
X-3725316Y-3295954D01*
X-3791000Y-3220212D01*
X-3855110Y-3143199D01*
X-3917696Y-3064865D01*
X-3978656Y-2985262D01*
X-4037990Y-2904490D01*
X-4095699Y-2822549D01*
X-4151731Y-2739440D01*
X-4206138Y-2655214D01*
X-4258767Y-2569870D01*
X-4309719Y-2483561D01*
X-4335272Y-2438146D01*
X-4336491Y-2434132D01*
X-4336034Y-2429967D01*
X-4333900Y-2426309D01*
X-4330496Y-2423871D01*
X-4326382Y-2423007D01*
X-3696309Y-2423007D01*
X-3690518Y-2422296D01*
X-3681425Y-2421686D01*
X-3659682Y-2418334D01*
X-3641039Y-2413660D01*
X-3620109Y-2406345D01*
X-3599992Y-2396998D01*
X-3580942Y-2385720D01*
X-3563010Y-2372614D01*
X-3560775Y-2370785D01*
X-3544468Y-2355799D01*
X-3531514Y-2341524D01*
X-3518204Y-2323795D01*
X-3506673Y-2304846D01*
X-3505301Y-2302306D01*
X-3495954Y-2282190D01*
X-3489451Y-2264054D01*
X-3483356Y-2239721D01*
X-3480104Y-2218080D01*
X-3478682Y-2214219D01*
X-3477056Y-2211628D01*
X-3474872Y-2205888D01*
X-3474059Y-2199386D01*
X-3474059Y2199741D01*
X-3475075Y2220671D01*
X-3478174Y2242616D01*
X-3478733Y2245512D01*
X-3483406Y2264156D01*
X-3490772Y2285085D01*
X-3500120Y2305202D01*
X-3511397Y2324252D01*
X-3524453Y2342134D01*
X-3539236Y2358694D01*
X-3555593Y2373680D01*
X-3573272Y2386990D01*
X-3592220Y2398522D01*
X-3612235Y2408123D01*
X-3614928Y2409240D01*
X-3635806Y2416556D01*
X-3654501Y2421229D01*
X-3679291Y2424938D01*
X-3700221Y2425903D01*
X-4324756Y2425903D01*
X-4328871Y2426766D01*
X-4332274Y2429256D01*
X-4334408Y2432862D01*
X-4334865Y2437028D01*
X-4333595Y2441041D01*
X-4309618Y2483713D01*
X-4258665Y2570073D01*
X-4205986Y2655366D01*
X-4151629Y2739593D01*
X-4095597Y2822702D01*
X-4037888Y2904642D01*
X-3978503Y2985465D01*
X-3917543Y3065018D01*
X-3855008Y3143351D01*
X-3790848Y3220364D01*
X-3725214Y3296107D01*
X-3658006Y3370529D01*
X-3589324Y3443579D01*
X-3519220Y3515207D01*
X-3447643Y3585413D01*
X-3374694Y3654145D01*
X-3300374Y3721404D01*
X-3224733Y3787190D01*
X-3147720Y3851401D01*
X-3069488Y3914038D01*
X-2989986Y3975100D01*
X-2909265Y4034536D01*
X-2827375Y4092346D01*
X-2744317Y4148480D01*
X-2660192Y4202988D01*
X-2574950Y4255719D01*
X-2488641Y4306722D01*
X-2401366Y4355998D01*
X-2313076Y4403547D01*
X-2223871Y4449267D01*
X-2133752Y4493158D01*
X-2042769Y4535271D01*
X-1950974Y4575505D01*
X-1858365Y4613859D01*
X-1764995Y4650384D01*
X-1670913Y4685030D01*
X-1576171Y4717745D01*
X-1480769Y4748530D01*
X-1384808Y4777435D01*
X-1288237Y4804359D01*
X-1191158Y4829352D01*
X-1093571Y4852365D01*
X-995578Y4873447D01*
X-897178Y4892497D01*
X-798372Y4909566D01*
X-699312Y4924653D01*
X-599897Y4937760D01*
X-500278Y4948834D01*
X-400456Y4957927D01*
X-300431Y4964988D01*
X-200355Y4970018D01*
X-100126Y4973066D01*
X101Y4974082D01*
X100330Y4973066D01*
X200558Y4970018D01*
X300634Y4964988D01*
X400659Y4957927D01*
X500481Y4948834D01*
X600100Y4937760D01*
X699516Y4924653D01*
X798576Y4909566D01*
X897382Y4892446D01*
X995781Y4873396D01*
X1093774Y4852314D01*
X1191361Y4829302D01*
X1288440Y4804308D01*
X1385011Y4777384D01*
X1480972Y4748479D01*
X1576374Y4717694D01*
X1671116Y4684928D01*
X1765198Y4650333D01*
X1858568Y4613808D01*
X1951177Y4575403D01*
X2042972Y4535170D01*
X2133955Y4493056D01*
X2224074Y4449165D01*
X2313279Y4403445D01*
X2401519Y4355947D01*
X2488844Y4306620D01*
X2575102Y4255617D01*
X2660345Y4202836D01*
X2744520Y4148378D01*
X2827528Y4092244D01*
X2909417Y4034434D01*
X2990138Y3974998D01*
X3069640Y3913886D01*
X3147923Y3851249D01*
X3224885Y3787038D01*
X3300526Y3721303D01*
X3374847Y3653993D01*
X3447796Y3585260D01*
X3519373Y3515055D01*
X3589477Y3443427D01*
X3658158Y3370376D01*
X3725316Y3295954D01*
X3791000Y3220212D01*
X3855110Y3143199D01*
X3917696Y3064865D01*
X3978656Y2985262D01*
X4037990Y2904490D01*
X4095699Y2822549D01*
X4151731Y2739440D01*
X4206138Y2655214D01*
X4258767Y2569870D01*
X4309668Y2483561D01*
X4333595Y2441041D01*
X4334865Y2437028D01*
X4334408Y2432862D01*
X4332274Y2429256D01*
X4328871Y2426766D01*
X4324756Y2425903D01*
X3700221Y2425903D01*
X3679291Y2424938D01*
X3657346Y2421788D01*
X3654501Y2421229D01*
X3635806Y2416556D01*
X3614928Y2409240D01*
X3594811Y2399893D01*
X3592220Y2398522D01*
X3573272Y2386990D01*
X3555593Y2373680D01*
X3539236Y2358694D01*
X3524453Y2342134D01*
X3511397Y2324252D01*
X3500120Y2305202D01*
X3490772Y2285085D01*
X3483406Y2264156D01*
X3478733Y2245512D01*
X3475075Y2220671D01*
X3474059Y2199741D01*
X3474059Y0D01*
X3479292Y-2199640D01*
X3480257Y-2217775D01*
X3483406Y-2239721D01*
X3483965Y-2242566D01*
X3489451Y-2264054D01*
X3497072Y-2284882D01*
X3505301Y-2302306D01*
X3516579Y-2321356D01*
X3518204Y-2323795D01*
X3531514Y-2341524D01*
X3546500Y-2357831D01*
X3560775Y-2370785D01*
X3578504Y-2384094D01*
X3597452Y-2395626D01*
X3599992Y-2396998D01*
X3620109Y-2406345D01*
X3641039Y-2413660D01*
X3659682Y-2418334D01*
X3681476Y-2421686D01*
X3692042Y-2422499D01*
X3696309Y-2423007D01*
X4326382Y-2423007D01*
X4330496Y-2423871D01*
X4333900Y-2426309D01*
X4336034Y-2429967D01*
X4336491Y-2434132D01*
X4335272Y-2438146D01*
X4309618Y-2483713D01*
X4258665Y-2570073D01*
X4205986Y-2655366D01*
X4151629Y-2739593D01*
X4095597Y-2822702D01*
X4037888Y-2904642D01*
X3978503Y-2985465D01*
X3917543Y-3065018D01*
X3855008Y-3143351D01*
X3790848Y-3220364D01*
X3725214Y-3296107D01*
X3658006Y-3370529D01*
X3589324Y-3443579D01*
X3519220Y-3515207D01*
X3447643Y-3585413D01*
X3374694Y-3654145D01*
X3300374Y-3721404D01*
X3224733Y-3787190D01*
X3147720Y-3851401D01*
X3069488Y-3914038D01*
X2989986Y-3975100D01*
X2909265Y-4034536D01*
X2827375Y-4092346D01*
X2744317Y-4148531D01*
X2660192Y-4202988D01*
X2574950Y-4255719D01*
X2488641Y-4306773D01*
X2401366Y-4356049D01*
X2313076Y-4403547D01*
X2223871Y-4449267D01*
X2133752Y-4493158D01*
X2042769Y-4535271D01*
X1950974Y-4575505D01*
X1858365Y-4613910D01*
X1764995Y-4650384D01*
X1670913Y-4685030D01*
X1576171Y-4717745D01*
X1480769Y-4748530D01*
X1384808Y-4777435D01*
X1288237Y-4804359D01*
X1191158Y-4829352D01*
X1093571Y-4852365D01*
X995578Y-4873447D01*
X897178Y-4892497D01*
X798372Y-4909566D01*
X699312Y-4924704D01*
X599897Y-4937760D01*
X500278Y-4948885D01*
X400456Y-4957927D01*
X300431Y-4964988D01*
X200355Y-4970068D01*
X100126Y-4973066D01*
G37*

%LPC*%
G36*
X426720Y-4422648D02*
G01*
X459181Y-4422648D01*
X465480Y-4421936D01*
X470966Y-4420006D01*
X475843Y-4416958D01*
X479958Y-4412843D01*
X483006Y-4407966D01*
X484936Y-4402480D01*
X485648Y-4396181D01*
X485648Y-4363720D01*
X426720Y-4363720D01*
G37*
G36*
X302818Y-4422648D02*
G01*
X335280Y-4422648D01*
X335280Y-4363720D01*
X276352Y-4363720D01*
X276352Y-4396181D01*
X277063Y-4402480D01*
X278993Y-4407966D01*
X282041Y-4412843D01*
X286156Y-4416958D01*
X291033Y-4420006D01*
X296519Y-4421936D01*
G37*
G36*
X889000Y-4422648D02*
G01*
X902665Y-4421733D01*
X916076Y-4419041D01*
X929030Y-4414672D01*
X941324Y-4408627D01*
X952703Y-4401007D01*
X962964Y-4391964D01*
X972007Y-4381703D01*
X979627Y-4370324D01*
X985672Y-4358030D01*
X990041Y-4345076D01*
X992733Y-4331665D01*
X993648Y-4318000D01*
X992733Y-4304334D01*
X990041Y-4290923D01*
X985672Y-4277969D01*
X979627Y-4265676D01*
X972007Y-4254296D01*
X962964Y-4244035D01*
X952703Y-4234992D01*
X941324Y-4227372D01*
X929030Y-4221327D01*
X916076Y-4216958D01*
X902665Y-4214266D01*
X889000Y-4213352D01*
X875334Y-4214266D01*
X861923Y-4216958D01*
X848969Y-4221327D01*
X836676Y-4227372D01*
X825296Y-4234992D01*
X815035Y-4244035D01*
X805992Y-4254296D01*
X798372Y-4265676D01*
X792327Y-4277969D01*
X787958Y-4290923D01*
X785266Y-4304334D01*
X784352Y-4318000D01*
X785266Y-4331665D01*
X787958Y-4345076D01*
X792327Y-4358030D01*
X798372Y-4370324D01*
X805992Y-4381703D01*
X815035Y-4391964D01*
X825296Y-4401007D01*
X836676Y-4408627D01*
X848969Y-4414672D01*
X861923Y-4419041D01*
X875334Y-4421733D01*
G37*
G36*
X-889000Y-4422648D02*
G01*
X-875334Y-4421733D01*
X-861923Y-4419041D01*
X-848969Y-4414672D01*
X-836676Y-4408627D01*
X-825296Y-4401007D01*
X-815035Y-4391964D01*
X-805992Y-4381703D01*
X-798372Y-4370324D01*
X-792327Y-4358030D01*
X-787958Y-4345076D01*
X-785266Y-4331665D01*
X-784352Y-4318000D01*
X-785266Y-4304334D01*
X-787958Y-4290923D01*
X-792327Y-4277969D01*
X-798372Y-4265676D01*
X-805992Y-4254296D01*
X-815035Y-4244035D01*
X-825296Y-4234992D01*
X-836676Y-4227372D01*
X-848969Y-4221327D01*
X-861923Y-4216958D01*
X-875334Y-4214266D01*
X-889000Y-4213352D01*
X-902665Y-4214266D01*
X-916076Y-4216958D01*
X-929030Y-4221327D01*
X-941324Y-4227372D01*
X-952703Y-4234992D01*
X-962964Y-4244035D01*
X-972007Y-4254296D01*
X-979627Y-4265676D01*
X-985672Y-4277969D01*
X-990041Y-4290923D01*
X-992733Y-4304334D01*
X-993648Y-4318000D01*
X-992733Y-4331665D01*
X-990041Y-4345076D01*
X-985672Y-4358030D01*
X-979627Y-4370324D01*
X-972007Y-4381703D01*
X-962964Y-4391964D01*
X-952703Y-4401007D01*
X-941324Y-4408627D01*
X-929030Y-4414672D01*
X-916076Y-4419041D01*
X-902665Y-4421733D01*
G37*
G36*
X-381000Y-4422648D02*
G01*
X-367334Y-4421733D01*
X-353923Y-4419041D01*
X-340969Y-4414672D01*
X-328676Y-4408627D01*
X-317296Y-4401007D01*
X-307035Y-4391964D01*
X-297992Y-4381703D01*
X-290372Y-4370324D01*
X-284327Y-4358030D01*
X-279958Y-4345076D01*
X-277266Y-4331665D01*
X-276352Y-4318000D01*
X-277266Y-4304334D01*
X-279958Y-4290923D01*
X-284327Y-4277969D01*
X-290372Y-4265676D01*
X-297992Y-4254296D01*
X-307035Y-4244035D01*
X-317296Y-4234992D01*
X-328676Y-4227372D01*
X-340969Y-4221327D01*
X-353923Y-4216958D01*
X-367334Y-4214266D01*
X-381000Y-4213352D01*
X-394665Y-4214266D01*
X-408076Y-4216958D01*
X-421030Y-4221327D01*
X-433324Y-4227372D01*
X-444703Y-4234992D01*
X-454964Y-4244035D01*
X-464007Y-4254296D01*
X-471627Y-4265676D01*
X-477672Y-4277969D01*
X-482041Y-4290923D01*
X-484733Y-4304334D01*
X-485648Y-4318000D01*
X-484733Y-4331665D01*
X-482041Y-4345076D01*
X-477672Y-4358030D01*
X-471627Y-4370324D01*
X-464007Y-4381703D01*
X-454964Y-4391964D01*
X-444703Y-4401007D01*
X-433324Y-4408627D01*
X-421030Y-4414672D01*
X-408076Y-4419041D01*
X-394665Y-4421733D01*
G37*
G36*
X-635000Y-4422648D02*
G01*
X-621334Y-4421733D01*
X-607923Y-4419041D01*
X-594969Y-4414672D01*
X-582676Y-4408627D01*
X-571296Y-4401007D01*
X-561035Y-4391964D01*
X-551992Y-4381703D01*
X-544372Y-4370324D01*
X-538327Y-4358030D01*
X-533958Y-4345076D01*
X-531266Y-4331665D01*
X-530352Y-4318000D01*
X-531266Y-4304334D01*
X-533958Y-4290923D01*
X-538327Y-4277969D01*
X-544372Y-4265676D01*
X-551992Y-4254296D01*
X-561035Y-4244035D01*
X-571296Y-4234992D01*
X-582676Y-4227372D01*
X-594969Y-4221327D01*
X-607923Y-4216958D01*
X-621334Y-4214266D01*
X-635000Y-4213352D01*
X-648665Y-4214266D01*
X-662076Y-4216958D01*
X-675030Y-4221327D01*
X-687324Y-4227372D01*
X-698703Y-4234992D01*
X-708964Y-4244035D01*
X-718007Y-4254296D01*
X-725627Y-4265676D01*
X-731672Y-4277969D01*
X-736041Y-4290923D01*
X-738733Y-4304334D01*
X-739648Y-4318000D01*
X-738733Y-4331665D01*
X-736041Y-4345076D01*
X-731672Y-4358030D01*
X-725627Y-4370324D01*
X-718007Y-4381703D01*
X-708964Y-4391964D01*
X-698703Y-4401007D01*
X-687324Y-4408627D01*
X-675030Y-4414672D01*
X-662076Y-4419041D01*
X-648665Y-4421733D01*
G37*
G36*
X1143000Y-4422648D02*
G01*
X1156665Y-4421733D01*
X1170076Y-4419041D01*
X1183030Y-4414672D01*
X1195324Y-4408627D01*
X1206703Y-4401007D01*
X1216964Y-4391964D01*
X1226007Y-4381703D01*
X1233627Y-4370324D01*
X1239672Y-4358030D01*
X1244041Y-4345076D01*
X1246733Y-4331665D01*
X1247648Y-4318000D01*
X1246733Y-4304334D01*
X1244041Y-4290923D01*
X1239672Y-4277969D01*
X1233627Y-4265676D01*
X1226007Y-4254296D01*
X1216964Y-4244035D01*
X1206703Y-4234992D01*
X1195324Y-4227372D01*
X1183030Y-4221327D01*
X1170076Y-4216958D01*
X1156665Y-4214266D01*
X1143000Y-4213352D01*
X1129334Y-4214266D01*
X1115923Y-4216958D01*
X1102969Y-4221327D01*
X1090676Y-4227372D01*
X1079296Y-4234992D01*
X1069035Y-4244035D01*
X1059992Y-4254296D01*
X1052372Y-4265676D01*
X1046327Y-4277969D01*
X1041958Y-4290923D01*
X1039266Y-4304334D01*
X1038352Y-4318000D01*
X1039266Y-4331665D01*
X1041958Y-4345076D01*
X1046327Y-4358030D01*
X1052372Y-4370324D01*
X1059992Y-4381703D01*
X1069035Y-4391964D01*
X1079296Y-4401007D01*
X1090676Y-4408627D01*
X1102969Y-4414672D01*
X1115923Y-4419041D01*
X1129334Y-4421733D01*
G37*
G36*
X-1221181Y-4422648D02*
G01*
X-1064818Y-4422648D01*
X-1058519Y-4421936D01*
X-1053033Y-4420006D01*
X-1048156Y-4416958D01*
X-1044041Y-4412843D01*
X-1040993Y-4407966D01*
X-1039063Y-4402480D01*
X-1038352Y-4396181D01*
X-1038352Y-4239818D01*
X-1039063Y-4233519D01*
X-1040993Y-4228033D01*
X-1044041Y-4223156D01*
X-1048156Y-4219041D01*
X-1053033Y-4215993D01*
X-1058519Y-4214063D01*
X-1064818Y-4213352D01*
X-1221181Y-4213352D01*
X-1227480Y-4214063D01*
X-1232966Y-4215993D01*
X-1237843Y-4219041D01*
X-1241958Y-4223156D01*
X-1245006Y-4228033D01*
X-1246936Y-4233519D01*
X-1247648Y-4239818D01*
X-1247648Y-4396181D01*
X-1246936Y-4402480D01*
X-1245006Y-4407966D01*
X-1241958Y-4412843D01*
X-1237843Y-4416958D01*
X-1232966Y-4420006D01*
X-1227480Y-4421936D01*
G37*
G36*
X635000Y-4422648D02*
G01*
X648665Y-4421733D01*
X662076Y-4419041D01*
X675030Y-4414672D01*
X687324Y-4408627D01*
X698703Y-4401007D01*
X708964Y-4391964D01*
X718007Y-4381703D01*
X725627Y-4370324D01*
X731672Y-4358030D01*
X736041Y-4345076D01*
X738733Y-4331665D01*
X739648Y-4318000D01*
X738733Y-4304334D01*
X736041Y-4290923D01*
X731672Y-4277969D01*
X725627Y-4265676D01*
X718007Y-4254296D01*
X708964Y-4244035D01*
X698703Y-4234992D01*
X687324Y-4227372D01*
X679246Y-4223410D01*
X676249Y-4221175D01*
X674268Y-4217974D01*
X673608Y-4214317D01*
X673608Y-4122216D01*
X672795Y-4114190D01*
X670610Y-4106976D01*
X667054Y-4100322D01*
X661924Y-4094073D01*
X152400Y-3584498D01*
X150266Y-3581400D01*
X149402Y-3577742D01*
X149961Y-3574034D01*
X153009Y-3564991D01*
X155702Y-3551377D01*
X156616Y-3537559D01*
X155702Y-3523742D01*
X153009Y-3510178D01*
X149910Y-3501034D01*
X149402Y-3497326D01*
X150215Y-3493668D01*
X152349Y-3490569D01*
X1423924Y-2218994D01*
X1429054Y-2212746D01*
X1432610Y-2206091D01*
X1434795Y-2198827D01*
X1435608Y-2190800D01*
X1435608Y-1373682D01*
X1436268Y-1370025D01*
X1438249Y-1366824D01*
X1441246Y-1364589D01*
X1449324Y-1360627D01*
X1460703Y-1353007D01*
X1470964Y-1343964D01*
X1480007Y-1333703D01*
X1487627Y-1322324D01*
X1493672Y-1310030D01*
X1498041Y-1297076D01*
X1500733Y-1283665D01*
X1501648Y-1270000D01*
X1500733Y-1256334D01*
X1498041Y-1242923D01*
X1493672Y-1229969D01*
X1487627Y-1217676D01*
X1480007Y-1206296D01*
X1470964Y-1196035D01*
X1460703Y-1186992D01*
X1449324Y-1179372D01*
X1437030Y-1173327D01*
X1424076Y-1168958D01*
X1410665Y-1166266D01*
X1397000Y-1165352D01*
X1383334Y-1166266D01*
X1369923Y-1168958D01*
X1356969Y-1173327D01*
X1344676Y-1179372D01*
X1333296Y-1186992D01*
X1323035Y-1196035D01*
X1313992Y-1206296D01*
X1306372Y-1217676D01*
X1300327Y-1229969D01*
X1295958Y-1242923D01*
X1293266Y-1256334D01*
X1292352Y-1270000D01*
X1293266Y-1283665D01*
X1295958Y-1297076D01*
X1300327Y-1310030D01*
X1306372Y-1322324D01*
X1313992Y-1333703D01*
X1323035Y-1343964D01*
X1333296Y-1353007D01*
X1344676Y-1360627D01*
X1352702Y-1364589D01*
X1355699Y-1366824D01*
X1357680Y-1369974D01*
X1358392Y-1373682D01*
X1358392Y-2171141D01*
X1357630Y-2175002D01*
X1355394Y-2178304D01*
X97739Y-3435959D01*
X94640Y-3438093D01*
X90982Y-3438906D01*
X87274Y-3438398D01*
X78130Y-3435299D01*
X64566Y-3432606D01*
X50749Y-3431692D01*
X36931Y-3432606D01*
X23317Y-3435299D01*
X14274Y-3438398D01*
X10566Y-3438906D01*
X6908Y-3438042D01*
X3810Y-3435959D01*
X-288645Y-3143504D01*
X-290830Y-3140202D01*
X-291592Y-3136341D01*
X-291592Y-2098954D01*
X-290880Y-2095195D01*
X-288798Y-2091943D01*
X-285648Y-2089708D01*
X-281889Y-2088794D01*
X-278079Y-2089353D01*
X-274726Y-2091334D01*
X-267614Y-2097582D01*
X-256082Y-2105253D01*
X-243687Y-2111400D01*
X-230581Y-2115870D01*
X-216966Y-2118563D01*
X-203149Y-2119477D01*
X-189331Y-2118563D01*
X-175768Y-2115870D01*
X-162610Y-2111400D01*
X-150215Y-2105253D01*
X-138684Y-2097582D01*
X-128270Y-2088438D01*
X-119126Y-2078024D01*
X-111455Y-2066493D01*
X-105308Y-2054098D01*
X-100888Y-2040991D01*
X-98196Y-2027377D01*
X-97282Y-2013559D01*
X-98196Y-1999742D01*
X-100888Y-1986178D01*
X-105308Y-1973072D01*
X-111455Y-1960625D01*
X-119126Y-1949094D01*
X-128270Y-1938680D01*
X-138684Y-1929587D01*
X-150215Y-1921865D01*
X-162610Y-1915769D01*
X-175768Y-1911299D01*
X-189331Y-1908606D01*
X-203149Y-1907692D01*
X-216966Y-1908606D01*
X-230581Y-1911299D01*
X-243687Y-1915769D01*
X-256082Y-1921865D01*
X-267614Y-1929587D01*
X-278028Y-1938680D01*
X-287172Y-1949094D01*
X-289560Y-1952701D01*
X-292760Y-1955749D01*
X-296976Y-1957120D01*
X-301396Y-1956612D01*
X-305155Y-1954225D01*
X-863346Y-1396034D01*
X-865682Y-1392377D01*
X-866343Y-1388160D01*
X-865124Y-1383995D01*
X-862330Y-1380744D01*
X-858469Y-1378915D01*
X-856792Y-1378559D01*
X-843178Y-1373530D01*
X-830326Y-1366824D01*
X-818388Y-1358544D01*
X-807669Y-1348790D01*
X-798271Y-1337716D01*
X-790346Y-1325575D01*
X-784047Y-1312468D01*
X-779475Y-1298702D01*
X-776681Y-1284478D01*
X-775766Y-1270000D01*
X-776681Y-1255522D01*
X-779475Y-1241298D01*
X-784047Y-1227531D01*
X-790346Y-1214424D01*
X-798271Y-1202283D01*
X-807669Y-1191209D01*
X-818388Y-1181455D01*
X-830326Y-1173175D01*
X-843178Y-1166469D01*
X-856792Y-1161440D01*
X-870915Y-1158240D01*
X-885393Y-1156817D01*
X-899871Y-1157274D01*
X-914196Y-1159611D01*
X-928116Y-1163726D01*
X-941374Y-1169619D01*
X-953769Y-1177137D01*
X-965098Y-1186180D01*
X-975207Y-1196594D01*
X-983894Y-1208227D01*
X-991006Y-1220876D01*
X-996442Y-1234338D01*
X-1000150Y-1248359D01*
X-1001979Y-1262735D01*
X-1001979Y-1277264D01*
X-1000150Y-1291640D01*
X-996442Y-1305661D01*
X-991006Y-1319123D01*
X-983894Y-1331772D01*
X-977239Y-1340713D01*
X-975410Y-1344777D01*
X-975512Y-1349197D01*
X-977493Y-1353210D01*
X-981049Y-1355953D01*
X-985367Y-1356918D01*
X-997305Y-1356918D01*
X-1001166Y-1356156D01*
X-1004468Y-1353972D01*
X-1042365Y-1316024D01*
X-1044498Y-1312926D01*
X-1045362Y-1309268D01*
X-1044803Y-1305560D01*
X-1041958Y-1297076D01*
X-1039266Y-1283665D01*
X-1038352Y-1270000D01*
X-1039266Y-1256334D01*
X-1041958Y-1242923D01*
X-1046327Y-1229969D01*
X-1052372Y-1217676D01*
X-1059992Y-1206296D01*
X-1069035Y-1196035D01*
X-1079296Y-1186992D01*
X-1090676Y-1179372D01*
X-1102969Y-1173327D01*
X-1115923Y-1168958D01*
X-1129334Y-1166266D01*
X-1143000Y-1165352D01*
X-1156665Y-1166266D01*
X-1170076Y-1168958D01*
X-1183030Y-1173327D01*
X-1195324Y-1179372D01*
X-1206703Y-1186992D01*
X-1216964Y-1196035D01*
X-1226007Y-1206296D01*
X-1233627Y-1217676D01*
X-1239672Y-1229969D01*
X-1244041Y-1242923D01*
X-1246733Y-1256334D01*
X-1247648Y-1270000D01*
X-1246733Y-1283665D01*
X-1244041Y-1297076D01*
X-1239672Y-1310030D01*
X-1233627Y-1322324D01*
X-1226007Y-1333703D01*
X-1216964Y-1343964D01*
X-1206703Y-1353007D01*
X-1195324Y-1360627D01*
X-1183030Y-1366672D01*
X-1170076Y-1371041D01*
X-1156665Y-1373733D01*
X-1143000Y-1374648D01*
X-1129334Y-1373733D01*
X-1115923Y-1371041D01*
X-1107440Y-1368196D01*
X-1103731Y-1367637D01*
X-1100074Y-1368501D01*
X-1096975Y-1370634D01*
X-1052576Y-1415034D01*
X-1050391Y-1418336D01*
X-1049629Y-1422196D01*
X-1050391Y-1426108D01*
X-1052576Y-1429410D01*
X-1055878Y-1431594D01*
X-1059789Y-1432356D01*
X-1429867Y-1432356D01*
X-1433728Y-1431594D01*
X-1437030Y-1429410D01*
X-1550365Y-1316024D01*
X-1552498Y-1312926D01*
X-1553362Y-1309268D01*
X-1552803Y-1305560D01*
X-1549958Y-1297076D01*
X-1547266Y-1283665D01*
X-1546352Y-1270000D01*
X-1547266Y-1256334D01*
X-1549958Y-1242923D01*
X-1554327Y-1229969D01*
X-1560372Y-1217676D01*
X-1567992Y-1206296D01*
X-1577035Y-1196035D01*
X-1587296Y-1186992D01*
X-1598676Y-1179372D01*
X-1610969Y-1173327D01*
X-1623923Y-1168958D01*
X-1637334Y-1166266D01*
X-1651000Y-1165352D01*
X-1664665Y-1166266D01*
X-1678076Y-1168958D01*
X-1691030Y-1173327D01*
X-1703324Y-1179372D01*
X-1714703Y-1186992D01*
X-1724964Y-1196035D01*
X-1734007Y-1206296D01*
X-1741627Y-1217676D01*
X-1747672Y-1229969D01*
X-1752041Y-1242923D01*
X-1754733Y-1256334D01*
X-1755648Y-1270000D01*
X-1754733Y-1283665D01*
X-1752041Y-1297076D01*
X-1747672Y-1310030D01*
X-1741627Y-1322324D01*
X-1734007Y-1333703D01*
X-1724964Y-1343964D01*
X-1714703Y-1353007D01*
X-1703324Y-1360627D01*
X-1691030Y-1366672D01*
X-1678076Y-1371041D01*
X-1664665Y-1373733D01*
X-1651000Y-1374648D01*
X-1637334Y-1373733D01*
X-1623923Y-1371041D01*
X-1615440Y-1368196D01*
X-1611731Y-1367637D01*
X-1608074Y-1368501D01*
X-1604975Y-1370634D01*
X-1477721Y-1497939D01*
X-1471472Y-1503019D01*
X-1464818Y-1506575D01*
X-1457553Y-1508810D01*
X-1449527Y-1509572D01*
X-1019962Y-1509572D01*
X-1016050Y-1510334D01*
X-1012748Y-1512570D01*
X-558800Y-1966518D01*
X-556717Y-1969617D01*
X-555853Y-1973275D01*
X-556361Y-1976983D01*
X-559460Y-1986127D01*
X-562203Y-1999691D01*
X-563067Y-2013508D01*
X-562203Y-2027326D01*
X-559460Y-2040940D01*
X-555040Y-2054047D01*
X-548894Y-2066442D01*
X-541223Y-2077974D01*
X-532079Y-2088388D01*
X-521665Y-2097532D01*
X-510133Y-2105202D01*
X-497738Y-2111349D01*
X-484632Y-2115820D01*
X-471017Y-2118512D01*
X-457200Y-2119426D01*
X-443382Y-2118512D01*
X-429818Y-2115820D01*
X-416661Y-2111349D01*
X-404266Y-2105202D01*
X-392734Y-2097532D01*
X-385673Y-2091334D01*
X-382371Y-2089404D01*
X-378510Y-2088845D01*
X-374802Y-2089708D01*
X-371652Y-2091943D01*
X-369570Y-2095195D01*
X-368808Y-2098954D01*
X-368808Y-3156000D01*
X-368046Y-3164027D01*
X-365810Y-3171291D01*
X-362254Y-3177946D01*
X-357174Y-3184194D01*
X-50850Y-3490468D01*
X-48717Y-3493566D01*
X-47853Y-3497224D01*
X-48412Y-3500932D01*
X-51511Y-3510178D01*
X-54254Y-3523742D01*
X-55168Y-3537559D01*
X-54254Y-3551377D01*
X-51511Y-3564991D01*
X-47091Y-3578098D01*
X-40944Y-3590493D01*
X-33274Y-3602024D01*
X-24130Y-3612438D01*
X-13716Y-3621582D01*
X-2184Y-3629253D01*
X10210Y-3635400D01*
X23317Y-3639870D01*
X36931Y-3642563D01*
X50749Y-3643477D01*
X64566Y-3642563D01*
X78130Y-3639870D01*
X87376Y-3636721D01*
X91084Y-3636213D01*
X94742Y-3637026D01*
X97840Y-3639159D01*
X593394Y-4134713D01*
X595630Y-4138015D01*
X596392Y-4141927D01*
X596392Y-4214317D01*
X595680Y-4218025D01*
X593699Y-4221175D01*
X590702Y-4223410D01*
X582676Y-4227372D01*
X571296Y-4234992D01*
X561035Y-4244035D01*
X551992Y-4254296D01*
X544372Y-4265676D01*
X538327Y-4277969D01*
X533958Y-4290923D01*
X531266Y-4304334D01*
X530352Y-4318000D01*
X531266Y-4331665D01*
X533958Y-4345076D01*
X538327Y-4358030D01*
X544372Y-4370324D01*
X551992Y-4381703D01*
X561035Y-4391964D01*
X571296Y-4401007D01*
X582676Y-4408627D01*
X594969Y-4414672D01*
X607923Y-4419041D01*
X621334Y-4421733D01*
G37*
G36*
X1999996Y-4327499D02*
G01*
X2015388Y-4326534D01*
X2030526Y-4323791D01*
X2045207Y-4319219D01*
X2059228Y-4312869D01*
X2072436Y-4304893D01*
X2084527Y-4295394D01*
X2095398Y-4284522D01*
X2104898Y-4272432D01*
X2112873Y-4259224D01*
X2119223Y-4245203D01*
X2123795Y-4230522D01*
X2126538Y-4215384D01*
X2127504Y-4199991D01*
X2126538Y-4184599D01*
X2123795Y-4169460D01*
X2119223Y-4154779D01*
X2112873Y-4140758D01*
X2104898Y-4127550D01*
X2095398Y-4115460D01*
X2084527Y-4104589D01*
X2072436Y-4095089D01*
X2059228Y-4087114D01*
X2045207Y-4080764D01*
X2030526Y-4076192D01*
X2015388Y-4073448D01*
X1999996Y-4072483D01*
X1984603Y-4073448D01*
X1969465Y-4076192D01*
X1954784Y-4080764D01*
X1940763Y-4087114D01*
X1927555Y-4095089D01*
X1915464Y-4104589D01*
X1904593Y-4115460D01*
X1895093Y-4127550D01*
X1887118Y-4140758D01*
X1880768Y-4154779D01*
X1876196Y-4169460D01*
X1873453Y-4184599D01*
X1872488Y-4199991D01*
X1873453Y-4215384D01*
X1876196Y-4230522D01*
X1880768Y-4245203D01*
X1887118Y-4259224D01*
X1895093Y-4272432D01*
X1904593Y-4284522D01*
X1915464Y-4295394D01*
X1927555Y-4304893D01*
X1940763Y-4312869D01*
X1954784Y-4319219D01*
X1969465Y-4323791D01*
X1984603Y-4326534D01*
G37*
G36*
X-1999996Y-4327499D02*
G01*
X-1984603Y-4326534D01*
X-1969465Y-4323791D01*
X-1954784Y-4319219D01*
X-1940763Y-4312869D01*
X-1927555Y-4304893D01*
X-1915464Y-4295394D01*
X-1904593Y-4284522D01*
X-1895093Y-4272432D01*
X-1887118Y-4259224D01*
X-1880768Y-4245203D01*
X-1876196Y-4230522D01*
X-1873453Y-4215384D01*
X-1872488Y-4199991D01*
X-1873453Y-4184599D01*
X-1876196Y-4169460D01*
X-1880768Y-4154779D01*
X-1887118Y-4140758D01*
X-1895093Y-4127550D01*
X-1904593Y-4115460D01*
X-1915464Y-4104589D01*
X-1927555Y-4095089D01*
X-1940763Y-4087114D01*
X-1954784Y-4080764D01*
X-1969465Y-4076192D01*
X-1984603Y-4073448D01*
X-1999996Y-4072483D01*
X-2015388Y-4073448D01*
X-2030526Y-4076192D01*
X-2045207Y-4080764D01*
X-2059228Y-4087114D01*
X-2072436Y-4095089D01*
X-2084527Y-4104589D01*
X-2095398Y-4115460D01*
X-2104898Y-4127550D01*
X-2112873Y-4140758D01*
X-2119223Y-4154779D01*
X-2123795Y-4169460D01*
X-2126538Y-4184599D01*
X-2127504Y-4199991D01*
X-2126538Y-4215384D01*
X-2123795Y-4230522D01*
X-2119223Y-4245203D01*
X-2112873Y-4259224D01*
X-2104898Y-4272432D01*
X-2095398Y-4284522D01*
X-2084527Y-4295394D01*
X-2072436Y-4304893D01*
X-2059228Y-4312869D01*
X-2045207Y-4319219D01*
X-2030526Y-4323791D01*
X-2015388Y-4326534D01*
G37*
G36*
X276352Y-4272280D02*
G01*
X335280Y-4272280D01*
X335280Y-4213352D01*
X302818Y-4213352D01*
X296519Y-4214063D01*
X291033Y-4215993D01*
X286156Y-4219041D01*
X282041Y-4223156D01*
X278993Y-4228033D01*
X277063Y-4233519D01*
X276352Y-4239818D01*
G37*
G36*
X426720Y-4272280D02*
G01*
X485648Y-4272280D01*
X485648Y-4239818D01*
X484936Y-4233519D01*
X483006Y-4228033D01*
X479958Y-4223156D01*
X475843Y-4219041D01*
X470966Y-4215993D01*
X465480Y-4214063D01*
X459181Y-4213352D01*
X426720Y-4213352D01*
G37*
G36*
X-1473250Y-3643477D02*
G01*
X-1459433Y-3642563D01*
X-1445869Y-3639870D01*
X-1432712Y-3635400D01*
X-1420317Y-3629253D01*
X-1408785Y-3621582D01*
X-1398371Y-3612438D01*
X-1389227Y-3602024D01*
X-1381556Y-3590493D01*
X-1375410Y-3578098D01*
X-1370990Y-3564991D01*
X-1368298Y-3551377D01*
X-1367383Y-3537559D01*
X-1368298Y-3523742D01*
X-1370990Y-3510178D01*
X-1375410Y-3497072D01*
X-1381556Y-3484626D01*
X-1389227Y-3473094D01*
X-1398371Y-3462680D01*
X-1408785Y-3453587D01*
X-1420317Y-3445865D01*
X-1432712Y-3439769D01*
X-1445869Y-3435299D01*
X-1459433Y-3432606D01*
X-1473250Y-3431692D01*
X-1487068Y-3432606D01*
X-1500682Y-3435299D01*
X-1513789Y-3439769D01*
X-1526184Y-3445865D01*
X-1537716Y-3453587D01*
X-1548130Y-3462680D01*
X-1557274Y-3473094D01*
X-1564944Y-3484626D01*
X-1571091Y-3497072D01*
X-1575511Y-3510178D01*
X-1578254Y-3523742D01*
X-1579118Y-3537559D01*
X-1578254Y-3551377D01*
X-1575511Y-3564991D01*
X-1571091Y-3578098D01*
X-1564944Y-3590493D01*
X-1557274Y-3602024D01*
X-1548130Y-3612438D01*
X-1537716Y-3621582D01*
X-1526184Y-3629253D01*
X-1513789Y-3635400D01*
X-1500682Y-3639870D01*
X-1487068Y-3642563D01*
G37*
G36*
X-457250Y-3643477D02*
G01*
X-443433Y-3642563D01*
X-429869Y-3639870D01*
X-416712Y-3635400D01*
X-404317Y-3629253D01*
X-392785Y-3621582D01*
X-382371Y-3612438D01*
X-373227Y-3602024D01*
X-365556Y-3590493D01*
X-359410Y-3578098D01*
X-354990Y-3564991D01*
X-352298Y-3551377D01*
X-351383Y-3537559D01*
X-352298Y-3523742D01*
X-354990Y-3510178D01*
X-359410Y-3497072D01*
X-365556Y-3484626D01*
X-373227Y-3473094D01*
X-382371Y-3462680D01*
X-392785Y-3453587D01*
X-404317Y-3445865D01*
X-416712Y-3439769D01*
X-429869Y-3435299D01*
X-443433Y-3432606D01*
X-457250Y-3431692D01*
X-471068Y-3432606D01*
X-484682Y-3435299D01*
X-497789Y-3439769D01*
X-510184Y-3445865D01*
X-521716Y-3453587D01*
X-532130Y-3462680D01*
X-541274Y-3473094D01*
X-548944Y-3484626D01*
X-555091Y-3497072D01*
X-559511Y-3510178D01*
X-562254Y-3523742D01*
X-563118Y-3537559D01*
X-562254Y-3551377D01*
X-559511Y-3564991D01*
X-555091Y-3578098D01*
X-548944Y-3590493D01*
X-541274Y-3602024D01*
X-532130Y-3612438D01*
X-521716Y-3621582D01*
X-510184Y-3629253D01*
X-497789Y-3635400D01*
X-484682Y-3639870D01*
X-471068Y-3642563D01*
G37*
G36*
X-1981250Y-3643477D02*
G01*
X-1967433Y-3642563D01*
X-1953869Y-3639870D01*
X-1940712Y-3635400D01*
X-1928317Y-3629253D01*
X-1916785Y-3621582D01*
X-1906371Y-3612438D01*
X-1897227Y-3602024D01*
X-1889556Y-3590493D01*
X-1883410Y-3578098D01*
X-1878990Y-3564991D01*
X-1876298Y-3551377D01*
X-1875383Y-3537559D01*
X-1876298Y-3523742D01*
X-1878990Y-3510178D01*
X-1883410Y-3497072D01*
X-1889556Y-3484626D01*
X-1897227Y-3473094D01*
X-1906371Y-3462680D01*
X-1916785Y-3453587D01*
X-1928317Y-3445865D01*
X-1940712Y-3439769D01*
X-1953869Y-3435299D01*
X-1967433Y-3432606D01*
X-1981250Y-3431692D01*
X-1995068Y-3432606D01*
X-2008682Y-3435299D01*
X-2021789Y-3439769D01*
X-2034184Y-3445865D01*
X-2045716Y-3453587D01*
X-2056130Y-3462680D01*
X-2065274Y-3473094D01*
X-2072944Y-3484626D01*
X-2079091Y-3497072D01*
X-2083511Y-3510178D01*
X-2086254Y-3523742D01*
X-2087118Y-3537559D01*
X-2086254Y-3551377D01*
X-2083511Y-3564991D01*
X-2079091Y-3578098D01*
X-2072944Y-3590493D01*
X-2065274Y-3602024D01*
X-2056130Y-3612438D01*
X-2045716Y-3621582D01*
X-2034184Y-3629253D01*
X-2021789Y-3635400D01*
X-2008682Y-3639870D01*
X-1995068Y-3642563D01*
G37*
G36*
X-965250Y-3643477D02*
G01*
X-951433Y-3642563D01*
X-937869Y-3639870D01*
X-924712Y-3635400D01*
X-912317Y-3629253D01*
X-900785Y-3621582D01*
X-890371Y-3612438D01*
X-881227Y-3602024D01*
X-873556Y-3590493D01*
X-867410Y-3578098D01*
X-862990Y-3564991D01*
X-860298Y-3551377D01*
X-859383Y-3537559D01*
X-860298Y-3523742D01*
X-862990Y-3510178D01*
X-867410Y-3497072D01*
X-873556Y-3484626D01*
X-881227Y-3473094D01*
X-890371Y-3462680D01*
X-900785Y-3453587D01*
X-912317Y-3445865D01*
X-924712Y-3439769D01*
X-937869Y-3435299D01*
X-951433Y-3432606D01*
X-965250Y-3431692D01*
X-979068Y-3432606D01*
X-992682Y-3435299D01*
X-1005789Y-3439769D01*
X-1018184Y-3445865D01*
X-1029716Y-3453587D01*
X-1040130Y-3462680D01*
X-1049274Y-3473094D01*
X-1056944Y-3484626D01*
X-1063091Y-3497072D01*
X-1067511Y-3510178D01*
X-1070254Y-3523742D01*
X-1071118Y-3537559D01*
X-1070254Y-3551377D01*
X-1067511Y-3564991D01*
X-1063091Y-3578098D01*
X-1056944Y-3590493D01*
X-1049274Y-3602024D01*
X-1040130Y-3612438D01*
X-1029716Y-3621582D01*
X-1018184Y-3629253D01*
X-1005789Y-3635400D01*
X-992682Y-3639870D01*
X-979068Y-3642563D01*
G37*
G36*
X-2489250Y-3643477D02*
G01*
X-2475433Y-3642563D01*
X-2461869Y-3639870D01*
X-2448712Y-3635400D01*
X-2436317Y-3629253D01*
X-2424785Y-3621582D01*
X-2414371Y-3612438D01*
X-2405227Y-3602024D01*
X-2397556Y-3590493D01*
X-2391410Y-3578098D01*
X-2386990Y-3564991D01*
X-2384298Y-3551377D01*
X-2383383Y-3537559D01*
X-2384298Y-3523742D01*
X-2386990Y-3510178D01*
X-2391410Y-3497072D01*
X-2397556Y-3484626D01*
X-2405227Y-3473094D01*
X-2414371Y-3462680D01*
X-2424785Y-3453587D01*
X-2436317Y-3445865D01*
X-2448712Y-3439769D01*
X-2461869Y-3435299D01*
X-2475433Y-3432606D01*
X-2489250Y-3431692D01*
X-2503068Y-3432606D01*
X-2516682Y-3435299D01*
X-2529789Y-3439769D01*
X-2542184Y-3445865D01*
X-2553716Y-3453587D01*
X-2564130Y-3462680D01*
X-2573274Y-3473094D01*
X-2580944Y-3484626D01*
X-2587091Y-3497072D01*
X-2591511Y-3510178D01*
X-2594254Y-3523742D01*
X-2595118Y-3537559D01*
X-2594254Y-3551377D01*
X-2591511Y-3564991D01*
X-2587091Y-3578098D01*
X-2580944Y-3590493D01*
X-2573274Y-3602024D01*
X-2564130Y-3612438D01*
X-2553716Y-3621582D01*
X-2542184Y-3629253D01*
X-2529789Y-3635400D01*
X-2516682Y-3639870D01*
X-2503068Y-3642563D01*
G37*
G36*
X304800Y-3643426D02*
G01*
X318617Y-3642512D01*
X332181Y-3639820D01*
X345287Y-3635349D01*
X357733Y-3629202D01*
X369265Y-3621532D01*
X379679Y-3612387D01*
X388772Y-3601974D01*
X396494Y-3590442D01*
X402640Y-3578047D01*
X407060Y-3564940D01*
X409752Y-3551326D01*
X410667Y-3537508D01*
X409752Y-3523691D01*
X407060Y-3510127D01*
X402640Y-3497021D01*
X396494Y-3484575D01*
X388772Y-3473043D01*
X379679Y-3462629D01*
X369265Y-3453536D01*
X357733Y-3445814D01*
X345287Y-3439718D01*
X332181Y-3435248D01*
X318617Y-3432556D01*
X304800Y-3431641D01*
X290982Y-3432556D01*
X277368Y-3435248D01*
X264261Y-3439718D01*
X251866Y-3445814D01*
X240334Y-3453536D01*
X229920Y-3462629D01*
X220776Y-3473043D01*
X213106Y-3484575D01*
X206959Y-3497021D01*
X202488Y-3510127D01*
X199796Y-3523691D01*
X198882Y-3537508D01*
X199796Y-3551326D01*
X202488Y-3564940D01*
X206959Y-3578047D01*
X213106Y-3590442D01*
X220776Y-3601974D01*
X229920Y-3612387D01*
X240334Y-3621532D01*
X251866Y-3629202D01*
X264261Y-3635349D01*
X277368Y-3639820D01*
X290982Y-3642512D01*
G37*
G36*
X-1727200Y-3643426D02*
G01*
X-1713382Y-3642512D01*
X-1699818Y-3639820D01*
X-1686661Y-3635349D01*
X-1674266Y-3629202D01*
X-1662734Y-3621532D01*
X-1652320Y-3612387D01*
X-1643227Y-3601974D01*
X-1635506Y-3590442D01*
X-1629359Y-3578047D01*
X-1624939Y-3564940D01*
X-1622247Y-3551326D01*
X-1621332Y-3537508D01*
X-1622247Y-3523691D01*
X-1624939Y-3510127D01*
X-1629359Y-3497021D01*
X-1635506Y-3484575D01*
X-1643227Y-3473043D01*
X-1652320Y-3462629D01*
X-1662734Y-3453536D01*
X-1674266Y-3445814D01*
X-1686661Y-3439718D01*
X-1699818Y-3435248D01*
X-1713382Y-3432556D01*
X-1727200Y-3431641D01*
X-1741017Y-3432556D01*
X-1754632Y-3435248D01*
X-1767738Y-3439718D01*
X-1780133Y-3445814D01*
X-1791665Y-3453536D01*
X-1802079Y-3462629D01*
X-1811223Y-3473043D01*
X-1818893Y-3484575D01*
X-1825040Y-3497021D01*
X-1829460Y-3510127D01*
X-1832203Y-3523691D01*
X-1833118Y-3537508D01*
X-1832203Y-3551326D01*
X-1829460Y-3564940D01*
X-1825040Y-3578047D01*
X-1818893Y-3590442D01*
X-1811223Y-3601974D01*
X-1802079Y-3612387D01*
X-1791665Y-3621532D01*
X-1780133Y-3629202D01*
X-1767738Y-3635349D01*
X-1754632Y-3639820D01*
X-1741017Y-3642512D01*
G37*
G36*
X-203200Y-3643426D02*
G01*
X-189382Y-3642512D01*
X-175818Y-3639820D01*
X-162661Y-3635349D01*
X-150266Y-3629202D01*
X-138734Y-3621532D01*
X-128320Y-3612387D01*
X-119227Y-3601974D01*
X-111506Y-3590442D01*
X-105359Y-3578047D01*
X-100939Y-3564940D01*
X-98247Y-3551326D01*
X-97332Y-3537508D01*
X-98247Y-3523691D01*
X-100939Y-3510127D01*
X-105359Y-3497021D01*
X-111506Y-3484575D01*
X-119227Y-3473043D01*
X-128320Y-3462629D01*
X-138734Y-3453536D01*
X-150266Y-3445814D01*
X-162661Y-3439718D01*
X-175818Y-3435248D01*
X-189382Y-3432556D01*
X-203200Y-3431641D01*
X-217017Y-3432556D01*
X-230632Y-3435248D01*
X-243738Y-3439718D01*
X-256133Y-3445814D01*
X-267665Y-3453536D01*
X-278079Y-3462629D01*
X-287223Y-3473043D01*
X-294894Y-3484575D01*
X-301040Y-3497021D01*
X-305460Y-3510127D01*
X-308203Y-3523691D01*
X-309118Y-3537508D01*
X-308203Y-3551326D01*
X-305460Y-3564940D01*
X-301040Y-3578047D01*
X-294894Y-3590442D01*
X-287223Y-3601974D01*
X-278079Y-3612387D01*
X-267665Y-3621532D01*
X-256133Y-3629202D01*
X-243738Y-3635349D01*
X-230632Y-3639820D01*
X-217017Y-3642512D01*
G37*
G36*
X-1219200Y-3643426D02*
G01*
X-1205382Y-3642512D01*
X-1191818Y-3639820D01*
X-1178661Y-3635349D01*
X-1166266Y-3629202D01*
X-1154734Y-3621532D01*
X-1144320Y-3612387D01*
X-1135227Y-3601974D01*
X-1127506Y-3590442D01*
X-1121359Y-3578047D01*
X-1116939Y-3564940D01*
X-1114247Y-3551326D01*
X-1113332Y-3537508D01*
X-1114247Y-3523691D01*
X-1116939Y-3510127D01*
X-1121359Y-3497021D01*
X-1127506Y-3484575D01*
X-1135227Y-3473043D01*
X-1144320Y-3462629D01*
X-1154734Y-3453536D01*
X-1166266Y-3445814D01*
X-1178661Y-3439718D01*
X-1191818Y-3435248D01*
X-1205382Y-3432556D01*
X-1219200Y-3431641D01*
X-1233017Y-3432556D01*
X-1246632Y-3435248D01*
X-1259738Y-3439718D01*
X-1272133Y-3445814D01*
X-1283665Y-3453536D01*
X-1294079Y-3462629D01*
X-1303223Y-3473043D01*
X-1310894Y-3484575D01*
X-1317040Y-3497021D01*
X-1321460Y-3510127D01*
X-1324203Y-3523691D01*
X-1325118Y-3537508D01*
X-1324203Y-3551326D01*
X-1321460Y-3564940D01*
X-1317040Y-3578047D01*
X-1310894Y-3590442D01*
X-1303223Y-3601974D01*
X-1294079Y-3612387D01*
X-1283665Y-3621532D01*
X-1272133Y-3629202D01*
X-1259738Y-3635349D01*
X-1246632Y-3639820D01*
X-1233017Y-3642512D01*
G37*
G36*
X-2743200Y-3643426D02*
G01*
X-2729382Y-3642512D01*
X-2715818Y-3639820D01*
X-2702661Y-3635349D01*
X-2690266Y-3629202D01*
X-2678734Y-3621532D01*
X-2668320Y-3612387D01*
X-2659176Y-3601974D01*
X-2651506Y-3590442D01*
X-2645359Y-3578047D01*
X-2640939Y-3564940D01*
X-2638247Y-3551326D01*
X-2637332Y-3537508D01*
X-2638247Y-3523691D01*
X-2640939Y-3510127D01*
X-2645359Y-3497021D01*
X-2651506Y-3484575D01*
X-2659176Y-3473043D01*
X-2668320Y-3462629D01*
X-2678734Y-3453536D01*
X-2690266Y-3445814D01*
X-2702661Y-3439718D01*
X-2715818Y-3435248D01*
X-2729382Y-3432556D01*
X-2743200Y-3431641D01*
X-2757017Y-3432556D01*
X-2770632Y-3435248D01*
X-2783738Y-3439718D01*
X-2796133Y-3445814D01*
X-2807665Y-3453536D01*
X-2818079Y-3462629D01*
X-2827223Y-3473043D01*
X-2834894Y-3484575D01*
X-2841040Y-3497021D01*
X-2845460Y-3510127D01*
X-2848203Y-3523691D01*
X-2849067Y-3537508D01*
X-2848203Y-3551326D01*
X-2845460Y-3564940D01*
X-2841040Y-3578047D01*
X-2834894Y-3590442D01*
X-2827223Y-3601974D01*
X-2818079Y-3612387D01*
X-2807665Y-3621532D01*
X-2796133Y-3629202D01*
X-2783738Y-3635349D01*
X-2770632Y-3639820D01*
X-2757017Y-3642512D01*
G37*
G36*
X-711200Y-3643426D02*
G01*
X-697382Y-3642512D01*
X-683818Y-3639820D01*
X-670661Y-3635349D01*
X-658266Y-3629202D01*
X-646734Y-3621532D01*
X-636320Y-3612387D01*
X-627227Y-3601974D01*
X-619506Y-3590442D01*
X-613359Y-3578047D01*
X-608939Y-3564940D01*
X-606247Y-3551326D01*
X-605332Y-3537508D01*
X-606247Y-3523691D01*
X-608939Y-3510127D01*
X-613359Y-3497021D01*
X-619506Y-3484575D01*
X-627227Y-3473043D01*
X-636320Y-3462629D01*
X-646734Y-3453536D01*
X-658266Y-3445814D01*
X-670661Y-3439718D01*
X-683818Y-3435248D01*
X-697382Y-3432556D01*
X-711200Y-3431641D01*
X-725017Y-3432556D01*
X-738632Y-3435248D01*
X-751738Y-3439718D01*
X-764133Y-3445814D01*
X-775665Y-3453536D01*
X-786079Y-3462629D01*
X-795223Y-3473043D01*
X-802894Y-3484575D01*
X-809040Y-3497021D01*
X-813460Y-3510127D01*
X-816203Y-3523691D01*
X-817118Y-3537508D01*
X-816203Y-3551326D01*
X-813460Y-3564940D01*
X-809040Y-3578047D01*
X-802894Y-3590442D01*
X-795223Y-3601974D01*
X-786079Y-3612387D01*
X-775665Y-3621532D01*
X-764133Y-3629202D01*
X-751738Y-3635349D01*
X-738632Y-3639820D01*
X-725017Y-3642512D01*
G37*
G36*
X-2235200Y-3643426D02*
G01*
X-2221382Y-3642512D01*
X-2207818Y-3639820D01*
X-2194661Y-3635349D01*
X-2182266Y-3629202D01*
X-2170734Y-3621532D01*
X-2160320Y-3612387D01*
X-2151227Y-3601974D01*
X-2143506Y-3590442D01*
X-2137359Y-3578047D01*
X-2132939Y-3564940D01*
X-2130247Y-3551326D01*
X-2129332Y-3537508D01*
X-2130247Y-3523691D01*
X-2132939Y-3510127D01*
X-2137359Y-3497021D01*
X-2143506Y-3484575D01*
X-2151227Y-3473043D01*
X-2160320Y-3462629D01*
X-2170734Y-3453536D01*
X-2182266Y-3445814D01*
X-2194661Y-3439718D01*
X-2207818Y-3435248D01*
X-2221382Y-3432556D01*
X-2235200Y-3431641D01*
X-2249017Y-3432556D01*
X-2262632Y-3435248D01*
X-2275738Y-3439718D01*
X-2288133Y-3445814D01*
X-2299665Y-3453536D01*
X-2310079Y-3462629D01*
X-2319223Y-3473043D01*
X-2326894Y-3484575D01*
X-2333040Y-3497021D01*
X-2337460Y-3510127D01*
X-2340203Y-3523691D01*
X-2341118Y-3537508D01*
X-2340203Y-3551326D01*
X-2337460Y-3564940D01*
X-2333040Y-3578047D01*
X-2326894Y-3590442D01*
X-2319223Y-3601974D01*
X-2310079Y-3612387D01*
X-2299665Y-3621532D01*
X-2288133Y-3629202D01*
X-2275738Y-3635349D01*
X-2262632Y-3639820D01*
X-2249017Y-3642512D01*
G37*
G36*
X733348Y-3643426D02*
G01*
X892251Y-3643426D01*
X898550Y-3642715D01*
X903986Y-3640836D01*
X908913Y-3637737D01*
X912977Y-3633622D01*
X916076Y-3628745D01*
X918006Y-3623259D01*
X918718Y-3616960D01*
X918718Y-3458108D01*
X918006Y-3451758D01*
X916076Y-3446322D01*
X912977Y-3441395D01*
X908913Y-3437331D01*
X903986Y-3434232D01*
X898550Y-3432352D01*
X892251Y-3431641D01*
X733348Y-3431641D01*
X727049Y-3432352D01*
X721563Y-3434232D01*
X716686Y-3437331D01*
X712571Y-3441395D01*
X709523Y-3446322D01*
X707593Y-3451758D01*
X706882Y-3458108D01*
X706882Y-3616960D01*
X707593Y-3623259D01*
X709523Y-3628745D01*
X712571Y-3633622D01*
X716686Y-3637737D01*
X721563Y-3640836D01*
X727049Y-3642715D01*
G37*
G36*
X512470Y-3632454D02*
G01*
X512470Y-3583889D01*
X463854Y-3583889D01*
X467106Y-3590493D01*
X474776Y-3601974D01*
X483920Y-3612387D01*
X494334Y-3621532D01*
X505866Y-3629202D01*
G37*
G36*
X605129Y-3632454D02*
G01*
X611733Y-3629202D01*
X623265Y-3621532D01*
X633679Y-3612387D01*
X642823Y-3601974D01*
X650494Y-3590493D01*
X653745Y-3583889D01*
X605129Y-3583889D01*
G37*
G36*
X2198370Y-3616401D02*
G01*
X2212543Y-3615486D01*
X2226462Y-3612794D01*
X2239924Y-3608324D01*
X2252675Y-3602177D01*
X2264562Y-3594404D01*
X2275382Y-3585210D01*
X2284882Y-3574745D01*
X2293010Y-3563112D01*
X2299563Y-3550513D01*
X2304491Y-3537204D01*
X2307640Y-3523386D01*
X2309012Y-3509264D01*
X2308555Y-3495090D01*
X2306269Y-3481070D01*
X2302256Y-3467455D01*
X2296515Y-3454501D01*
X2289149Y-3442360D01*
X2280310Y-3431286D01*
X2270099Y-3421430D01*
X2258771Y-3412947D01*
X2246376Y-3405987D01*
X2233269Y-3400653D01*
X2219502Y-3397046D01*
X2205482Y-3395268D01*
X2191258Y-3395268D01*
X2177186Y-3397046D01*
X2163470Y-3400653D01*
X2150364Y-3405987D01*
X2137968Y-3412947D01*
X2126640Y-3421430D01*
X2116429Y-3431286D01*
X2107590Y-3442360D01*
X2100224Y-3454501D01*
X2094484Y-3467455D01*
X2090470Y-3481070D01*
X2088184Y-3495090D01*
X2087727Y-3509264D01*
X2089099Y-3523386D01*
X2092248Y-3537204D01*
X2097176Y-3550513D01*
X2103729Y-3563112D01*
X2111806Y-3574745D01*
X2121357Y-3585210D01*
X2132177Y-3594404D01*
X2144064Y-3602177D01*
X2156815Y-3608324D01*
X2170277Y-3612794D01*
X2184196Y-3615486D01*
G37*
G36*
X2960370Y-3607815D02*
G01*
X2973984Y-3606901D01*
X2987344Y-3604158D01*
X3000197Y-3599687D01*
X3012389Y-3593541D01*
X3023616Y-3585819D01*
X3033725Y-3576675D01*
X3042564Y-3566261D01*
X3049879Y-3554780D01*
X3055620Y-3542385D01*
X3059684Y-3529380D01*
X3061919Y-3515918D01*
X3062376Y-3502304D01*
X3061055Y-3488740D01*
X3057855Y-3475482D01*
X3052978Y-3462731D01*
X3046425Y-3450793D01*
X3038348Y-3439820D01*
X3028848Y-3430015D01*
X3018129Y-3421532D01*
X3006394Y-3414572D01*
X2993847Y-3409289D01*
X2980690Y-3405682D01*
X2967177Y-3403854D01*
X2953562Y-3403854D01*
X2940050Y-3405682D01*
X2926892Y-3409289D01*
X2914345Y-3414572D01*
X2902610Y-3421532D01*
X2891891Y-3430015D01*
X2882392Y-3439820D01*
X2874314Y-3450793D01*
X2867761Y-3462731D01*
X2862884Y-3475482D01*
X2859684Y-3488740D01*
X2858363Y-3502304D01*
X2858770Y-3515918D01*
X2861056Y-3529380D01*
X2865120Y-3542385D01*
X2870860Y-3554780D01*
X2878175Y-3566261D01*
X2886964Y-3576675D01*
X2897124Y-3585819D01*
X2908350Y-3593541D01*
X2920492Y-3599687D01*
X2933395Y-3604158D01*
X2946755Y-3606901D01*
G37*
G36*
X2706370Y-3607815D02*
G01*
X2719984Y-3606901D01*
X2733344Y-3604158D01*
X2746197Y-3599687D01*
X2758389Y-3593541D01*
X2769616Y-3585819D01*
X2779725Y-3576675D01*
X2788564Y-3566261D01*
X2795879Y-3554780D01*
X2801620Y-3542385D01*
X2805684Y-3529380D01*
X2807919Y-3515918D01*
X2808376Y-3502304D01*
X2807055Y-3488740D01*
X2803855Y-3475482D01*
X2798978Y-3462731D01*
X2792425Y-3450793D01*
X2784348Y-3439820D01*
X2774848Y-3430015D01*
X2764129Y-3421532D01*
X2752394Y-3414572D01*
X2739847Y-3409289D01*
X2726690Y-3405682D01*
X2713177Y-3403854D01*
X2699562Y-3403854D01*
X2686050Y-3405682D01*
X2672892Y-3409289D01*
X2660345Y-3414572D01*
X2648610Y-3421532D01*
X2637891Y-3430015D01*
X2628392Y-3439820D01*
X2620314Y-3450793D01*
X2613761Y-3462731D01*
X2608884Y-3475482D01*
X2605684Y-3488740D01*
X2604363Y-3502304D01*
X2604770Y-3515918D01*
X2607056Y-3529380D01*
X2611120Y-3542385D01*
X2616860Y-3554780D01*
X2624175Y-3566261D01*
X2632964Y-3576675D01*
X2643124Y-3585819D01*
X2654350Y-3593541D01*
X2666492Y-3599687D01*
X2679395Y-3604158D01*
X2692755Y-3606901D01*
G37*
G36*
X1944370Y-3607815D02*
G01*
X1957984Y-3606901D01*
X1971344Y-3604158D01*
X1984197Y-3599687D01*
X1996389Y-3593541D01*
X2007616Y-3585819D01*
X2017725Y-3576675D01*
X2026564Y-3566261D01*
X2033879Y-3554780D01*
X2039620Y-3542385D01*
X2043684Y-3529380D01*
X2045919Y-3515918D01*
X2046376Y-3502304D01*
X2045055Y-3488740D01*
X2041855Y-3475482D01*
X2036978Y-3462731D01*
X2030425Y-3450793D01*
X2022348Y-3439820D01*
X2012848Y-3430015D01*
X2002129Y-3421532D01*
X1990394Y-3414572D01*
X1977847Y-3409289D01*
X1964689Y-3405682D01*
X1951177Y-3403854D01*
X1937562Y-3403854D01*
X1924050Y-3405682D01*
X1910892Y-3409289D01*
X1898345Y-3414572D01*
X1886610Y-3421532D01*
X1875891Y-3430015D01*
X1866392Y-3439820D01*
X1858314Y-3450793D01*
X1851761Y-3462731D01*
X1846884Y-3475482D01*
X1843684Y-3488740D01*
X1842363Y-3502304D01*
X1842770Y-3515918D01*
X1845056Y-3529380D01*
X1849120Y-3542385D01*
X1854860Y-3554780D01*
X1862175Y-3566261D01*
X1870964Y-3576675D01*
X1881124Y-3585819D01*
X1892350Y-3593541D01*
X1904492Y-3599687D01*
X1917395Y-3604158D01*
X1930755Y-3606901D01*
G37*
G36*
X1690370Y-3607815D02*
G01*
X1703984Y-3606901D01*
X1717344Y-3604158D01*
X1730197Y-3599687D01*
X1742389Y-3593541D01*
X1753616Y-3585819D01*
X1763725Y-3576675D01*
X1772564Y-3566261D01*
X1779879Y-3554780D01*
X1785620Y-3542385D01*
X1789684Y-3529380D01*
X1791919Y-3515918D01*
X1792376Y-3502304D01*
X1791055Y-3488740D01*
X1787855Y-3475482D01*
X1782978Y-3462731D01*
X1776425Y-3450793D01*
X1768348Y-3439820D01*
X1758848Y-3430015D01*
X1748129Y-3421532D01*
X1736394Y-3414572D01*
X1723847Y-3409289D01*
X1710689Y-3405682D01*
X1697177Y-3403854D01*
X1683562Y-3403854D01*
X1670050Y-3405682D01*
X1656892Y-3409289D01*
X1644345Y-3414572D01*
X1632610Y-3421532D01*
X1621891Y-3430015D01*
X1612392Y-3439820D01*
X1604314Y-3450793D01*
X1597761Y-3462731D01*
X1592884Y-3475482D01*
X1589684Y-3488740D01*
X1588363Y-3502304D01*
X1588770Y-3515918D01*
X1591056Y-3529380D01*
X1595120Y-3542385D01*
X1600860Y-3554780D01*
X1608175Y-3566261D01*
X1616964Y-3576675D01*
X1627124Y-3585819D01*
X1638350Y-3593541D01*
X1650492Y-3599687D01*
X1663395Y-3604158D01*
X1676755Y-3606901D01*
G37*
G36*
X2407920Y-3597351D02*
G01*
X2407920Y-3550158D01*
X2360726Y-3550158D01*
X2362860Y-3554780D01*
X2370175Y-3566261D01*
X2378964Y-3576675D01*
X2389124Y-3585819D01*
X2400350Y-3593541D01*
G37*
G36*
X2496820Y-3597351D02*
G01*
X2504389Y-3593541D01*
X2515616Y-3585819D01*
X2525725Y-3576675D01*
X2534564Y-3566261D01*
X2541879Y-3554780D01*
X2544013Y-3550158D01*
X2496820Y-3550158D01*
G37*
G36*
X463854Y-3491179D02*
G01*
X512470Y-3491179D01*
X512470Y-3442563D01*
X505866Y-3445814D01*
X494334Y-3453536D01*
X483920Y-3462629D01*
X474776Y-3473043D01*
X467106Y-3484575D01*
G37*
G36*
X605129Y-3491179D02*
G01*
X653745Y-3491179D01*
X650494Y-3484575D01*
X642823Y-3473043D01*
X633679Y-3462629D01*
X623265Y-3453536D01*
X611733Y-3445814D01*
X605129Y-3442563D01*
G37*
G36*
X2360574Y-3461258D02*
G01*
X2407920Y-3461258D01*
X2407920Y-3413912D01*
X2406345Y-3414572D01*
X2394610Y-3421532D01*
X2383891Y-3430015D01*
X2374392Y-3439820D01*
X2366314Y-3450793D01*
G37*
G36*
X2496820Y-3461258D02*
G01*
X2544165Y-3461258D01*
X2538425Y-3450793D01*
X2530348Y-3439820D01*
X2520848Y-3430015D01*
X2510129Y-3421532D01*
X2498394Y-3414572D01*
X2496820Y-3413912D01*
G37*
G36*
X3599992Y-2927502D02*
G01*
X3615385Y-2926537D01*
X3630523Y-2923794D01*
X3645204Y-2919222D01*
X3659225Y-2912872D01*
X3672433Y-2904896D01*
X3684524Y-2895396D01*
X3695395Y-2884525D01*
X3704894Y-2872435D01*
X3712870Y-2859227D01*
X3719220Y-2845206D01*
X3723792Y-2830525D01*
X3726535Y-2815386D01*
X3727500Y-2799994D01*
X3726535Y-2784602D01*
X3723792Y-2769463D01*
X3719220Y-2754782D01*
X3712870Y-2740761D01*
X3704894Y-2727553D01*
X3695395Y-2715463D01*
X3684524Y-2704592D01*
X3672433Y-2695092D01*
X3659225Y-2687116D01*
X3645204Y-2680766D01*
X3630523Y-2676194D01*
X3615385Y-2673451D01*
X3599992Y-2672486D01*
X3584600Y-2673451D01*
X3569462Y-2676194D01*
X3554780Y-2680766D01*
X3540760Y-2687116D01*
X3527551Y-2695092D01*
X3515461Y-2704592D01*
X3504590Y-2715463D01*
X3495090Y-2727553D01*
X3487115Y-2740761D01*
X3480765Y-2754782D01*
X3476193Y-2769463D01*
X3473450Y-2784602D01*
X3472484Y-2799994D01*
X3473450Y-2815386D01*
X3476193Y-2830525D01*
X3480765Y-2845206D01*
X3487115Y-2859227D01*
X3495090Y-2872435D01*
X3504590Y-2884525D01*
X3515461Y-2895396D01*
X3527551Y-2904896D01*
X3540760Y-2912872D01*
X3554780Y-2919222D01*
X3569462Y-2923794D01*
X3584600Y-2926537D01*
G37*
G36*
X-3599992Y-2927502D02*
G01*
X-3584600Y-2926537D01*
X-3569462Y-2923794D01*
X-3554780Y-2919222D01*
X-3540760Y-2912872D01*
X-3527551Y-2904896D01*
X-3515461Y-2895396D01*
X-3504590Y-2884525D01*
X-3495090Y-2872435D01*
X-3487115Y-2859227D01*
X-3480765Y-2845206D01*
X-3476193Y-2830525D01*
X-3473450Y-2815386D01*
X-3472484Y-2799994D01*
X-3473450Y-2784602D01*
X-3476193Y-2769463D01*
X-3480765Y-2754782D01*
X-3487115Y-2740761D01*
X-3495090Y-2727553D01*
X-3504590Y-2715463D01*
X-3515461Y-2704592D01*
X-3527551Y-2695092D01*
X-3540760Y-2687116D01*
X-3554780Y-2680766D01*
X-3569462Y-2676194D01*
X-3584600Y-2673451D01*
X-3599992Y-2672486D01*
X-3615385Y-2673451D01*
X-3630523Y-2676194D01*
X-3645204Y-2680766D01*
X-3659225Y-2687116D01*
X-3672433Y-2695092D01*
X-3684524Y-2704592D01*
X-3695395Y-2715463D01*
X-3704894Y-2727553D01*
X-3712870Y-2740761D01*
X-3719220Y-2754782D01*
X-3723792Y-2769463D01*
X-3726535Y-2784602D01*
X-3727500Y-2799994D01*
X-3726535Y-2815386D01*
X-3723792Y-2830525D01*
X-3719220Y-2845206D01*
X-3712870Y-2859227D01*
X-3704894Y-2872435D01*
X-3695395Y-2884525D01*
X-3684524Y-2895396D01*
X-3672433Y-2904896D01*
X-3659225Y-2912872D01*
X-3645204Y-2919222D01*
X-3630523Y-2923794D01*
X-3615385Y-2926537D01*
G37*
G36*
X304850Y-2119477D02*
G01*
X318668Y-2118563D01*
X332232Y-2115870D01*
X345389Y-2111400D01*
X357784Y-2105253D01*
X369316Y-2097582D01*
X379730Y-2088438D01*
X388874Y-2078024D01*
X396544Y-2066493D01*
X402691Y-2054098D01*
X407111Y-2040991D01*
X409803Y-2027377D01*
X410718Y-2013559D01*
X409803Y-1999742D01*
X407111Y-1986178D01*
X402691Y-1973072D01*
X396544Y-1960625D01*
X388874Y-1949094D01*
X379730Y-1938680D01*
X369316Y-1929587D01*
X357784Y-1921865D01*
X345389Y-1915769D01*
X332232Y-1911299D01*
X318668Y-1908606D01*
X304850Y-1907692D01*
X291033Y-1908606D01*
X277418Y-1911299D01*
X264312Y-1915769D01*
X251917Y-1921865D01*
X240385Y-1929587D01*
X229971Y-1938680D01*
X220827Y-1949094D01*
X213156Y-1960625D01*
X207010Y-1973072D01*
X202590Y-1986178D01*
X199847Y-1999742D01*
X198983Y-2013559D01*
X199847Y-2027377D01*
X202590Y-2040991D01*
X207010Y-2054098D01*
X213156Y-2066493D01*
X220827Y-2078024D01*
X229971Y-2088438D01*
X240385Y-2097582D01*
X251917Y-2105253D01*
X264312Y-2111400D01*
X277418Y-2115870D01*
X291033Y-2118563D01*
G37*
G36*
X-711149Y-2119477D02*
G01*
X-697331Y-2118563D01*
X-683768Y-2115870D01*
X-670610Y-2111400D01*
X-658215Y-2105253D01*
X-646684Y-2097582D01*
X-636270Y-2088438D01*
X-627126Y-2078024D01*
X-619455Y-2066493D01*
X-613308Y-2054098D01*
X-608888Y-2040991D01*
X-606145Y-2027377D01*
X-605282Y-2013559D01*
X-606145Y-1999742D01*
X-608888Y-1986178D01*
X-613308Y-1973072D01*
X-619455Y-1960625D01*
X-627126Y-1949094D01*
X-636270Y-1938680D01*
X-646684Y-1929587D01*
X-658215Y-1921865D01*
X-670610Y-1915769D01*
X-683768Y-1911299D01*
X-697331Y-1908606D01*
X-711149Y-1907692D01*
X-724966Y-1908606D01*
X-738530Y-1911299D01*
X-751687Y-1915769D01*
X-764082Y-1921865D01*
X-775614Y-1929587D01*
X-786028Y-1938680D01*
X-795172Y-1949094D01*
X-802843Y-1960625D01*
X-808990Y-1973072D01*
X-813409Y-1986178D01*
X-816152Y-1999742D01*
X-817016Y-2013559D01*
X-816152Y-2027377D01*
X-813409Y-2040991D01*
X-808990Y-2054098D01*
X-802843Y-2066493D01*
X-795172Y-2078024D01*
X-786028Y-2088438D01*
X-775614Y-2097582D01*
X-764082Y-2105253D01*
X-751687Y-2111400D01*
X-738530Y-2115870D01*
X-724966Y-2118563D01*
G37*
G36*
X-2235149Y-2119477D02*
G01*
X-2221331Y-2118563D01*
X-2207768Y-2115870D01*
X-2194610Y-2111400D01*
X-2182215Y-2105253D01*
X-2170684Y-2097582D01*
X-2160270Y-2088438D01*
X-2151126Y-2078024D01*
X-2143455Y-2066493D01*
X-2137308Y-2054098D01*
X-2132888Y-2040991D01*
X-2130196Y-2027377D01*
X-2129282Y-2013559D01*
X-2130196Y-1999742D01*
X-2132888Y-1986178D01*
X-2137308Y-1973072D01*
X-2143455Y-1960625D01*
X-2151126Y-1949094D01*
X-2160270Y-1938680D01*
X-2170684Y-1929587D01*
X-2182215Y-1921865D01*
X-2194610Y-1915769D01*
X-2207768Y-1911299D01*
X-2221331Y-1908606D01*
X-2235149Y-1907692D01*
X-2248966Y-1908606D01*
X-2262581Y-1911299D01*
X-2275687Y-1915769D01*
X-2288082Y-1921865D01*
X-2299614Y-1929587D01*
X-2310028Y-1938680D01*
X-2319172Y-1949094D01*
X-2326843Y-1960625D01*
X-2332990Y-1973072D01*
X-2337409Y-1986178D01*
X-2340152Y-1999742D01*
X-2341016Y-2013559D01*
X-2340152Y-2027377D01*
X-2337409Y-2040991D01*
X-2332990Y-2054098D01*
X-2326843Y-2066493D01*
X-2319172Y-2078024D01*
X-2310028Y-2088438D01*
X-2299614Y-2097582D01*
X-2288082Y-2105253D01*
X-2275687Y-2111400D01*
X-2262581Y-2115870D01*
X-2248966Y-2118563D01*
G37*
G36*
X-1219149Y-2119477D02*
G01*
X-1205331Y-2118563D01*
X-1191768Y-2115870D01*
X-1178610Y-2111400D01*
X-1166215Y-2105253D01*
X-1154684Y-2097582D01*
X-1144270Y-2088438D01*
X-1135126Y-2078024D01*
X-1127455Y-2066493D01*
X-1121308Y-2054098D01*
X-1116888Y-2040991D01*
X-1114196Y-2027377D01*
X-1113282Y-2013559D01*
X-1114196Y-1999742D01*
X-1116888Y-1986178D01*
X-1121308Y-1973072D01*
X-1127455Y-1960625D01*
X-1135126Y-1949094D01*
X-1144270Y-1938680D01*
X-1154684Y-1929587D01*
X-1166215Y-1921865D01*
X-1178610Y-1915769D01*
X-1191768Y-1911299D01*
X-1205331Y-1908606D01*
X-1219149Y-1907692D01*
X-1232966Y-1908606D01*
X-1246581Y-1911299D01*
X-1259687Y-1915769D01*
X-1272082Y-1921865D01*
X-1283614Y-1929587D01*
X-1294028Y-1938680D01*
X-1303172Y-1949094D01*
X-1310843Y-1960625D01*
X-1316990Y-1973072D01*
X-1321409Y-1986178D01*
X-1324152Y-1999742D01*
X-1325016Y-2013559D01*
X-1324152Y-2027377D01*
X-1321409Y-2040991D01*
X-1316990Y-2054098D01*
X-1310843Y-2066493D01*
X-1303172Y-2078024D01*
X-1294028Y-2088438D01*
X-1283614Y-2097582D01*
X-1272082Y-2105253D01*
X-1259687Y-2111400D01*
X-1246581Y-2115870D01*
X-1232966Y-2118563D01*
G37*
G36*
X-1727149Y-2119477D02*
G01*
X-1713331Y-2118563D01*
X-1699768Y-2115870D01*
X-1686610Y-2111400D01*
X-1674215Y-2105253D01*
X-1662684Y-2097582D01*
X-1652270Y-2088438D01*
X-1643125Y-2078024D01*
X-1635455Y-2066493D01*
X-1629308Y-2054098D01*
X-1624888Y-2040991D01*
X-1622196Y-2027377D01*
X-1621282Y-2013559D01*
X-1622196Y-1999742D01*
X-1624888Y-1986178D01*
X-1629308Y-1973072D01*
X-1635455Y-1960625D01*
X-1643125Y-1949094D01*
X-1652270Y-1938680D01*
X-1662684Y-1929587D01*
X-1674215Y-1921865D01*
X-1682953Y-1917547D01*
X-1685950Y-1915312D01*
X-1687931Y-1912162D01*
X-1688592Y-1908454D01*
X-1688592Y-1554988D01*
X-1689404Y-1546961D01*
X-1691589Y-1539697D01*
X-1695145Y-1533042D01*
X-1700275Y-1526794D01*
X-1835099Y-1391970D01*
X-1837283Y-1388719D01*
X-1838045Y-1384808D01*
X-1837283Y-1380896D01*
X-1835099Y-1377645D01*
X-1831797Y-1375410D01*
X-1820519Y-1373936D01*
X-1815033Y-1372006D01*
X-1810156Y-1368958D01*
X-1806041Y-1364843D01*
X-1802993Y-1359966D01*
X-1801063Y-1354480D01*
X-1800352Y-1348181D01*
X-1800352Y-1191818D01*
X-1801063Y-1185519D01*
X-1802993Y-1180033D01*
X-1806041Y-1175156D01*
X-1810156Y-1171041D01*
X-1815033Y-1167993D01*
X-1820519Y-1166063D01*
X-1826818Y-1165352D01*
X-1983181Y-1165352D01*
X-1989480Y-1166063D01*
X-1994966Y-1167993D01*
X-1999843Y-1171041D01*
X-2003958Y-1175156D01*
X-2007006Y-1180033D01*
X-2008936Y-1185519D01*
X-2009648Y-1191818D01*
X-2009648Y-1348181D01*
X-2008936Y-1354480D01*
X-2007006Y-1359966D01*
X-2003958Y-1364843D01*
X-1999843Y-1368958D01*
X-1994966Y-1372006D01*
X-1989480Y-1373936D01*
X-1983181Y-1374648D01*
X-1952955Y-1374648D01*
X-1949297Y-1375308D01*
X-1946148Y-1377289D01*
X-1943912Y-1380236D01*
X-1940610Y-1391412D01*
X-1937054Y-1398066D01*
X-1931974Y-1404315D01*
X-1768805Y-1567484D01*
X-1766570Y-1570786D01*
X-1765807Y-1574647D01*
X-1765807Y-1908505D01*
X-1766519Y-1912213D01*
X-1768500Y-1915363D01*
X-1771497Y-1917649D01*
X-1780082Y-1921865D01*
X-1791614Y-1929587D01*
X-1802028Y-1938680D01*
X-1811172Y-1949094D01*
X-1818843Y-1960625D01*
X-1824989Y-1973072D01*
X-1829409Y-1986178D01*
X-1832152Y-1999742D01*
X-1833016Y-2013559D01*
X-1832152Y-2027377D01*
X-1829409Y-2040991D01*
X-1824989Y-2054098D01*
X-1818843Y-2066493D01*
X-1811172Y-2078024D01*
X-1802028Y-2088438D01*
X-1791614Y-2097582D01*
X-1780082Y-2105253D01*
X-1767687Y-2111400D01*
X-1754581Y-2115870D01*
X-1740966Y-2118563D01*
G37*
G36*
X-2489200Y-2119426D02*
G01*
X-2475382Y-2118512D01*
X-2461818Y-2115820D01*
X-2448661Y-2111349D01*
X-2436266Y-2105202D01*
X-2424734Y-2097532D01*
X-2414320Y-2088388D01*
X-2405176Y-2077974D01*
X-2397506Y-2066442D01*
X-2391359Y-2054047D01*
X-2386939Y-2040940D01*
X-2384196Y-2027326D01*
X-2383332Y-2013508D01*
X-2384196Y-1999691D01*
X-2386939Y-1986127D01*
X-2391359Y-1973021D01*
X-2397506Y-1960575D01*
X-2405176Y-1949043D01*
X-2414320Y-1938629D01*
X-2424734Y-1929536D01*
X-2436266Y-1921814D01*
X-2448661Y-1915718D01*
X-2461818Y-1911248D01*
X-2475382Y-1908556D01*
X-2489200Y-1907641D01*
X-2503017Y-1908556D01*
X-2516581Y-1911248D01*
X-2529738Y-1915718D01*
X-2542133Y-1921814D01*
X-2553665Y-1929536D01*
X-2564079Y-1938629D01*
X-2573223Y-1949043D01*
X-2580894Y-1960575D01*
X-2587040Y-1973021D01*
X-2591460Y-1986127D01*
X-2594203Y-1999691D01*
X-2595067Y-2013508D01*
X-2594203Y-2027326D01*
X-2591460Y-2040940D01*
X-2587040Y-2054047D01*
X-2580894Y-2066442D01*
X-2573223Y-2077974D01*
X-2564079Y-2088388D01*
X-2553665Y-2097532D01*
X-2542133Y-2105202D01*
X-2529738Y-2111349D01*
X-2516581Y-2115820D01*
X-2503017Y-2118512D01*
G37*
G36*
X-965200Y-2119426D02*
G01*
X-951382Y-2118512D01*
X-937818Y-2115820D01*
X-924661Y-2111349D01*
X-912266Y-2105202D01*
X-900734Y-2097532D01*
X-890320Y-2088388D01*
X-881176Y-2077974D01*
X-873506Y-2066442D01*
X-867359Y-2054047D01*
X-862939Y-2040940D01*
X-860196Y-2027326D01*
X-859332Y-2013508D01*
X-860196Y-1999691D01*
X-862939Y-1986127D01*
X-867359Y-1973021D01*
X-873506Y-1960575D01*
X-881176Y-1949043D01*
X-890320Y-1938629D01*
X-900734Y-1929536D01*
X-912266Y-1921814D01*
X-924661Y-1915718D01*
X-937818Y-1911248D01*
X-951382Y-1908556D01*
X-965200Y-1907641D01*
X-979017Y-1908556D01*
X-992581Y-1911248D01*
X-1005738Y-1915718D01*
X-1018133Y-1921814D01*
X-1029665Y-1929536D01*
X-1040079Y-1938629D01*
X-1049223Y-1949043D01*
X-1056894Y-1960575D01*
X-1063040Y-1973021D01*
X-1067460Y-1986127D01*
X-1070203Y-1999691D01*
X-1071067Y-2013508D01*
X-1070203Y-2027326D01*
X-1067460Y-2040940D01*
X-1063040Y-2054047D01*
X-1056894Y-2066442D01*
X-1049223Y-2077974D01*
X-1040079Y-2088388D01*
X-1029665Y-2097532D01*
X-1018133Y-2105202D01*
X-1005738Y-2111349D01*
X-992581Y-2115820D01*
X-979017Y-2118512D01*
G37*
G36*
X-1981200Y-2119426D02*
G01*
X-1967382Y-2118512D01*
X-1953818Y-2115820D01*
X-1940661Y-2111349D01*
X-1928266Y-2105202D01*
X-1916734Y-2097532D01*
X-1906320Y-2088388D01*
X-1897176Y-2077974D01*
X-1889506Y-2066442D01*
X-1883359Y-2054047D01*
X-1878939Y-2040940D01*
X-1876196Y-2027326D01*
X-1875332Y-2013508D01*
X-1876196Y-1999691D01*
X-1878939Y-1986127D01*
X-1883359Y-1973021D01*
X-1889506Y-1960575D01*
X-1897176Y-1949043D01*
X-1906320Y-1938629D01*
X-1916734Y-1929536D01*
X-1928266Y-1921814D01*
X-1940661Y-1915718D01*
X-1953818Y-1911248D01*
X-1967382Y-1908556D01*
X-1981200Y-1907641D01*
X-1995017Y-1908556D01*
X-2008581Y-1911248D01*
X-2021738Y-1915718D01*
X-2034133Y-1921814D01*
X-2045665Y-1929536D01*
X-2056079Y-1938629D01*
X-2065223Y-1949043D01*
X-2072893Y-1960575D01*
X-2079040Y-1973021D01*
X-2083460Y-1986127D01*
X-2086203Y-1999691D01*
X-2087067Y-2013508D01*
X-2086203Y-2027326D01*
X-2083460Y-2040940D01*
X-2079040Y-2054047D01*
X-2072893Y-2066442D01*
X-2065223Y-2077974D01*
X-2056079Y-2088388D01*
X-2045665Y-2097532D01*
X-2034133Y-2105202D01*
X-2021738Y-2111349D01*
X-2008581Y-2115820D01*
X-1995017Y-2118512D01*
G37*
G36*
X-2743200Y-2119426D02*
G01*
X-2729382Y-2118512D01*
X-2715818Y-2115820D01*
X-2702661Y-2111349D01*
X-2690266Y-2105202D01*
X-2678734Y-2097532D01*
X-2668320Y-2088388D01*
X-2659176Y-2077974D01*
X-2651506Y-2066493D01*
X-2645359Y-2054047D01*
X-2640939Y-2040940D01*
X-2638247Y-2027326D01*
X-2637332Y-2013508D01*
X-2638247Y-1999691D01*
X-2640939Y-1986127D01*
X-2645359Y-1973021D01*
X-2651506Y-1960575D01*
X-2659176Y-1949043D01*
X-2668320Y-1938629D01*
X-2678734Y-1929536D01*
X-2690266Y-1921814D01*
X-2702661Y-1915718D01*
X-2715818Y-1911248D01*
X-2729382Y-1908556D01*
X-2743200Y-1907641D01*
X-2757017Y-1908556D01*
X-2770632Y-1911248D01*
X-2783738Y-1915718D01*
X-2796133Y-1921814D01*
X-2807665Y-1929536D01*
X-2818079Y-1938629D01*
X-2827223Y-1949043D01*
X-2834894Y-1960575D01*
X-2841040Y-1973021D01*
X-2845460Y-1986127D01*
X-2848203Y-1999691D01*
X-2849067Y-2013508D01*
X-2848203Y-2027326D01*
X-2845460Y-2040940D01*
X-2841040Y-2054047D01*
X-2834894Y-2066493D01*
X-2827223Y-2077974D01*
X-2818079Y-2088388D01*
X-2807665Y-2097532D01*
X-2796133Y-2105202D01*
X-2783738Y-2111349D01*
X-2770632Y-2115820D01*
X-2757017Y-2118512D01*
G37*
G36*
X-1473200Y-2119426D02*
G01*
X-1459382Y-2118512D01*
X-1445818Y-2115820D01*
X-1432661Y-2111349D01*
X-1420266Y-2105202D01*
X-1408734Y-2097532D01*
X-1398320Y-2088388D01*
X-1389176Y-2077974D01*
X-1381506Y-2066442D01*
X-1375359Y-2054047D01*
X-1370939Y-2040940D01*
X-1368196Y-2027326D01*
X-1367332Y-2013508D01*
X-1368196Y-1999691D01*
X-1370939Y-1986127D01*
X-1375359Y-1973021D01*
X-1381506Y-1960575D01*
X-1389176Y-1949043D01*
X-1398320Y-1938629D01*
X-1408734Y-1929536D01*
X-1420266Y-1921814D01*
X-1432661Y-1915718D01*
X-1445818Y-1911248D01*
X-1459382Y-1908556D01*
X-1473200Y-1907641D01*
X-1487017Y-1908556D01*
X-1500581Y-1911248D01*
X-1513738Y-1915718D01*
X-1526133Y-1921814D01*
X-1537665Y-1929536D01*
X-1548079Y-1938629D01*
X-1557223Y-1949043D01*
X-1564894Y-1960575D01*
X-1571040Y-1973021D01*
X-1575460Y-1986127D01*
X-1578203Y-1999691D01*
X-1579067Y-2013508D01*
X-1578203Y-2027326D01*
X-1575460Y-2040940D01*
X-1571040Y-2054047D01*
X-1564894Y-2066442D01*
X-1557223Y-2077974D01*
X-1548079Y-2088388D01*
X-1537665Y-2097532D01*
X-1526133Y-2105202D01*
X-1513738Y-2111349D01*
X-1500581Y-2115820D01*
X-1487017Y-2118512D01*
G37*
G36*
X733348Y-2119426D02*
G01*
X892251Y-2119426D01*
X898550Y-2118715D01*
X903986Y-2116836D01*
X908913Y-2113737D01*
X912977Y-2109622D01*
X916076Y-2104745D01*
X918006Y-2099259D01*
X918718Y-2092960D01*
X918718Y-1934108D01*
X918006Y-1927758D01*
X916076Y-1922322D01*
X912977Y-1917395D01*
X908913Y-1913331D01*
X903986Y-1910232D01*
X898550Y-1908352D01*
X892251Y-1907641D01*
X860755Y-1907641D01*
X857097Y-1906930D01*
X853948Y-1905000D01*
X851662Y-1902002D01*
X848410Y-1890877D01*
X844854Y-1884222D01*
X840079Y-1878330D01*
X834186Y-1873554D01*
X827532Y-1869998D01*
X820318Y-1867814D01*
X812292Y-1867001D01*
X725068Y-1867001D01*
X721207Y-1866239D01*
X716991Y-1863089D01*
X714705Y-1859584D01*
X714044Y-1855419D01*
X715111Y-1851304D01*
X717753Y-1848053D01*
X721563Y-1846122D01*
X727659Y-1844497D01*
X736549Y-1840331D01*
X744575Y-1834692D01*
X751535Y-1827733D01*
X757174Y-1819706D01*
X761339Y-1810816D01*
X763879Y-1801317D01*
X764743Y-1791512D01*
X763879Y-1781708D01*
X761339Y-1772208D01*
X757174Y-1763318D01*
X751535Y-1755292D01*
X749909Y-1753666D01*
X747725Y-1750364D01*
X746963Y-1746504D01*
X746963Y-1470863D01*
X747725Y-1466951D01*
X749909Y-1463649D01*
X842975Y-1370634D01*
X846074Y-1368501D01*
X849731Y-1367637D01*
X853440Y-1368196D01*
X861923Y-1371041D01*
X875334Y-1373733D01*
X889000Y-1374648D01*
X902665Y-1373733D01*
X916076Y-1371041D01*
X929030Y-1366672D01*
X941324Y-1360627D01*
X952703Y-1353007D01*
X962964Y-1343964D01*
X972007Y-1333703D01*
X979627Y-1322324D01*
X985672Y-1310030D01*
X990041Y-1297076D01*
X992733Y-1283665D01*
X993648Y-1270000D01*
X992733Y-1256334D01*
X990041Y-1242923D01*
X985672Y-1229969D01*
X979627Y-1217676D01*
X972007Y-1206296D01*
X962964Y-1196035D01*
X952703Y-1186992D01*
X941324Y-1179372D01*
X929030Y-1173327D01*
X916076Y-1168958D01*
X902665Y-1166266D01*
X889000Y-1165352D01*
X875334Y-1166266D01*
X861923Y-1168958D01*
X848969Y-1173327D01*
X836676Y-1179372D01*
X825296Y-1186992D01*
X815035Y-1196035D01*
X805992Y-1206296D01*
X798372Y-1217676D01*
X792327Y-1229969D01*
X787958Y-1242923D01*
X785266Y-1256334D01*
X784352Y-1270000D01*
X785266Y-1283665D01*
X787958Y-1297076D01*
X790803Y-1305560D01*
X791362Y-1309268D01*
X790498Y-1312926D01*
X788365Y-1316024D01*
X756970Y-1347419D01*
X753719Y-1349603D01*
X749808Y-1350365D01*
X745896Y-1349603D01*
X742645Y-1347419D01*
X740410Y-1344117D01*
X739648Y-1340205D01*
X739648Y-1191818D01*
X738936Y-1185519D01*
X737006Y-1180033D01*
X733958Y-1175156D01*
X729843Y-1171041D01*
X724966Y-1167993D01*
X719480Y-1166063D01*
X713181Y-1165352D01*
X556818Y-1165352D01*
X550519Y-1166063D01*
X545033Y-1167993D01*
X540156Y-1171041D01*
X536041Y-1175156D01*
X532993Y-1180033D01*
X531063Y-1185519D01*
X530352Y-1191818D01*
X530352Y-1348181D01*
X531063Y-1354480D01*
X532993Y-1359966D01*
X536041Y-1364843D01*
X540156Y-1368958D01*
X545033Y-1372006D01*
X550519Y-1373936D01*
X556818Y-1374648D01*
X577494Y-1374648D01*
X581609Y-1375511D01*
X585012Y-1378000D01*
X587146Y-1381607D01*
X587552Y-1385976D01*
X587552Y-1515211D01*
X586790Y-1519072D01*
X584606Y-1522374D01*
X582980Y-1523949D01*
X577392Y-1532026D01*
X573227Y-1540916D01*
X570687Y-1550416D01*
X569823Y-1560220D01*
X570687Y-1569974D01*
X573227Y-1579473D01*
X577392Y-1588363D01*
X582980Y-1596440D01*
X589940Y-1603400D01*
X598017Y-1608988D01*
X606907Y-1613154D01*
X616407Y-1615694D01*
X626211Y-1616557D01*
X635965Y-1615694D01*
X645464Y-1613154D01*
X655269Y-1608582D01*
X659231Y-1607616D01*
X663194Y-1608277D01*
X666648Y-1610461D01*
X668934Y-1613814D01*
X669747Y-1617776D01*
X669747Y-1746504D01*
X668985Y-1750415D01*
X666750Y-1753666D01*
X665175Y-1755292D01*
X659536Y-1763318D01*
X655370Y-1772208D01*
X653745Y-1778304D01*
X651814Y-1782114D01*
X648563Y-1784756D01*
X644448Y-1785823D01*
X640283Y-1785162D01*
X636778Y-1782876D01*
X-1625Y-1144524D01*
X-3759Y-1141323D01*
X-4572Y-1137513D01*
X-3911Y-1133703D01*
X-1879Y-1130452D01*
X1219Y-1128166D01*
X4978Y-1127201D01*
X15392Y-1126540D01*
X30530Y-1123797D01*
X45212Y-1119225D01*
X59232Y-1112875D01*
X72440Y-1104900D01*
X84531Y-1095400D01*
X95402Y-1084529D01*
X104902Y-1072438D01*
X112877Y-1059230D01*
X119227Y-1045210D01*
X123799Y-1030528D01*
X126542Y-1015390D01*
X127508Y-999998D01*
X126542Y-984605D01*
X123799Y-969467D01*
X119227Y-954786D01*
X112877Y-940765D01*
X104902Y-927557D01*
X95402Y-915466D01*
X84531Y-904595D01*
X72440Y-895096D01*
X59232Y-887120D01*
X45212Y-880770D01*
X30530Y-876198D01*
X15392Y-873455D01*
X0Y-872490D01*
X-15392Y-873455D01*
X-30530Y-876198D01*
X-45212Y-880770D01*
X-59232Y-887120D01*
X-72440Y-895096D01*
X-84531Y-904595D01*
X-95402Y-915466D01*
X-104902Y-927557D01*
X-112877Y-940765D01*
X-119227Y-954786D01*
X-123799Y-969467D01*
X-126542Y-984605D01*
X-127203Y-995019D01*
X-128168Y-998778D01*
X-130454Y-1001877D01*
X-133705Y-1003909D01*
X-137515Y-1004569D01*
X-141325Y-1003757D01*
X-144526Y-1001623D01*
X-211226Y-934923D01*
X-213410Y-931621D01*
X-214172Y-927760D01*
X-214172Y1016508D01*
X-213410Y1020368D01*
X-211226Y1023619D01*
X-207975Y1025855D01*
X-204114Y1026668D01*
X-200253Y1025956D01*
X-196951Y1023823D01*
X-191719Y1018692D01*
X-180746Y1010615D01*
X-168757Y1004062D01*
X-156057Y999185D01*
X-142748Y995984D01*
X-129184Y994664D01*
X-115570Y995121D01*
X-102108Y997356D01*
X-89103Y1001420D01*
X-76708Y1007160D01*
X-65227Y1014476D01*
X-54813Y1023315D01*
X-45669Y1033424D01*
X-37947Y1044651D01*
X-31800Y1056843D01*
X-27330Y1069695D01*
X-24638Y1083056D01*
X-23723Y1096670D01*
X-24638Y1110284D01*
X-27330Y1123645D01*
X-31800Y1136548D01*
X-37947Y1148689D01*
X-45669Y1159916D01*
X-54813Y1170076D01*
X-65227Y1178864D01*
X-76708Y1186180D01*
X-89103Y1191920D01*
X-102108Y1195984D01*
X-115570Y1198270D01*
X-129184Y1198676D01*
X-142748Y1197356D01*
X-156057Y1194155D01*
X-168757Y1189278D01*
X-180746Y1182725D01*
X-191719Y1174648D01*
X-196951Y1169568D01*
X-200253Y1167434D01*
X-204114Y1166672D01*
X-207975Y1167485D01*
X-211226Y1169720D01*
X-213410Y1172972D01*
X-214172Y1176832D01*
X-214172Y1270508D01*
X-213410Y1274368D01*
X-211226Y1277620D01*
X-207975Y1279855D01*
X-204114Y1280668D01*
X-200253Y1279956D01*
X-196951Y1277823D01*
X-191719Y1272692D01*
X-180746Y1264615D01*
X-168757Y1258062D01*
X-156057Y1253185D01*
X-142748Y1249984D01*
X-129184Y1248664D01*
X-115570Y1249121D01*
X-102108Y1251356D01*
X-89103Y1255420D01*
X-76708Y1261160D01*
X-65227Y1268476D01*
X-54813Y1277315D01*
X-45669Y1287424D01*
X-37947Y1298651D01*
X-31800Y1310843D01*
X-27330Y1323695D01*
X-24638Y1337056D01*
X-23723Y1350670D01*
X-24638Y1364284D01*
X-27330Y1377645D01*
X-31800Y1390548D01*
X-37947Y1402689D01*
X-45669Y1413916D01*
X-54813Y1424076D01*
X-65227Y1432864D01*
X-76708Y1440180D01*
X-89103Y1445920D01*
X-102108Y1449984D01*
X-115570Y1452270D01*
X-129184Y1452676D01*
X-142748Y1451356D01*
X-156057Y1448155D01*
X-168757Y1443278D01*
X-180746Y1436725D01*
X-191719Y1428648D01*
X-196951Y1423568D01*
X-200253Y1421434D01*
X-204114Y1420672D01*
X-207975Y1421485D01*
X-211226Y1423720D01*
X-213410Y1426972D01*
X-214172Y1430832D01*
X-214172Y1649272D01*
X-214985Y1657299D01*
X-217170Y1664512D01*
X-220725Y1671167D01*
X-225856Y1677416D01*
X-268579Y1720189D01*
X-270865Y1723593D01*
X-271576Y1727606D01*
X-270662Y1731619D01*
X-269240Y1734718D01*
X-264769Y1748739D01*
X-262026Y1763268D01*
X-261112Y1778000D01*
X-262026Y1792732D01*
X-264769Y1807260D01*
X-269240Y1821281D01*
X-275386Y1834692D01*
X-283159Y1847240D01*
X-292404Y1858772D01*
X-303022Y1869033D01*
X-314807Y1877923D01*
X-327558Y1885289D01*
X-341172Y1891030D01*
X-355346Y1895093D01*
X-369925Y1897380D01*
X-384708Y1897786D01*
X-399389Y1896465D01*
X-413816Y1893316D01*
X-427735Y1888388D01*
X-440943Y1881784D01*
X-453237Y1873656D01*
X-464464Y1864055D01*
X-474370Y1853133D01*
X-482904Y1841093D01*
X-489915Y1828088D01*
X-495249Y1814322D01*
X-498805Y1800047D01*
X-500634Y1785366D01*
X-500634Y1770634D01*
X-498805Y1755952D01*
X-495249Y1741678D01*
X-489915Y1727911D01*
X-482904Y1714906D01*
X-474370Y1702866D01*
X-464464Y1691944D01*
X-453237Y1682343D01*
X-440943Y1674215D01*
X-427735Y1667611D01*
X-413816Y1662684D01*
X-399389Y1659534D01*
X-384708Y1658162D01*
X-369925Y1658620D01*
X-355346Y1660906D01*
X-341172Y1664970D01*
X-334416Y1667814D01*
X-330504Y1668627D01*
X-326593Y1667865D01*
X-323240Y1665630D01*
X-294386Y1636776D01*
X-292150Y1633474D01*
X-291388Y1629562D01*
X-291388Y1431188D01*
X-292100Y1427429D01*
X-294182Y1424178D01*
X-297281Y1421942D01*
X-300990Y1421028D01*
X-304800Y1421536D01*
X-308152Y1423416D01*
X-319227Y1432864D01*
X-330708Y1440180D01*
X-343103Y1445920D01*
X-356108Y1449984D01*
X-369570Y1452270D01*
X-383184Y1452676D01*
X-396748Y1451356D01*
X-410057Y1448155D01*
X-422757Y1443278D01*
X-434746Y1436725D01*
X-445719Y1428648D01*
X-455523Y1419148D01*
X-463956Y1408430D01*
X-470916Y1396695D01*
X-476250Y1384147D01*
X-479856Y1370990D01*
X-481634Y1357477D01*
X-481634Y1343863D01*
X-479856Y1330350D01*
X-476250Y1317193D01*
X-470916Y1304645D01*
X-463956Y1292910D01*
X-455523Y1282192D01*
X-445719Y1272692D01*
X-434746Y1264615D01*
X-422757Y1258062D01*
X-410057Y1253185D01*
X-396748Y1249984D01*
X-383184Y1248664D01*
X-369570Y1249121D01*
X-356108Y1251356D01*
X-343103Y1255420D01*
X-330708Y1261160D01*
X-319227Y1268476D01*
X-308152Y1277924D01*
X-304800Y1279804D01*
X-300990Y1280312D01*
X-297281Y1279398D01*
X-294182Y1277162D01*
X-292100Y1273962D01*
X-291388Y1270203D01*
X-291388Y1177188D01*
X-292100Y1173429D01*
X-294182Y1170178D01*
X-297281Y1167942D01*
X-300990Y1167028D01*
X-304800Y1167536D01*
X-308152Y1169416D01*
X-319227Y1178864D01*
X-330708Y1186180D01*
X-343103Y1191920D01*
X-356108Y1195984D01*
X-369570Y1198270D01*
X-383184Y1198676D01*
X-396748Y1197356D01*
X-410057Y1194155D01*
X-422757Y1189278D01*
X-434746Y1182725D01*
X-445719Y1174648D01*
X-455523Y1165148D01*
X-463956Y1154430D01*
X-470916Y1142695D01*
X-476250Y1130147D01*
X-479856Y1116990D01*
X-481634Y1103477D01*
X-481634Y1089863D01*
X-479856Y1076350D01*
X-476250Y1063193D01*
X-470916Y1050645D01*
X-463956Y1038910D01*
X-455523Y1028192D01*
X-445719Y1018692D01*
X-434746Y1010615D01*
X-422757Y1004062D01*
X-410057Y999185D01*
X-396748Y995984D01*
X-383184Y994664D01*
X-369570Y995121D01*
X-356108Y997356D01*
X-343103Y1001420D01*
X-330708Y1007160D01*
X-319227Y1014476D01*
X-308152Y1023924D01*
X-304800Y1025804D01*
X-300990Y1026312D01*
X-297281Y1025398D01*
X-294182Y1023162D01*
X-292100Y1019962D01*
X-291388Y1016203D01*
X-291388Y-947419D01*
X-290626Y-955446D01*
X-288391Y-962710D01*
X-284835Y-969365D01*
X-279755Y-975614D01*
X677214Y-1932584D01*
X683463Y-1937664D01*
X690118Y-1941220D01*
X701294Y-1944522D01*
X704240Y-1946757D01*
X706221Y-1949907D01*
X706882Y-1953564D01*
X706882Y-2092960D01*
X707593Y-2099259D01*
X709523Y-2104745D01*
X712571Y-2109622D01*
X716686Y-2113737D01*
X721563Y-2116836D01*
X727049Y-2118715D01*
G37*
G36*
X558800Y-2119426D02*
G01*
X572617Y-2118512D01*
X586181Y-2115820D01*
X599338Y-2111349D01*
X611733Y-2105202D01*
X623265Y-2097532D01*
X633679Y-2088388D01*
X642823Y-2077974D01*
X650494Y-2066442D01*
X656640Y-2054047D01*
X661060Y-2040940D01*
X663752Y-2027326D01*
X664667Y-2013508D01*
X663752Y-1999691D01*
X661060Y-1986127D01*
X656640Y-1973021D01*
X650494Y-1960575D01*
X642823Y-1949043D01*
X633679Y-1938629D01*
X623265Y-1929536D01*
X611733Y-1921814D01*
X599338Y-1915718D01*
X586181Y-1911248D01*
X572617Y-1908556D01*
X558800Y-1907641D01*
X544982Y-1908556D01*
X531368Y-1911248D01*
X522224Y-1914347D01*
X518515Y-1914906D01*
X514858Y-1914042D01*
X511809Y-1911908D01*
X-1608226Y208076D01*
X-1610410Y211378D01*
X-1611172Y215239D01*
X-1611172Y995832D01*
X-1610461Y999591D01*
X-1608429Y1002792D01*
X-1605280Y1005027D01*
X-1600708Y1007160D01*
X-1589227Y1014476D01*
X-1578813Y1023315D01*
X-1569669Y1033424D01*
X-1561947Y1044651D01*
X-1555800Y1056843D01*
X-1551330Y1069695D01*
X-1548638Y1083056D01*
X-1547723Y1096670D01*
X-1548638Y1110284D01*
X-1551330Y1123645D01*
X-1555800Y1136548D01*
X-1561947Y1148689D01*
X-1569669Y1159916D01*
X-1578813Y1170076D01*
X-1589227Y1178864D01*
X-1600708Y1186180D01*
X-1613103Y1191920D01*
X-1626107Y1195984D01*
X-1639570Y1198270D01*
X-1653184Y1198676D01*
X-1666748Y1197356D01*
X-1680057Y1194155D01*
X-1692757Y1189278D01*
X-1704746Y1182725D01*
X-1715719Y1174648D01*
X-1725523Y1165148D01*
X-1733956Y1154430D01*
X-1740916Y1142695D01*
X-1746250Y1130147D01*
X-1749856Y1116990D01*
X-1751634Y1103477D01*
X-1751634Y1089863D01*
X-1749856Y1076350D01*
X-1746250Y1063193D01*
X-1740916Y1050645D01*
X-1733956Y1038910D01*
X-1725523Y1028192D01*
X-1715719Y1018692D01*
X-1704746Y1010615D01*
X-1693672Y1004569D01*
X-1690878Y1002284D01*
X-1689049Y999185D01*
X-1688388Y995680D01*
X-1688388Y195580D01*
X-1687626Y187553D01*
X-1685391Y180289D01*
X-1681835Y173634D01*
X-1676755Y167386D01*
X457200Y-1966518D01*
X459282Y-1969617D01*
X460146Y-1973275D01*
X459638Y-1976983D01*
X456539Y-1986127D01*
X453796Y-1999691D01*
X452932Y-2013508D01*
X453796Y-2027326D01*
X456539Y-2040940D01*
X460959Y-2054047D01*
X467106Y-2066442D01*
X474776Y-2077974D01*
X483920Y-2088388D01*
X494334Y-2097532D01*
X505866Y-2105202D01*
X518261Y-2111349D01*
X531368Y-2115820D01*
X544982Y-2118512D01*
G37*
G36*
X2706370Y-2117801D02*
G01*
X2720543Y-2116886D01*
X2734462Y-2114194D01*
X2747924Y-2109724D01*
X2760675Y-2103577D01*
X2772562Y-2095804D01*
X2783382Y-2086610D01*
X2792882Y-2076145D01*
X2801010Y-2064512D01*
X2807563Y-2051913D01*
X2812491Y-2038604D01*
X2815640Y-2024786D01*
X2817012Y-2010664D01*
X2816555Y-1996490D01*
X2814269Y-1982470D01*
X2810256Y-1968855D01*
X2804515Y-1955901D01*
X2797149Y-1943760D01*
X2788310Y-1932686D01*
X2778099Y-1922830D01*
X2766771Y-1914347D01*
X2754376Y-1907387D01*
X2741269Y-1902053D01*
X2727502Y-1898446D01*
X2713482Y-1896668D01*
X2699258Y-1896668D01*
X2685186Y-1898446D01*
X2671470Y-1902053D01*
X2658364Y-1907387D01*
X2645968Y-1914347D01*
X2634640Y-1922830D01*
X2624429Y-1932686D01*
X2615590Y-1943760D01*
X2608224Y-1955901D01*
X2602484Y-1968855D01*
X2598470Y-1982470D01*
X2596184Y-1996490D01*
X2595727Y-2010664D01*
X2597099Y-2024786D01*
X2600248Y-2038604D01*
X2605176Y-2051913D01*
X2611729Y-2064512D01*
X2619806Y-2076145D01*
X2629357Y-2086610D01*
X2640177Y-2095804D01*
X2652064Y-2103577D01*
X2664815Y-2109724D01*
X2678277Y-2114194D01*
X2692196Y-2116886D01*
G37*
G36*
X1944370Y-2117801D02*
G01*
X1958543Y-2116886D01*
X1972462Y-2114194D01*
X1985924Y-2109724D01*
X1998675Y-2103577D01*
X2010562Y-2095804D01*
X2021382Y-2086610D01*
X2030882Y-2076145D01*
X2039010Y-2064512D01*
X2045563Y-2051913D01*
X2050491Y-2038604D01*
X2053640Y-2024786D01*
X2055012Y-2010664D01*
X2054555Y-1996490D01*
X2052269Y-1982470D01*
X2048256Y-1968855D01*
X2042515Y-1955901D01*
X2035149Y-1943760D01*
X2026310Y-1932686D01*
X2016099Y-1922830D01*
X2004771Y-1914347D01*
X1992375Y-1907387D01*
X1979269Y-1902053D01*
X1965502Y-1898446D01*
X1951482Y-1896668D01*
X1937257Y-1896668D01*
X1923186Y-1898446D01*
X1909470Y-1902053D01*
X1896364Y-1907387D01*
X1883968Y-1914347D01*
X1872640Y-1922830D01*
X1862429Y-1932686D01*
X1853590Y-1943760D01*
X1846224Y-1955901D01*
X1840484Y-1968855D01*
X1836470Y-1982470D01*
X1834184Y-1996490D01*
X1833727Y-2010664D01*
X1835099Y-2024786D01*
X1838248Y-2038604D01*
X1843176Y-2051913D01*
X1849729Y-2064512D01*
X1857806Y-2076145D01*
X1867357Y-2086610D01*
X1878177Y-2095804D01*
X1890064Y-2103577D01*
X1902815Y-2109724D01*
X1916277Y-2114194D01*
X1930196Y-2116886D01*
G37*
G36*
X2452370Y-2117801D02*
G01*
X2466543Y-2116886D01*
X2480462Y-2114194D01*
X2493924Y-2109724D01*
X2506675Y-2103577D01*
X2518562Y-2095804D01*
X2529382Y-2086610D01*
X2538882Y-2076145D01*
X2547010Y-2064512D01*
X2553563Y-2051913D01*
X2558491Y-2038604D01*
X2561640Y-2024786D01*
X2563012Y-2010664D01*
X2562555Y-1996490D01*
X2560269Y-1982470D01*
X2556256Y-1968855D01*
X2550515Y-1955901D01*
X2543149Y-1943760D01*
X2534310Y-1932686D01*
X2524099Y-1922830D01*
X2512771Y-1914347D01*
X2500376Y-1907387D01*
X2487269Y-1902053D01*
X2473502Y-1898446D01*
X2459482Y-1896668D01*
X2445258Y-1896668D01*
X2431186Y-1898446D01*
X2417470Y-1902053D01*
X2404364Y-1907387D01*
X2391968Y-1914347D01*
X2380640Y-1922830D01*
X2370429Y-1932686D01*
X2361590Y-1943760D01*
X2354224Y-1955901D01*
X2348484Y-1968855D01*
X2344470Y-1982470D01*
X2342184Y-1996490D01*
X2341727Y-2010664D01*
X2343099Y-2024786D01*
X2346248Y-2038604D01*
X2351176Y-2051913D01*
X2357729Y-2064512D01*
X2365806Y-2076145D01*
X2375357Y-2086610D01*
X2386177Y-2095804D01*
X2398064Y-2103577D01*
X2410815Y-2109724D01*
X2424277Y-2114194D01*
X2438196Y-2116886D01*
G37*
G36*
X2198370Y-2117801D02*
G01*
X2212543Y-2116886D01*
X2226462Y-2114194D01*
X2239924Y-2109724D01*
X2252675Y-2103577D01*
X2264562Y-2095804D01*
X2275382Y-2086610D01*
X2284882Y-2076145D01*
X2293010Y-2064512D01*
X2299563Y-2051913D01*
X2304491Y-2038604D01*
X2307640Y-2024786D01*
X2309012Y-2010664D01*
X2308555Y-1996490D01*
X2306269Y-1982470D01*
X2302256Y-1968855D01*
X2296515Y-1955901D01*
X2289149Y-1943760D01*
X2280310Y-1932686D01*
X2270099Y-1922830D01*
X2265934Y-1919732D01*
X2263749Y-1917496D01*
X2262378Y-1914652D01*
X2261870Y-1911553D01*
X2261870Y-1142441D01*
X2262479Y-1138631D01*
X2263343Y-1128217D01*
X2262479Y-1117752D01*
X2259990Y-1107592D01*
X2255926Y-1097991D01*
X2250338Y-1089152D01*
X2243378Y-1081328D01*
X2235301Y-1074724D01*
X2226208Y-1069492D01*
X2216454Y-1065784D01*
X2206193Y-1063701D01*
X2195779Y-1063244D01*
X2185365Y-1064514D01*
X2175306Y-1067460D01*
X2165858Y-1071930D01*
X2157272Y-1077874D01*
X2149754Y-1085088D01*
X2143455Y-1093470D01*
X2138578Y-1102715D01*
X2135276Y-1112621D01*
X2133600Y-1122984D01*
X2133600Y-1133398D01*
X2134870Y-1141882D01*
X2134870Y-1911604D01*
X2134362Y-1914702D01*
X2132939Y-1917496D01*
X2130755Y-1919732D01*
X2126640Y-1922830D01*
X2116429Y-1932686D01*
X2107590Y-1943760D01*
X2100224Y-1955901D01*
X2094484Y-1968855D01*
X2090470Y-1982470D01*
X2088184Y-1996490D01*
X2087727Y-2010664D01*
X2089099Y-2024786D01*
X2092248Y-2038604D01*
X2097176Y-2051913D01*
X2103729Y-2064512D01*
X2111806Y-2076145D01*
X2121357Y-2086610D01*
X2132177Y-2095804D01*
X2144064Y-2103577D01*
X2156815Y-2109724D01*
X2170277Y-2114194D01*
X2184196Y-2116886D01*
G37*
G36*
X2960370Y-2109216D02*
G01*
X2973984Y-2108301D01*
X2987344Y-2105558D01*
X3000197Y-2101088D01*
X3012389Y-2094941D01*
X3023616Y-2087219D01*
X3033725Y-2078075D01*
X3042564Y-2067661D01*
X3049879Y-2056180D01*
X3055620Y-2043785D01*
X3059684Y-2030780D01*
X3061919Y-2017318D01*
X3062376Y-2003704D01*
X3061055Y-1990140D01*
X3057855Y-1976882D01*
X3052978Y-1964131D01*
X3046425Y-1952193D01*
X3038348Y-1941220D01*
X3028848Y-1931416D01*
X3018129Y-1922932D01*
X3006394Y-1915972D01*
X2993847Y-1910689D01*
X2980690Y-1907082D01*
X2967177Y-1905254D01*
X2953562Y-1905254D01*
X2940050Y-1907082D01*
X2926892Y-1910689D01*
X2914345Y-1915972D01*
X2902610Y-1922932D01*
X2891891Y-1931416D01*
X2882392Y-1941220D01*
X2874314Y-1952193D01*
X2867761Y-1964131D01*
X2862884Y-1976882D01*
X2859684Y-1990140D01*
X2858363Y-2003704D01*
X2858770Y-2017318D01*
X2861056Y-2030780D01*
X2865120Y-2043785D01*
X2870860Y-2056180D01*
X2878175Y-2067661D01*
X2886964Y-2078075D01*
X2897124Y-2087219D01*
X2908350Y-2094941D01*
X2920492Y-2101088D01*
X2933395Y-2105558D01*
X2946755Y-2108301D01*
G37*
G36*
X1690370Y-2109216D02*
G01*
X1703984Y-2108301D01*
X1717344Y-2105558D01*
X1730197Y-2101088D01*
X1742389Y-2094941D01*
X1753616Y-2087219D01*
X1763725Y-2078075D01*
X1772564Y-2067661D01*
X1779879Y-2056180D01*
X1785620Y-2043785D01*
X1789684Y-2030780D01*
X1791919Y-2017318D01*
X1792376Y-2003704D01*
X1791055Y-1990140D01*
X1787855Y-1976882D01*
X1782978Y-1964131D01*
X1776425Y-1952193D01*
X1768348Y-1941220D01*
X1758848Y-1931416D01*
X1748129Y-1922932D01*
X1736394Y-1915972D01*
X1723847Y-1910689D01*
X1710689Y-1907082D01*
X1697177Y-1905254D01*
X1683562Y-1905254D01*
X1670050Y-1907082D01*
X1656892Y-1910689D01*
X1644345Y-1915972D01*
X1632610Y-1922932D01*
X1621891Y-1931416D01*
X1612392Y-1941220D01*
X1604314Y-1952193D01*
X1597761Y-1964131D01*
X1592884Y-1976882D01*
X1589684Y-1990140D01*
X1588363Y-2003704D01*
X1588770Y-2017318D01*
X1591056Y-2030780D01*
X1595120Y-2043785D01*
X1600860Y-2056180D01*
X1608175Y-2067661D01*
X1616964Y-2078075D01*
X1627124Y-2087219D01*
X1638350Y-2094941D01*
X1650492Y-2101088D01*
X1663395Y-2105558D01*
X1676755Y-2108301D01*
G37*
G36*
X97129Y-2108454D02*
G01*
X103733Y-2105202D01*
X115265Y-2097532D01*
X125679Y-2088388D01*
X134823Y-2077974D01*
X142494Y-2066442D01*
X145745Y-2059889D01*
X97129Y-2059889D01*
G37*
G36*
X4470Y-2108454D02*
G01*
X4470Y-2059889D01*
X-44145Y-2059889D01*
X-40894Y-2066442D01*
X-33223Y-2077974D01*
X-24079Y-2088388D01*
X-13665Y-2097532D01*
X-2133Y-2105202D01*
G37*
G36*
X97129Y-1967179D02*
G01*
X145745Y-1967179D01*
X142494Y-1960575D01*
X134823Y-1949043D01*
X125679Y-1938629D01*
X115265Y-1929536D01*
X103733Y-1921814D01*
X97129Y-1918563D01*
G37*
G36*
X-44145Y-1967179D02*
G01*
X4470Y-1967179D01*
X4470Y-1918563D01*
X-2133Y-1921814D01*
X-13665Y-1929536D01*
X-24079Y-1938629D01*
X-33223Y-1949043D01*
X-40894Y-1960575D01*
G37*
G36*
X2461768Y-1516532D02*
G01*
X2618232Y-1516532D01*
X2625445Y-1515821D01*
X2631948Y-1513840D01*
X2637891Y-1510639D01*
X2643124Y-1506372D01*
X2647391Y-1501140D01*
X2650591Y-1495196D01*
X2652522Y-1488744D01*
X2653233Y-1481480D01*
X2653233Y-1312519D01*
X2652522Y-1305255D01*
X2650591Y-1298803D01*
X2647391Y-1292860D01*
X2643124Y-1287627D01*
X2637891Y-1283360D01*
X2631948Y-1280160D01*
X2625445Y-1278178D01*
X2618232Y-1277467D01*
X2461768Y-1277467D01*
X2454554Y-1278178D01*
X2448052Y-1280160D01*
X2442108Y-1283360D01*
X2436876Y-1287627D01*
X2432608Y-1292860D01*
X2429408Y-1298803D01*
X2427478Y-1305255D01*
X2426766Y-1312519D01*
X2426766Y-1481480D01*
X2427478Y-1488744D01*
X2429408Y-1495196D01*
X2432608Y-1501140D01*
X2436876Y-1506372D01*
X2442108Y-1510639D01*
X2448052Y-1513840D01*
X2454554Y-1515821D01*
G37*
G36*
X-2618181Y-1507896D02*
G01*
X-2461818Y-1507896D01*
X-2455519Y-1507185D01*
X-2450033Y-1505305D01*
X-2445156Y-1502206D01*
X-2441041Y-1498092D01*
X-2437993Y-1493215D01*
X-2436063Y-1487728D01*
X-2435352Y-1481429D01*
X-2435352Y-1312570D01*
X-2436063Y-1306271D01*
X-2437993Y-1300784D01*
X-2441041Y-1295908D01*
X-2445156Y-1291793D01*
X-2450033Y-1288694D01*
X-2455519Y-1286814D01*
X-2461818Y-1286103D01*
X-2618181Y-1286103D01*
X-2624480Y-1286814D01*
X-2629966Y-1288694D01*
X-2634843Y-1291793D01*
X-2638958Y-1295908D01*
X-2642006Y-1300784D01*
X-2643936Y-1306271D01*
X-2644648Y-1312570D01*
X-2644648Y-1481429D01*
X-2643936Y-1487728D01*
X-2642006Y-1493215D01*
X-2638958Y-1498092D01*
X-2634843Y-1502206D01*
X-2629966Y-1505305D01*
X-2624480Y-1507185D01*
G37*
G36*
X1908606Y-1383182D02*
G01*
X1923084Y-1381760D01*
X1937207Y-1378559D01*
X1950821Y-1373530D01*
X1963674Y-1366824D01*
X1975612Y-1358544D01*
X1986330Y-1348790D01*
X1995728Y-1337716D01*
X2003653Y-1325575D01*
X2009952Y-1312468D01*
X2014524Y-1298702D01*
X2017318Y-1284478D01*
X2018233Y-1270000D01*
X2017318Y-1255522D01*
X2014524Y-1241298D01*
X2009952Y-1227531D01*
X2003653Y-1214424D01*
X1995728Y-1202283D01*
X1986330Y-1191209D01*
X1975612Y-1181455D01*
X1963674Y-1173175D01*
X1950821Y-1166469D01*
X1937207Y-1161440D01*
X1923084Y-1158240D01*
X1908606Y-1156817D01*
X1894128Y-1157274D01*
X1879803Y-1159611D01*
X1865884Y-1163726D01*
X1852625Y-1169619D01*
X1840230Y-1177137D01*
X1828901Y-1186180D01*
X1818792Y-1196594D01*
X1810105Y-1208227D01*
X1802993Y-1220876D01*
X1797557Y-1234338D01*
X1793849Y-1248359D01*
X1792020Y-1262735D01*
X1792020Y-1277264D01*
X1793849Y-1291640D01*
X1797557Y-1305661D01*
X1802993Y-1319123D01*
X1810105Y-1331772D01*
X1818792Y-1343406D01*
X1828901Y-1353820D01*
X1840230Y-1362862D01*
X1852625Y-1370380D01*
X1865884Y-1376273D01*
X1879803Y-1380388D01*
X1894128Y-1382725D01*
G37*
G36*
X1654606Y-1383182D02*
G01*
X1669084Y-1381760D01*
X1683207Y-1378559D01*
X1696821Y-1373530D01*
X1709674Y-1366824D01*
X1721612Y-1358544D01*
X1732330Y-1348790D01*
X1741728Y-1337716D01*
X1749653Y-1325575D01*
X1755952Y-1312468D01*
X1760524Y-1298702D01*
X1763318Y-1284478D01*
X1764233Y-1270000D01*
X1763318Y-1255522D01*
X1760524Y-1241298D01*
X1755952Y-1227531D01*
X1749653Y-1214424D01*
X1741728Y-1202283D01*
X1732330Y-1191209D01*
X1721612Y-1181455D01*
X1709674Y-1173175D01*
X1696821Y-1166469D01*
X1683207Y-1161440D01*
X1669084Y-1158240D01*
X1654606Y-1156817D01*
X1640128Y-1157274D01*
X1625803Y-1159611D01*
X1611884Y-1163726D01*
X1598625Y-1169619D01*
X1586230Y-1177137D01*
X1574901Y-1186180D01*
X1564792Y-1196594D01*
X1556105Y-1208227D01*
X1548993Y-1220876D01*
X1543558Y-1234338D01*
X1539849Y-1248359D01*
X1538020Y-1262735D01*
X1538020Y-1277264D01*
X1539849Y-1291640D01*
X1543558Y-1305661D01*
X1548993Y-1319123D01*
X1556105Y-1331772D01*
X1564792Y-1343406D01*
X1574901Y-1353820D01*
X1586230Y-1362862D01*
X1598625Y-1370380D01*
X1611884Y-1376273D01*
X1625803Y-1380388D01*
X1640128Y-1382725D01*
G37*
G36*
X-631393Y-1383182D02*
G01*
X-616915Y-1381760D01*
X-602792Y-1378559D01*
X-589178Y-1373530D01*
X-576326Y-1366824D01*
X-564388Y-1358544D01*
X-553669Y-1348790D01*
X-544271Y-1337716D01*
X-536346Y-1325575D01*
X-530047Y-1312468D01*
X-525475Y-1298702D01*
X-522681Y-1284478D01*
X-521766Y-1270000D01*
X-522681Y-1255522D01*
X-525475Y-1241298D01*
X-530047Y-1227531D01*
X-536346Y-1214424D01*
X-544271Y-1202283D01*
X-553669Y-1191209D01*
X-564388Y-1181455D01*
X-576326Y-1173175D01*
X-589178Y-1166469D01*
X-602792Y-1161440D01*
X-616915Y-1158240D01*
X-631393Y-1156817D01*
X-645871Y-1157274D01*
X-660196Y-1159611D01*
X-674116Y-1163726D01*
X-687374Y-1169619D01*
X-699770Y-1177137D01*
X-711098Y-1186180D01*
X-721207Y-1196594D01*
X-729894Y-1208227D01*
X-737006Y-1220876D01*
X-742442Y-1234338D01*
X-746150Y-1248359D01*
X-747979Y-1262735D01*
X-747979Y-1277264D01*
X-746150Y-1291640D01*
X-742442Y-1305661D01*
X-737006Y-1319123D01*
X-729894Y-1331772D01*
X-721207Y-1343406D01*
X-711098Y-1353820D01*
X-699770Y-1362862D01*
X-687374Y-1370380D01*
X-674116Y-1376273D01*
X-660196Y-1380388D01*
X-645871Y-1382725D01*
G37*
G36*
X-1442720Y-1363878D02*
G01*
X-1442720Y-1315720D01*
X-1490878Y-1315720D01*
X-1487627Y-1322324D01*
X-1480007Y-1333703D01*
X-1470964Y-1343964D01*
X-1460703Y-1353007D01*
X-1449324Y-1360627D01*
G37*
G36*
X1097280Y-1363878D02*
G01*
X1097280Y-1315720D01*
X1049121Y-1315720D01*
X1052372Y-1322324D01*
X1059992Y-1333703D01*
X1069035Y-1343964D01*
X1079296Y-1353007D01*
X1090676Y-1360627D01*
G37*
G36*
X1188720Y-1363878D02*
G01*
X1195324Y-1360627D01*
X1206703Y-1353007D01*
X1216964Y-1343964D01*
X1226007Y-1333703D01*
X1233627Y-1322324D01*
X1236878Y-1315720D01*
X1188720Y-1315720D01*
G37*
G36*
X-1351280Y-1363878D02*
G01*
X-1344676Y-1360627D01*
X-1333296Y-1353007D01*
X-1323035Y-1343964D01*
X-1313992Y-1333703D01*
X-1306372Y-1322324D01*
X-1303121Y-1315720D01*
X-1351280Y-1315720D01*
G37*
G36*
X-2588869Y-1242466D02*
G01*
X-2588869Y-1191869D01*
X-2639415Y-1191869D01*
X-2638298Y-1194308D01*
X-2630932Y-1206449D01*
X-2622092Y-1217574D01*
X-2611882Y-1227429D01*
X-2600502Y-1235913D01*
G37*
G36*
X-2491130Y-1242466D02*
G01*
X-2479497Y-1235913D01*
X-2468118Y-1227429D01*
X-2457907Y-1217574D01*
X-2449068Y-1206449D01*
X-2441702Y-1194308D01*
X-2440584Y-1191869D01*
X-2491130Y-1191869D01*
G37*
G36*
X2491130Y-1242466D02*
G01*
X2491130Y-1191869D01*
X2440584Y-1191869D01*
X2441702Y-1194308D01*
X2449068Y-1206449D01*
X2457907Y-1217574D01*
X2468118Y-1227429D01*
X2479497Y-1235913D01*
G37*
G36*
X2588869Y-1242466D02*
G01*
X2600502Y-1235913D01*
X2611882Y-1227429D01*
X2622092Y-1217574D01*
X2630932Y-1206449D01*
X2638298Y-1194308D01*
X2639415Y-1191869D01*
X2588869Y-1191869D01*
G37*
G36*
X-1490878Y-1224280D02*
G01*
X-1442720Y-1224280D01*
X-1442720Y-1176121D01*
X-1449324Y-1179372D01*
X-1460703Y-1186992D01*
X-1470964Y-1196035D01*
X-1480007Y-1206296D01*
X-1487627Y-1217676D01*
G37*
G36*
X1049121Y-1224280D02*
G01*
X1097280Y-1224280D01*
X1097280Y-1176121D01*
X1090676Y-1179372D01*
X1079296Y-1186992D01*
X1069035Y-1196035D01*
X1059992Y-1206296D01*
X1052372Y-1217676D01*
G37*
G36*
X-1351280Y-1224280D02*
G01*
X-1303121Y-1224280D01*
X-1306372Y-1217676D01*
X-1313992Y-1206296D01*
X-1323035Y-1196035D01*
X-1333296Y-1186992D01*
X-1344676Y-1179372D01*
X-1351280Y-1176121D01*
G37*
G36*
X1188720Y-1224280D02*
G01*
X1236878Y-1224280D01*
X1233627Y-1217676D01*
X1226007Y-1206296D01*
X1216964Y-1196035D01*
X1206703Y-1186992D01*
X1195324Y-1179372D01*
X1188720Y-1176121D01*
G37*
G36*
X3187496Y-1127506D02*
G01*
X3202838Y-1126540D01*
X3218027Y-1123797D01*
X3232708Y-1119225D01*
X3246729Y-1112875D01*
X3259937Y-1104900D01*
X3272028Y-1095400D01*
X3282899Y-1084529D01*
X3292398Y-1072438D01*
X3300374Y-1059230D01*
X3306724Y-1045210D01*
X3311296Y-1030528D01*
X3314039Y-1015390D01*
X3315004Y-999998D01*
X3314039Y-984605D01*
X3311296Y-969467D01*
X3306724Y-954786D01*
X3300374Y-940765D01*
X3292398Y-927557D01*
X3282899Y-915466D01*
X3272028Y-904595D01*
X3259937Y-895096D01*
X3246729Y-887120D01*
X3232708Y-880770D01*
X3218027Y-876198D01*
X3202838Y-873455D01*
X3187496Y-872490D01*
X3172104Y-873455D01*
X3156966Y-876198D01*
X3142284Y-880770D01*
X3128264Y-887120D01*
X3115056Y-895096D01*
X3102965Y-904595D01*
X3092043Y-915466D01*
X3082594Y-927557D01*
X3074619Y-940765D01*
X3068269Y-954786D01*
X3063697Y-969467D01*
X3060954Y-984605D01*
X3059988Y-999998D01*
X3060954Y-1015390D01*
X3063697Y-1030528D01*
X3068269Y-1045210D01*
X3074619Y-1059230D01*
X3082594Y-1072438D01*
X3092043Y-1084529D01*
X3102965Y-1095400D01*
X3115056Y-1104900D01*
X3128264Y-1112875D01*
X3142284Y-1119225D01*
X3156966Y-1123797D01*
X3172104Y-1126540D01*
G37*
G36*
X-3187496Y-1127506D02*
G01*
X-3172104Y-1126540D01*
X-3156966Y-1123797D01*
X-3142284Y-1119225D01*
X-3128264Y-1112875D01*
X-3115056Y-1104900D01*
X-3102965Y-1095400D01*
X-3092094Y-1084529D01*
X-3082594Y-1072438D01*
X-3074619Y-1059230D01*
X-3068269Y-1045210D01*
X-3063697Y-1030528D01*
X-3060954Y-1015390D01*
X-3059988Y-999998D01*
X-3060954Y-984605D01*
X-3063697Y-969467D01*
X-3068269Y-954786D01*
X-3074619Y-940765D01*
X-3082594Y-927557D01*
X-3092094Y-915466D01*
X-3102965Y-904595D01*
X-3115056Y-895096D01*
X-3128264Y-887120D01*
X-3142284Y-880770D01*
X-3156966Y-876198D01*
X-3172104Y-873455D01*
X-3187496Y-872490D01*
X-3202889Y-873455D01*
X-3218027Y-876198D01*
X-3232708Y-880770D01*
X-3246729Y-887120D01*
X-3259937Y-895096D01*
X-3272028Y-904595D01*
X-3282899Y-915466D01*
X-3292398Y-927557D01*
X-3300374Y-940765D01*
X-3306724Y-954786D01*
X-3311296Y-969467D01*
X-3314039Y-984605D01*
X-3315004Y-999998D01*
X-3314039Y-1015390D01*
X-3311296Y-1030528D01*
X-3306724Y-1045210D01*
X-3300374Y-1059230D01*
X-3292398Y-1072438D01*
X-3282899Y-1084529D01*
X-3272028Y-1095400D01*
X-3259937Y-1104900D01*
X-3246729Y-1112875D01*
X-3232708Y-1119225D01*
X-3218027Y-1123797D01*
X-3202889Y-1126540D01*
G37*
G36*
X-2491130Y-1094130D02*
G01*
X-2440686Y-1094130D01*
X-2445156Y-1085494D01*
X-2453284Y-1073861D01*
X-2462834Y-1063345D01*
X-2473655Y-1054150D01*
X-2485593Y-1046378D01*
X-2491130Y-1043686D01*
G37*
G36*
X-2639314Y-1094130D02*
G01*
X-2588869Y-1094130D01*
X-2588869Y-1043686D01*
X-2594406Y-1046378D01*
X-2606344Y-1054150D01*
X-2617165Y-1063345D01*
X-2626715Y-1073861D01*
X-2634843Y-1085494D01*
G37*
G36*
X2440686Y-1094130D02*
G01*
X2491130Y-1094130D01*
X2491130Y-1043686D01*
X2485593Y-1046378D01*
X2473655Y-1054150D01*
X2462834Y-1063345D01*
X2453284Y-1073861D01*
X2445156Y-1085494D01*
G37*
G36*
X2588869Y-1094130D02*
G01*
X2639314Y-1094130D01*
X2634843Y-1085494D01*
X2626715Y-1073861D01*
X2617165Y-1063345D01*
X2606344Y-1054150D01*
X2594406Y-1046378D01*
X2588869Y-1043686D01*
G37*
G36*
X3187496Y872490D02*
G01*
X3202838Y873455D01*
X3218027Y876198D01*
X3232708Y880770D01*
X3246729Y887120D01*
X3259937Y895096D01*
X3272028Y904595D01*
X3282899Y915466D01*
X3292398Y927557D01*
X3300374Y940765D01*
X3306724Y954786D01*
X3311296Y969467D01*
X3314039Y984605D01*
X3315004Y999998D01*
X3314039Y1015390D01*
X3311296Y1030528D01*
X3306724Y1045210D01*
X3300374Y1059230D01*
X3292398Y1072438D01*
X3282899Y1084529D01*
X3272028Y1095400D01*
X3259937Y1104900D01*
X3246729Y1112875D01*
X3232708Y1119225D01*
X3218027Y1123797D01*
X3202838Y1126540D01*
X3187496Y1127506D01*
X3172104Y1126540D01*
X3156966Y1123797D01*
X3142284Y1119225D01*
X3128264Y1112875D01*
X3115056Y1104900D01*
X3102965Y1095400D01*
X3092043Y1084529D01*
X3082594Y1072438D01*
X3074619Y1059230D01*
X3068269Y1045210D01*
X3063697Y1030528D01*
X3060954Y1015390D01*
X3059988Y999998D01*
X3060954Y984605D01*
X3063697Y969467D01*
X3068269Y954786D01*
X3074619Y940765D01*
X3082594Y927557D01*
X3092043Y915466D01*
X3102965Y904595D01*
X3115056Y895096D01*
X3128264Y887120D01*
X3142284Y880770D01*
X3156966Y876198D01*
X3172104Y873455D01*
G37*
G36*
X-3187496Y872490D02*
G01*
X-3172104Y873455D01*
X-3156966Y876198D01*
X-3142284Y880770D01*
X-3128264Y887120D01*
X-3115056Y895096D01*
X-3102965Y904595D01*
X-3092043Y915466D01*
X-3082594Y927557D01*
X-3074619Y940765D01*
X-3068269Y954786D01*
X-3063697Y969467D01*
X-3060954Y984605D01*
X-3059988Y999998D01*
X-3060954Y1015390D01*
X-3063697Y1030528D01*
X-3068269Y1045210D01*
X-3074619Y1059230D01*
X-3082594Y1072438D01*
X-3092043Y1084529D01*
X-3102965Y1095400D01*
X-3115056Y1104900D01*
X-3128264Y1112875D01*
X-3142284Y1119225D01*
X-3156966Y1123797D01*
X-3172104Y1126540D01*
X-3187496Y1127506D01*
X-3202838Y1126540D01*
X-3218027Y1123797D01*
X-3232708Y1119225D01*
X-3246729Y1112875D01*
X-3259937Y1104900D01*
X-3272028Y1095400D01*
X-3282899Y1084529D01*
X-3292398Y1072438D01*
X-3300374Y1059230D01*
X-3306673Y1045210D01*
X-3311296Y1030528D01*
X-3314039Y1015390D01*
X-3315004Y999998D01*
X-3314039Y984605D01*
X-3311296Y969467D01*
X-3306673Y954786D01*
X-3300374Y940765D01*
X-3292398Y927557D01*
X-3282899Y915466D01*
X-3272028Y904595D01*
X-3259937Y895096D01*
X-3246729Y887120D01*
X-3232708Y880770D01*
X-3218027Y876198D01*
X-3202838Y873455D01*
G37*
G36*
X886815Y994664D02*
G01*
X900430Y995121D01*
X913892Y997356D01*
X926896Y1001420D01*
X939292Y1007160D01*
X950772Y1014476D01*
X961186Y1023315D01*
X970330Y1033424D01*
X978052Y1044651D01*
X984199Y1056843D01*
X988669Y1069695D01*
X991362Y1083056D01*
X992276Y1096670D01*
X991362Y1110284D01*
X988669Y1123645D01*
X984199Y1136548D01*
X978052Y1148689D01*
X970330Y1159916D01*
X961186Y1170076D01*
X950772Y1178864D01*
X939292Y1186180D01*
X926896Y1191920D01*
X913892Y1195984D01*
X900430Y1198270D01*
X886815Y1198676D01*
X873252Y1197356D01*
X859942Y1194155D01*
X847242Y1189278D01*
X835253Y1182725D01*
X824280Y1174648D01*
X814476Y1165148D01*
X806043Y1154430D01*
X799084Y1142695D01*
X793750Y1130147D01*
X790143Y1116990D01*
X788365Y1103477D01*
X788365Y1089863D01*
X790143Y1076350D01*
X793750Y1063193D01*
X799084Y1050645D01*
X806043Y1038910D01*
X814476Y1028192D01*
X824280Y1018692D01*
X835253Y1010615D01*
X847242Y1004062D01*
X859942Y999185D01*
X873252Y995984D01*
G37*
G36*
X632815Y994664D02*
G01*
X646430Y995121D01*
X659892Y997356D01*
X672896Y1001420D01*
X685292Y1007160D01*
X696772Y1014476D01*
X707186Y1023315D01*
X716330Y1033424D01*
X724052Y1044651D01*
X730199Y1056843D01*
X734669Y1069695D01*
X737362Y1083056D01*
X738276Y1096670D01*
X737362Y1110284D01*
X734669Y1123645D01*
X730199Y1136548D01*
X724052Y1148689D01*
X716330Y1159916D01*
X707186Y1170076D01*
X696772Y1178864D01*
X685292Y1186180D01*
X672896Y1191920D01*
X659892Y1195984D01*
X646430Y1198270D01*
X632815Y1198676D01*
X619252Y1197356D01*
X605942Y1194155D01*
X593242Y1189278D01*
X581253Y1182725D01*
X570280Y1174648D01*
X560476Y1165148D01*
X552043Y1154430D01*
X545084Y1142695D01*
X539750Y1130147D01*
X536143Y1116990D01*
X534365Y1103477D01*
X534365Y1089863D01*
X536143Y1076350D01*
X539750Y1063193D01*
X545084Y1050645D01*
X552043Y1038910D01*
X560476Y1028192D01*
X570280Y1018692D01*
X581253Y1010615D01*
X593242Y1004062D01*
X605942Y999185D01*
X619252Y995984D01*
G37*
G36*
X1648815Y994664D02*
G01*
X1662430Y995121D01*
X1675892Y997356D01*
X1688896Y1001420D01*
X1701292Y1007160D01*
X1712772Y1014476D01*
X1723186Y1023315D01*
X1732330Y1033424D01*
X1740052Y1044651D01*
X1746199Y1056843D01*
X1750669Y1069695D01*
X1753362Y1083056D01*
X1754276Y1096670D01*
X1753362Y1110284D01*
X1750669Y1123645D01*
X1746199Y1136548D01*
X1740052Y1148689D01*
X1732330Y1159916D01*
X1723186Y1170076D01*
X1712772Y1178864D01*
X1701292Y1186180D01*
X1688896Y1191920D01*
X1675892Y1195984D01*
X1662430Y1198270D01*
X1648815Y1198676D01*
X1635251Y1197356D01*
X1621942Y1194155D01*
X1609242Y1189278D01*
X1597253Y1182725D01*
X1586280Y1174648D01*
X1576476Y1165148D01*
X1568043Y1154430D01*
X1561084Y1142695D01*
X1555750Y1130147D01*
X1552143Y1116990D01*
X1550365Y1103477D01*
X1550365Y1089863D01*
X1552143Y1076350D01*
X1555750Y1063193D01*
X1561084Y1050645D01*
X1568043Y1038910D01*
X1576476Y1028192D01*
X1586280Y1018692D01*
X1597253Y1010615D01*
X1609242Y1004062D01*
X1621942Y999185D01*
X1635251Y995984D01*
G37*
G36*
X-1145184Y994664D02*
G01*
X-1131570Y995121D01*
X-1118108Y997356D01*
X-1105103Y1001420D01*
X-1092708Y1007160D01*
X-1081227Y1014476D01*
X-1070813Y1023315D01*
X-1061669Y1033424D01*
X-1053947Y1044651D01*
X-1047800Y1056843D01*
X-1043330Y1069695D01*
X-1040637Y1083056D01*
X-1039723Y1096670D01*
X-1040637Y1110284D01*
X-1043330Y1123645D01*
X-1047800Y1136548D01*
X-1053947Y1148689D01*
X-1061669Y1159916D01*
X-1070813Y1170076D01*
X-1081227Y1178864D01*
X-1092708Y1186180D01*
X-1105103Y1191920D01*
X-1118108Y1195984D01*
X-1131570Y1198270D01*
X-1145184Y1198676D01*
X-1158748Y1197356D01*
X-1172057Y1194155D01*
X-1184757Y1189278D01*
X-1196746Y1182725D01*
X-1207719Y1174648D01*
X-1217523Y1165148D01*
X-1225956Y1154430D01*
X-1232916Y1142695D01*
X-1238250Y1130147D01*
X-1241856Y1116990D01*
X-1243634Y1103477D01*
X-1243634Y1089863D01*
X-1241856Y1076350D01*
X-1238250Y1063193D01*
X-1232916Y1050645D01*
X-1225956Y1038910D01*
X-1217523Y1028192D01*
X-1207719Y1018692D01*
X-1196746Y1010615D01*
X-1184757Y1004062D01*
X-1172057Y999185D01*
X-1158748Y995984D01*
G37*
G36*
X378815Y994664D02*
G01*
X392430Y995121D01*
X405892Y997356D01*
X418896Y1001420D01*
X431292Y1007160D01*
X442772Y1014476D01*
X453186Y1023315D01*
X462330Y1033424D01*
X470052Y1044651D01*
X476199Y1056843D01*
X480669Y1069695D01*
X483362Y1083056D01*
X484276Y1096670D01*
X483362Y1110284D01*
X480669Y1123645D01*
X476199Y1136548D01*
X470052Y1148689D01*
X462330Y1159916D01*
X453186Y1170076D01*
X442772Y1178864D01*
X431292Y1186180D01*
X418896Y1191920D01*
X405892Y1195984D01*
X392430Y1198270D01*
X378815Y1198676D01*
X365252Y1197356D01*
X351942Y1194155D01*
X339242Y1189278D01*
X327253Y1182725D01*
X316280Y1174648D01*
X306476Y1165148D01*
X298043Y1154430D01*
X291084Y1142695D01*
X285750Y1130147D01*
X282143Y1116990D01*
X280365Y1103477D01*
X280365Y1089863D01*
X282143Y1076350D01*
X285750Y1063193D01*
X291084Y1050645D01*
X298043Y1038910D01*
X306476Y1028192D01*
X316280Y1018692D01*
X327253Y1010615D01*
X339242Y1004062D01*
X351942Y999185D01*
X365252Y995984D01*
G37*
G36*
X124815Y994664D02*
G01*
X138430Y995121D01*
X151892Y997356D01*
X164896Y1001420D01*
X177292Y1007160D01*
X188772Y1014476D01*
X199186Y1023315D01*
X208330Y1033424D01*
X216052Y1044651D01*
X222199Y1056843D01*
X226669Y1069695D01*
X229362Y1083056D01*
X230276Y1096670D01*
X229362Y1110284D01*
X226669Y1123645D01*
X222199Y1136548D01*
X216052Y1148689D01*
X208330Y1159916D01*
X199186Y1170076D01*
X188772Y1178864D01*
X177292Y1186180D01*
X164896Y1191920D01*
X151892Y1195984D01*
X138430Y1198270D01*
X124815Y1198676D01*
X111252Y1197356D01*
X97942Y1194155D01*
X85242Y1189278D01*
X73253Y1182725D01*
X62280Y1174648D01*
X52476Y1165148D01*
X44043Y1154430D01*
X37084Y1142695D01*
X31750Y1130147D01*
X28143Y1116990D01*
X26365Y1103477D01*
X26365Y1089863D01*
X28143Y1076350D01*
X31750Y1063193D01*
X37084Y1050645D01*
X44043Y1038910D01*
X52476Y1028192D01*
X62280Y1018692D01*
X73253Y1010615D01*
X85242Y1004062D01*
X97942Y999185D01*
X111252Y995984D01*
G37*
G36*
X-891184Y994664D02*
G01*
X-877569Y995121D01*
X-864108Y997356D01*
X-851103Y1001420D01*
X-838708Y1007160D01*
X-827227Y1014476D01*
X-816813Y1023315D01*
X-807669Y1033424D01*
X-799947Y1044651D01*
X-793800Y1056843D01*
X-789330Y1069695D01*
X-786638Y1083056D01*
X-785723Y1096670D01*
X-786638Y1110284D01*
X-789330Y1123645D01*
X-793800Y1136548D01*
X-799947Y1148689D01*
X-807669Y1159916D01*
X-816813Y1170076D01*
X-827227Y1178864D01*
X-838708Y1186180D01*
X-851103Y1191920D01*
X-864108Y1195984D01*
X-877569Y1198270D01*
X-891184Y1198676D01*
X-904748Y1197356D01*
X-918057Y1194155D01*
X-930757Y1189278D01*
X-942746Y1182725D01*
X-953719Y1174648D01*
X-963523Y1165148D01*
X-971956Y1154430D01*
X-978916Y1142695D01*
X-984250Y1130147D01*
X-987856Y1116990D01*
X-989634Y1103477D01*
X-989634Y1089863D01*
X-987856Y1076350D01*
X-984250Y1063193D01*
X-978916Y1050645D01*
X-971956Y1038910D01*
X-963523Y1028192D01*
X-953719Y1018692D01*
X-942746Y1010615D01*
X-930757Y1004062D01*
X-918057Y999185D01*
X-904748Y995984D01*
G37*
G36*
X-637184Y994664D02*
G01*
X-623570Y995121D01*
X-610108Y997356D01*
X-597103Y1001420D01*
X-584708Y1007160D01*
X-573227Y1014476D01*
X-562813Y1023315D01*
X-553669Y1033424D01*
X-545947Y1044651D01*
X-539800Y1056843D01*
X-535330Y1069695D01*
X-532638Y1083056D01*
X-531723Y1096670D01*
X-532638Y1110284D01*
X-535330Y1123645D01*
X-539800Y1136548D01*
X-545947Y1148689D01*
X-553669Y1159916D01*
X-562813Y1170076D01*
X-573227Y1178864D01*
X-584708Y1186180D01*
X-597103Y1191920D01*
X-610108Y1195984D01*
X-623570Y1198270D01*
X-637184Y1198676D01*
X-650748Y1197356D01*
X-664057Y1194155D01*
X-676757Y1189278D01*
X-688746Y1182725D01*
X-699719Y1174648D01*
X-709523Y1165148D01*
X-717956Y1154430D01*
X-724916Y1142695D01*
X-730250Y1130147D01*
X-733856Y1116990D01*
X-735634Y1103477D01*
X-735634Y1089863D01*
X-733856Y1076350D01*
X-730250Y1063193D01*
X-724916Y1050645D01*
X-717956Y1038910D01*
X-709523Y1028192D01*
X-699719Y1018692D01*
X-688746Y1010615D01*
X-676757Y1004062D01*
X-664057Y999185D01*
X-650748Y995984D01*
G37*
G36*
X-1907184Y994664D02*
G01*
X-1893570Y995121D01*
X-1880107Y997356D01*
X-1867103Y1001420D01*
X-1854707Y1007160D01*
X-1843227Y1014476D01*
X-1832813Y1023315D01*
X-1823669Y1033424D01*
X-1815947Y1044651D01*
X-1809800Y1056843D01*
X-1805330Y1069695D01*
X-1802638Y1083056D01*
X-1801723Y1096670D01*
X-1802638Y1110284D01*
X-1805330Y1123645D01*
X-1809800Y1136548D01*
X-1815947Y1148689D01*
X-1823669Y1159916D01*
X-1832813Y1170076D01*
X-1843227Y1178864D01*
X-1854707Y1186180D01*
X-1867103Y1191920D01*
X-1880107Y1195984D01*
X-1893570Y1198270D01*
X-1907184Y1198676D01*
X-1920748Y1197356D01*
X-1934057Y1194155D01*
X-1946757Y1189278D01*
X-1958746Y1182725D01*
X-1969719Y1174648D01*
X-1979523Y1165148D01*
X-1987956Y1154430D01*
X-1994916Y1142695D01*
X-2000250Y1130147D01*
X-2003856Y1116990D01*
X-2005634Y1103477D01*
X-2005634Y1089863D01*
X-2003856Y1076350D01*
X-2000250Y1063193D01*
X-1994916Y1050645D01*
X-1987956Y1038910D01*
X-1979523Y1028192D01*
X-1969719Y1018692D01*
X-1958746Y1010615D01*
X-1946757Y1004062D01*
X-1934057Y999185D01*
X-1920748Y995984D01*
G37*
G36*
X1394815Y994664D02*
G01*
X1408430Y995121D01*
X1421892Y997356D01*
X1434896Y1001420D01*
X1447292Y1007160D01*
X1458772Y1014476D01*
X1469186Y1023315D01*
X1478330Y1033424D01*
X1486052Y1044651D01*
X1492199Y1056843D01*
X1496669Y1069695D01*
X1499362Y1083056D01*
X1500276Y1096670D01*
X1499362Y1110284D01*
X1496669Y1123645D01*
X1492199Y1136548D01*
X1486052Y1148689D01*
X1478330Y1159916D01*
X1469186Y1170076D01*
X1458772Y1178864D01*
X1447292Y1186180D01*
X1434896Y1191920D01*
X1421892Y1195984D01*
X1408430Y1198270D01*
X1394815Y1198676D01*
X1381252Y1197356D01*
X1367942Y1194155D01*
X1355242Y1189278D01*
X1343253Y1182725D01*
X1332280Y1174648D01*
X1322476Y1165148D01*
X1314043Y1154430D01*
X1307084Y1142695D01*
X1301750Y1130147D01*
X1298143Y1116990D01*
X1296365Y1103477D01*
X1296365Y1089863D01*
X1298143Y1076350D01*
X1301750Y1063193D01*
X1307084Y1050645D01*
X1314043Y1038910D01*
X1322476Y1028192D01*
X1332280Y1018692D01*
X1343253Y1010615D01*
X1355242Y1004062D01*
X1367942Y999185D01*
X1381252Y995984D01*
G37*
G36*
X-1399184Y994664D02*
G01*
X-1385570Y995121D01*
X-1372108Y997356D01*
X-1359103Y1001420D01*
X-1346708Y1007160D01*
X-1335227Y1014476D01*
X-1324813Y1023315D01*
X-1315669Y1033424D01*
X-1307947Y1044651D01*
X-1301800Y1056843D01*
X-1297330Y1069695D01*
X-1294638Y1083056D01*
X-1293723Y1096670D01*
X-1294638Y1110284D01*
X-1297330Y1123645D01*
X-1301800Y1136548D01*
X-1307947Y1148689D01*
X-1315669Y1159916D01*
X-1324813Y1170076D01*
X-1335227Y1178864D01*
X-1346708Y1186180D01*
X-1359103Y1191920D01*
X-1372108Y1195984D01*
X-1385570Y1198270D01*
X-1399184Y1198676D01*
X-1412748Y1197356D01*
X-1426057Y1194155D01*
X-1438757Y1189278D01*
X-1450746Y1182725D01*
X-1461719Y1174648D01*
X-1471523Y1165148D01*
X-1479956Y1154430D01*
X-1486916Y1142695D01*
X-1492250Y1130147D01*
X-1495856Y1116990D01*
X-1497634Y1103477D01*
X-1497634Y1089863D01*
X-1495856Y1076350D01*
X-1492250Y1063193D01*
X-1486916Y1050645D01*
X-1479956Y1038910D01*
X-1471523Y1028192D01*
X-1461719Y1018692D01*
X-1450746Y1010615D01*
X-1438757Y1004062D01*
X-1426057Y999185D01*
X-1412748Y995984D01*
G37*
G36*
X1140815Y994664D02*
G01*
X1154430Y995121D01*
X1167892Y997356D01*
X1180896Y1001420D01*
X1193292Y1007160D01*
X1204772Y1014476D01*
X1215186Y1023315D01*
X1224330Y1033424D01*
X1232052Y1044651D01*
X1238199Y1056843D01*
X1242669Y1069695D01*
X1245362Y1083056D01*
X1246276Y1096670D01*
X1245362Y1110284D01*
X1242669Y1123645D01*
X1238199Y1136548D01*
X1232052Y1148689D01*
X1224330Y1159916D01*
X1215186Y1170076D01*
X1204772Y1178864D01*
X1193292Y1186180D01*
X1180896Y1191920D01*
X1167892Y1195984D01*
X1154430Y1198270D01*
X1140815Y1198676D01*
X1127252Y1197356D01*
X1113942Y1194155D01*
X1101242Y1189278D01*
X1089253Y1182725D01*
X1078280Y1174648D01*
X1068476Y1165148D01*
X1060043Y1154430D01*
X1053084Y1142695D01*
X1047750Y1130147D01*
X1044143Y1116990D01*
X1042365Y1103477D01*
X1042365Y1089863D01*
X1044143Y1076350D01*
X1047750Y1063193D01*
X1053084Y1050645D01*
X1060043Y1038910D01*
X1068476Y1028192D01*
X1078280Y1018692D01*
X1089253Y1010615D01*
X1101242Y1004062D01*
X1113942Y999185D01*
X1127252Y995984D01*
G37*
G36*
X-2161184Y994664D02*
G01*
X-2147570Y995121D01*
X-2134108Y997356D01*
X-2121103Y1001420D01*
X-2108708Y1007160D01*
X-2097227Y1014476D01*
X-2086813Y1023315D01*
X-2077669Y1033424D01*
X-2069947Y1044651D01*
X-2063800Y1056843D01*
X-2059330Y1069695D01*
X-2056638Y1083056D01*
X-2055723Y1096670D01*
X-2056638Y1110284D01*
X-2059330Y1123645D01*
X-2063800Y1136548D01*
X-2069947Y1148689D01*
X-2077669Y1159916D01*
X-2086813Y1170076D01*
X-2097227Y1178864D01*
X-2108708Y1186180D01*
X-2121103Y1191920D01*
X-2134108Y1195984D01*
X-2147570Y1198270D01*
X-2161184Y1198676D01*
X-2174748Y1197356D01*
X-2188057Y1194155D01*
X-2200757Y1189278D01*
X-2212746Y1182725D01*
X-2223719Y1174648D01*
X-2233523Y1165148D01*
X-2241956Y1154430D01*
X-2248916Y1142695D01*
X-2254250Y1130147D01*
X-2257856Y1116990D01*
X-2259634Y1103477D01*
X-2259634Y1089863D01*
X-2257856Y1076350D01*
X-2254250Y1063193D01*
X-2248916Y1050645D01*
X-2241956Y1038910D01*
X-2233523Y1028192D01*
X-2223719Y1018692D01*
X-2212746Y1010615D01*
X-2200757Y1004062D01*
X-2188057Y999185D01*
X-2174748Y995984D01*
G37*
G36*
X-2415184Y994664D02*
G01*
X-2401570Y995121D01*
X-2388108Y997356D01*
X-2375103Y1001420D01*
X-2362708Y1007160D01*
X-2351227Y1014476D01*
X-2340813Y1023315D01*
X-2331669Y1033424D01*
X-2323947Y1044651D01*
X-2317800Y1056843D01*
X-2313330Y1069695D01*
X-2310638Y1083056D01*
X-2309723Y1096670D01*
X-2310638Y1110284D01*
X-2313330Y1123645D01*
X-2317800Y1136548D01*
X-2323947Y1148689D01*
X-2331669Y1159916D01*
X-2340813Y1170076D01*
X-2351227Y1178864D01*
X-2362708Y1186180D01*
X-2375103Y1191920D01*
X-2388108Y1195984D01*
X-2401570Y1198270D01*
X-2415184Y1198676D01*
X-2428748Y1197356D01*
X-2442057Y1194155D01*
X-2454757Y1189278D01*
X-2466746Y1182725D01*
X-2477719Y1174648D01*
X-2487523Y1165148D01*
X-2495956Y1154430D01*
X-2502916Y1142695D01*
X-2508250Y1130147D01*
X-2511856Y1116990D01*
X-2513634Y1103477D01*
X-2513634Y1089863D01*
X-2511856Y1076350D01*
X-2508250Y1063193D01*
X-2502916Y1050645D01*
X-2495956Y1038910D01*
X-2487523Y1028192D01*
X-2477719Y1018692D01*
X-2466746Y1010615D01*
X-2454757Y1004062D01*
X-2442057Y999185D01*
X-2428748Y995984D01*
G37*
G36*
X1902815Y994664D02*
G01*
X1916430Y995121D01*
X1929892Y997356D01*
X1942896Y1001420D01*
X1955292Y1007160D01*
X1966772Y1014476D01*
X1977186Y1023315D01*
X1986330Y1033424D01*
X1994052Y1044651D01*
X2000199Y1056843D01*
X2004669Y1069695D01*
X2007362Y1083056D01*
X2008276Y1096670D01*
X2007362Y1110284D01*
X2004669Y1123645D01*
X2000199Y1136548D01*
X1994052Y1148689D01*
X1986330Y1159916D01*
X1977186Y1170076D01*
X1966772Y1178864D01*
X1955292Y1186180D01*
X1942896Y1191920D01*
X1929892Y1195984D01*
X1916430Y1198270D01*
X1902815Y1198676D01*
X1889252Y1197356D01*
X1875942Y1194155D01*
X1863242Y1189278D01*
X1851253Y1182725D01*
X1840280Y1174648D01*
X1830476Y1165148D01*
X1822043Y1154430D01*
X1815084Y1142695D01*
X1809750Y1130147D01*
X1806143Y1116990D01*
X1804365Y1103477D01*
X1804365Y1089863D01*
X1806143Y1076350D01*
X1809750Y1063193D01*
X1815084Y1050645D01*
X1822043Y1038910D01*
X1830476Y1028192D01*
X1840280Y1018692D01*
X1851253Y1010615D01*
X1863242Y1004062D01*
X1875942Y999185D01*
X1889252Y995984D01*
G37*
G36*
X2410815Y994664D02*
G01*
X2424430Y995121D01*
X2437892Y997356D01*
X2450896Y1001420D01*
X2463292Y1007160D01*
X2474772Y1014476D01*
X2485186Y1023315D01*
X2494330Y1033424D01*
X2502052Y1044651D01*
X2508199Y1056843D01*
X2512669Y1069695D01*
X2515362Y1083056D01*
X2516276Y1096670D01*
X2515362Y1110284D01*
X2512669Y1123645D01*
X2508199Y1136548D01*
X2502052Y1148689D01*
X2494330Y1159916D01*
X2485186Y1170076D01*
X2474772Y1178864D01*
X2463292Y1186180D01*
X2450896Y1191920D01*
X2437892Y1195984D01*
X2424430Y1198270D01*
X2410815Y1198676D01*
X2397252Y1197356D01*
X2383942Y1194155D01*
X2371242Y1189278D01*
X2359253Y1182725D01*
X2348280Y1174648D01*
X2338476Y1165148D01*
X2330043Y1154430D01*
X2323084Y1142695D01*
X2317750Y1130147D01*
X2314143Y1116990D01*
X2312365Y1103477D01*
X2312365Y1089863D01*
X2314143Y1076350D01*
X2317750Y1063193D01*
X2323084Y1050645D01*
X2330043Y1038910D01*
X2338476Y1028192D01*
X2348280Y1018692D01*
X2359253Y1010615D01*
X2371242Y1004062D01*
X2383942Y999185D01*
X2397252Y995984D01*
G37*
G36*
X2156815Y994664D02*
G01*
X2170430Y995121D01*
X2183892Y997356D01*
X2196896Y1001420D01*
X2209292Y1007160D01*
X2220772Y1014476D01*
X2231186Y1023315D01*
X2240330Y1033424D01*
X2248052Y1044651D01*
X2254199Y1056843D01*
X2258669Y1069695D01*
X2261362Y1083056D01*
X2262276Y1096670D01*
X2261362Y1110284D01*
X2258669Y1123645D01*
X2254199Y1136548D01*
X2248052Y1148689D01*
X2240330Y1159916D01*
X2231186Y1170076D01*
X2220772Y1178864D01*
X2209292Y1186180D01*
X2196896Y1191920D01*
X2183892Y1195984D01*
X2170430Y1198270D01*
X2156815Y1198676D01*
X2143252Y1197356D01*
X2129942Y1194155D01*
X2117242Y1189278D01*
X2105253Y1182725D01*
X2094280Y1174648D01*
X2084476Y1165148D01*
X2076043Y1154430D01*
X2069084Y1142695D01*
X2063750Y1130147D01*
X2060143Y1116990D01*
X2058365Y1103477D01*
X2058365Y1089863D01*
X2060143Y1076350D01*
X2063750Y1063193D01*
X2069084Y1050645D01*
X2076043Y1038910D01*
X2084476Y1028192D01*
X2094280Y1018692D01*
X2105253Y1010615D01*
X2117242Y1004062D01*
X2129942Y999185D01*
X2143252Y995984D01*
G37*
G36*
X-2487422Y1248562D02*
G01*
X-2336139Y1248562D01*
X-2329840Y1249273D01*
X-2324404Y1251204D01*
X-2319477Y1254252D01*
X-2315413Y1258366D01*
X-2312314Y1263243D01*
X-2310384Y1268730D01*
X-2309672Y1275029D01*
X-2309672Y1426311D01*
X-2310384Y1432610D01*
X-2312314Y1438097D01*
X-2315413Y1442974D01*
X-2319477Y1447088D01*
X-2324404Y1450136D01*
X-2329840Y1452067D01*
X-2336139Y1452778D01*
X-2487422Y1452778D01*
X-2493721Y1452067D01*
X-2499207Y1450136D01*
X-2504084Y1447088D01*
X-2508199Y1442974D01*
X-2511298Y1438097D01*
X-2513177Y1432610D01*
X-2513888Y1426311D01*
X-2513888Y1275029D01*
X-2513177Y1268730D01*
X-2511298Y1263243D01*
X-2508199Y1258366D01*
X-2504084Y1254252D01*
X-2499207Y1251204D01*
X-2493721Y1249273D01*
G37*
G36*
X886815Y1248664D02*
G01*
X900430Y1249121D01*
X913892Y1251356D01*
X926896Y1255420D01*
X939292Y1261160D01*
X950772Y1268476D01*
X961186Y1277315D01*
X970330Y1287424D01*
X978052Y1298651D01*
X984199Y1310843D01*
X988669Y1323695D01*
X991362Y1337056D01*
X992276Y1350670D01*
X991362Y1364284D01*
X988669Y1377645D01*
X984199Y1390548D01*
X978052Y1402689D01*
X970330Y1413916D01*
X961186Y1424076D01*
X950772Y1432864D01*
X939292Y1440180D01*
X926896Y1445920D01*
X913892Y1449984D01*
X900430Y1452270D01*
X886815Y1452676D01*
X873252Y1451356D01*
X859942Y1448155D01*
X847242Y1443278D01*
X835253Y1436725D01*
X824280Y1428648D01*
X814476Y1419148D01*
X806043Y1408430D01*
X799084Y1396695D01*
X793750Y1384147D01*
X790143Y1370990D01*
X788365Y1357477D01*
X788365Y1343863D01*
X790143Y1330350D01*
X793750Y1317193D01*
X799084Y1304645D01*
X806043Y1292910D01*
X814476Y1282192D01*
X824280Y1272692D01*
X835253Y1264615D01*
X847242Y1258062D01*
X859942Y1253185D01*
X873252Y1249984D01*
G37*
G36*
X-1145184Y1248664D02*
G01*
X-1131570Y1249121D01*
X-1118108Y1251356D01*
X-1105103Y1255420D01*
X-1092708Y1261160D01*
X-1081227Y1268476D01*
X-1070813Y1277315D01*
X-1061669Y1287424D01*
X-1053947Y1298651D01*
X-1047800Y1310843D01*
X-1043330Y1323695D01*
X-1040637Y1337056D01*
X-1039723Y1350670D01*
X-1040637Y1364284D01*
X-1043330Y1377645D01*
X-1047800Y1390548D01*
X-1053947Y1402689D01*
X-1061669Y1413916D01*
X-1070813Y1424076D01*
X-1081227Y1432864D01*
X-1092708Y1440180D01*
X-1105103Y1445920D01*
X-1118108Y1449984D01*
X-1131570Y1452270D01*
X-1145184Y1452676D01*
X-1158748Y1451356D01*
X-1172057Y1448155D01*
X-1184757Y1443278D01*
X-1196746Y1436725D01*
X-1207719Y1428648D01*
X-1217523Y1419148D01*
X-1225956Y1408430D01*
X-1232916Y1396695D01*
X-1238250Y1384147D01*
X-1241856Y1370990D01*
X-1243634Y1357477D01*
X-1243634Y1343863D01*
X-1241856Y1330350D01*
X-1238250Y1317193D01*
X-1232916Y1304645D01*
X-1225956Y1292910D01*
X-1217523Y1282192D01*
X-1207719Y1272692D01*
X-1196746Y1264615D01*
X-1184757Y1258062D01*
X-1172057Y1253185D01*
X-1158748Y1249984D01*
G37*
G36*
X1394815Y1248664D02*
G01*
X1408430Y1249121D01*
X1421892Y1251356D01*
X1434896Y1255420D01*
X1447292Y1261160D01*
X1458772Y1268476D01*
X1469186Y1277315D01*
X1478330Y1287424D01*
X1486052Y1298651D01*
X1492199Y1310843D01*
X1496669Y1323695D01*
X1499362Y1337056D01*
X1500276Y1350670D01*
X1499362Y1364284D01*
X1496669Y1377645D01*
X1492199Y1390548D01*
X1486052Y1402689D01*
X1478330Y1413916D01*
X1469186Y1424076D01*
X1458772Y1432864D01*
X1447292Y1440180D01*
X1434896Y1445920D01*
X1421892Y1449984D01*
X1408430Y1452270D01*
X1394815Y1452676D01*
X1381252Y1451356D01*
X1367942Y1448155D01*
X1355242Y1443278D01*
X1343253Y1436725D01*
X1332280Y1428648D01*
X1322476Y1419148D01*
X1314043Y1408430D01*
X1307084Y1396695D01*
X1301750Y1384147D01*
X1298143Y1370990D01*
X1296365Y1357477D01*
X1296365Y1343863D01*
X1298143Y1330350D01*
X1301750Y1317193D01*
X1307084Y1304645D01*
X1314043Y1292910D01*
X1322476Y1282192D01*
X1332280Y1272692D01*
X1343253Y1264615D01*
X1355242Y1258062D01*
X1367942Y1253185D01*
X1381252Y1249984D01*
G37*
G36*
X1648815Y1248664D02*
G01*
X1662430Y1249121D01*
X1675892Y1251356D01*
X1688896Y1255420D01*
X1701292Y1261160D01*
X1712772Y1268476D01*
X1723186Y1277315D01*
X1732330Y1287424D01*
X1740052Y1298651D01*
X1746199Y1310843D01*
X1750669Y1323695D01*
X1753362Y1337056D01*
X1754276Y1350670D01*
X1753362Y1364284D01*
X1750669Y1377645D01*
X1746199Y1390548D01*
X1740052Y1402689D01*
X1732330Y1413916D01*
X1723186Y1424076D01*
X1712772Y1432864D01*
X1701292Y1440180D01*
X1688896Y1445920D01*
X1675892Y1449984D01*
X1662430Y1452270D01*
X1648815Y1452676D01*
X1635251Y1451356D01*
X1621942Y1448155D01*
X1609242Y1443278D01*
X1597253Y1436725D01*
X1586280Y1428648D01*
X1576476Y1419148D01*
X1568043Y1408430D01*
X1561084Y1396695D01*
X1555750Y1384147D01*
X1552143Y1370990D01*
X1550365Y1357477D01*
X1550365Y1343863D01*
X1552143Y1330350D01*
X1555750Y1317193D01*
X1561084Y1304645D01*
X1568043Y1292910D01*
X1576476Y1282192D01*
X1586280Y1272692D01*
X1597253Y1264615D01*
X1609242Y1258062D01*
X1621942Y1253185D01*
X1635251Y1249984D01*
G37*
G36*
X-1907184Y1248664D02*
G01*
X-1893570Y1249121D01*
X-1880107Y1251356D01*
X-1867103Y1255420D01*
X-1854707Y1261160D01*
X-1843227Y1268476D01*
X-1832813Y1277315D01*
X-1823669Y1287424D01*
X-1815947Y1298651D01*
X-1809800Y1310843D01*
X-1805330Y1323695D01*
X-1802638Y1337056D01*
X-1801723Y1350670D01*
X-1802638Y1364284D01*
X-1805330Y1377645D01*
X-1809800Y1390548D01*
X-1815947Y1402689D01*
X-1823669Y1413916D01*
X-1832813Y1424076D01*
X-1843227Y1432864D01*
X-1854707Y1440180D01*
X-1867103Y1445920D01*
X-1880107Y1449984D01*
X-1893570Y1452270D01*
X-1907184Y1452676D01*
X-1920748Y1451356D01*
X-1934057Y1448155D01*
X-1946757Y1443278D01*
X-1958746Y1436725D01*
X-1969719Y1428648D01*
X-1979523Y1419148D01*
X-1987956Y1408430D01*
X-1994916Y1396695D01*
X-2000250Y1384147D01*
X-2003856Y1370990D01*
X-2005634Y1357477D01*
X-2005634Y1343863D01*
X-2003856Y1330350D01*
X-2000250Y1317193D01*
X-1994916Y1304645D01*
X-1987956Y1292910D01*
X-1979523Y1282192D01*
X-1969719Y1272692D01*
X-1958746Y1264615D01*
X-1946757Y1258062D01*
X-1934057Y1253185D01*
X-1920748Y1249984D01*
G37*
G36*
X378815Y1248664D02*
G01*
X392430Y1249121D01*
X405892Y1251356D01*
X418896Y1255420D01*
X431292Y1261160D01*
X442772Y1268476D01*
X453186Y1277315D01*
X462330Y1287424D01*
X470052Y1298651D01*
X476199Y1310843D01*
X480669Y1323695D01*
X483362Y1337056D01*
X484276Y1350670D01*
X483362Y1364284D01*
X480669Y1377645D01*
X476199Y1390548D01*
X470052Y1402689D01*
X462330Y1413916D01*
X453186Y1424076D01*
X442772Y1432864D01*
X431292Y1440180D01*
X418896Y1445920D01*
X405892Y1449984D01*
X392430Y1452270D01*
X378815Y1452676D01*
X365252Y1451356D01*
X351942Y1448155D01*
X339242Y1443278D01*
X327253Y1436725D01*
X316280Y1428648D01*
X306476Y1419148D01*
X298043Y1408430D01*
X291084Y1396695D01*
X285750Y1384147D01*
X282143Y1370990D01*
X280365Y1357477D01*
X280365Y1343863D01*
X282143Y1330350D01*
X285750Y1317193D01*
X291084Y1304645D01*
X298043Y1292910D01*
X306476Y1282192D01*
X316280Y1272692D01*
X327253Y1264615D01*
X339242Y1258062D01*
X351942Y1253185D01*
X365252Y1249984D01*
G37*
G36*
X124815Y1248664D02*
G01*
X138430Y1249121D01*
X151892Y1251356D01*
X164896Y1255420D01*
X177292Y1261160D01*
X188772Y1268476D01*
X199186Y1277315D01*
X208330Y1287424D01*
X216052Y1298651D01*
X222199Y1310843D01*
X226669Y1323695D01*
X229362Y1337056D01*
X230276Y1350670D01*
X229362Y1364284D01*
X226669Y1377645D01*
X222199Y1390548D01*
X216052Y1402689D01*
X208330Y1413916D01*
X199186Y1424076D01*
X188772Y1432864D01*
X177292Y1440180D01*
X164896Y1445920D01*
X151892Y1449984D01*
X138430Y1452270D01*
X124815Y1452676D01*
X111252Y1451356D01*
X97942Y1448155D01*
X85242Y1443278D01*
X73253Y1436725D01*
X62280Y1428648D01*
X52476Y1419148D01*
X44043Y1408430D01*
X37084Y1396695D01*
X31750Y1384147D01*
X28143Y1370990D01*
X26365Y1357477D01*
X26365Y1343863D01*
X28143Y1330350D01*
X31750Y1317193D01*
X37084Y1304645D01*
X44043Y1292910D01*
X52476Y1282192D01*
X62280Y1272692D01*
X73253Y1264615D01*
X85242Y1258062D01*
X97942Y1253185D01*
X111252Y1249984D01*
G37*
G36*
X-891184Y1248664D02*
G01*
X-877569Y1249121D01*
X-864108Y1251356D01*
X-851103Y1255420D01*
X-838708Y1261160D01*
X-827227Y1268476D01*
X-816813Y1277315D01*
X-807669Y1287424D01*
X-799947Y1298651D01*
X-793800Y1310843D01*
X-789330Y1323695D01*
X-786638Y1337056D01*
X-785723Y1350670D01*
X-786638Y1364284D01*
X-789330Y1377645D01*
X-793800Y1390548D01*
X-799947Y1402689D01*
X-807669Y1413916D01*
X-816813Y1424076D01*
X-827227Y1432864D01*
X-838708Y1440180D01*
X-851103Y1445920D01*
X-864108Y1449984D01*
X-877569Y1452270D01*
X-891184Y1452676D01*
X-904748Y1451356D01*
X-918057Y1448155D01*
X-930757Y1443278D01*
X-942746Y1436725D01*
X-953719Y1428648D01*
X-963523Y1419148D01*
X-971956Y1408430D01*
X-978916Y1396695D01*
X-984250Y1384147D01*
X-987856Y1370990D01*
X-989634Y1357477D01*
X-989634Y1343863D01*
X-987856Y1330350D01*
X-984250Y1317193D01*
X-978916Y1304645D01*
X-971956Y1292910D01*
X-963523Y1282192D01*
X-953719Y1272692D01*
X-942746Y1264615D01*
X-930757Y1258062D01*
X-918057Y1253185D01*
X-904748Y1249984D01*
G37*
G36*
X-637184Y1248664D02*
G01*
X-623570Y1249121D01*
X-610108Y1251356D01*
X-597103Y1255420D01*
X-584708Y1261160D01*
X-573227Y1268476D01*
X-562813Y1277315D01*
X-553669Y1287424D01*
X-545947Y1298651D01*
X-539800Y1310843D01*
X-535330Y1323695D01*
X-532638Y1337056D01*
X-531723Y1350670D01*
X-532638Y1364284D01*
X-535330Y1377645D01*
X-539800Y1390548D01*
X-545947Y1402689D01*
X-553669Y1413916D01*
X-562813Y1424076D01*
X-573227Y1432864D01*
X-584708Y1440180D01*
X-597103Y1445920D01*
X-610108Y1449984D01*
X-623570Y1452270D01*
X-637184Y1452676D01*
X-650748Y1451356D01*
X-664057Y1448155D01*
X-676757Y1443278D01*
X-688746Y1436725D01*
X-699719Y1428648D01*
X-709523Y1419148D01*
X-717956Y1408430D01*
X-724916Y1396695D01*
X-730250Y1384147D01*
X-733856Y1370990D01*
X-735634Y1357477D01*
X-735634Y1343863D01*
X-733856Y1330350D01*
X-730250Y1317193D01*
X-724916Y1304645D01*
X-717956Y1292910D01*
X-709523Y1282192D01*
X-699719Y1272692D01*
X-688746Y1264615D01*
X-676757Y1258062D01*
X-664057Y1253185D01*
X-650748Y1249984D01*
G37*
G36*
X1140815Y1248664D02*
G01*
X1154430Y1249121D01*
X1167892Y1251356D01*
X1180896Y1255420D01*
X1193292Y1261160D01*
X1204772Y1268476D01*
X1215186Y1277315D01*
X1224330Y1287424D01*
X1232052Y1298651D01*
X1238199Y1310843D01*
X1242669Y1323695D01*
X1245362Y1337056D01*
X1246276Y1350670D01*
X1245362Y1364284D01*
X1242669Y1377645D01*
X1238199Y1390548D01*
X1232052Y1402689D01*
X1224330Y1413916D01*
X1215186Y1424076D01*
X1204772Y1432864D01*
X1193292Y1440180D01*
X1180896Y1445920D01*
X1167892Y1449984D01*
X1154430Y1452270D01*
X1140815Y1452676D01*
X1127252Y1451356D01*
X1113942Y1448155D01*
X1101242Y1443278D01*
X1089253Y1436725D01*
X1078280Y1428648D01*
X1068476Y1419148D01*
X1060043Y1408430D01*
X1053084Y1396695D01*
X1047750Y1384147D01*
X1044143Y1370990D01*
X1042365Y1357477D01*
X1042365Y1343863D01*
X1044143Y1330350D01*
X1047750Y1317193D01*
X1053084Y1304645D01*
X1060043Y1292910D01*
X1068476Y1282192D01*
X1078280Y1272692D01*
X1089253Y1264615D01*
X1101242Y1258062D01*
X1113942Y1253185D01*
X1127252Y1249984D01*
G37*
G36*
X-2161184Y1248664D02*
G01*
X-2147570Y1249121D01*
X-2134108Y1251356D01*
X-2121103Y1255420D01*
X-2108708Y1261160D01*
X-2097227Y1268476D01*
X-2086813Y1277315D01*
X-2077669Y1287424D01*
X-2069947Y1298651D01*
X-2063800Y1310843D01*
X-2059330Y1323695D01*
X-2056638Y1337056D01*
X-2055723Y1350670D01*
X-2056638Y1364284D01*
X-2059330Y1377645D01*
X-2063800Y1390548D01*
X-2069947Y1402689D01*
X-2077669Y1413916D01*
X-2086813Y1424076D01*
X-2097227Y1432864D01*
X-2108708Y1440180D01*
X-2121103Y1445920D01*
X-2134108Y1449984D01*
X-2147570Y1452270D01*
X-2161184Y1452676D01*
X-2174748Y1451356D01*
X-2188057Y1448155D01*
X-2200757Y1443278D01*
X-2212746Y1436725D01*
X-2223719Y1428648D01*
X-2233523Y1419148D01*
X-2241956Y1408430D01*
X-2248916Y1396695D01*
X-2254250Y1384147D01*
X-2257856Y1370990D01*
X-2259634Y1357477D01*
X-2259634Y1343863D01*
X-2257856Y1330350D01*
X-2254250Y1317193D01*
X-2248916Y1304645D01*
X-2241956Y1292910D01*
X-2233523Y1282192D01*
X-2223719Y1272692D01*
X-2212746Y1264615D01*
X-2200757Y1258062D01*
X-2188057Y1253185D01*
X-2174748Y1249984D01*
G37*
G36*
X-1653184Y1248664D02*
G01*
X-1639570Y1249121D01*
X-1626107Y1251356D01*
X-1613103Y1255420D01*
X-1600708Y1261160D01*
X-1589227Y1268476D01*
X-1578813Y1277315D01*
X-1569669Y1287424D01*
X-1561947Y1298651D01*
X-1555800Y1310843D01*
X-1551330Y1323695D01*
X-1548638Y1337056D01*
X-1547723Y1350670D01*
X-1548638Y1364284D01*
X-1551330Y1377645D01*
X-1555800Y1390548D01*
X-1561947Y1402689D01*
X-1569669Y1413916D01*
X-1578813Y1424076D01*
X-1589227Y1432864D01*
X-1600708Y1440180D01*
X-1613103Y1445920D01*
X-1626107Y1449984D01*
X-1639570Y1452270D01*
X-1653184Y1452676D01*
X-1666748Y1451356D01*
X-1680057Y1448155D01*
X-1692757Y1443278D01*
X-1704746Y1436725D01*
X-1715719Y1428648D01*
X-1725523Y1419148D01*
X-1733956Y1408430D01*
X-1740916Y1396695D01*
X-1746250Y1384147D01*
X-1749856Y1370990D01*
X-1751634Y1357477D01*
X-1751634Y1343863D01*
X-1749856Y1330350D01*
X-1746250Y1317193D01*
X-1740916Y1304645D01*
X-1733956Y1292910D01*
X-1725523Y1282192D01*
X-1715719Y1272692D01*
X-1704746Y1264615D01*
X-1692757Y1258062D01*
X-1680057Y1253185D01*
X-1666748Y1249984D01*
G37*
G36*
X1902815Y1248664D02*
G01*
X1916430Y1249121D01*
X1929892Y1251356D01*
X1942896Y1255420D01*
X1955292Y1261160D01*
X1966772Y1268476D01*
X1977186Y1277315D01*
X1986330Y1287424D01*
X1994052Y1298651D01*
X2000199Y1310843D01*
X2004669Y1323695D01*
X2007362Y1337056D01*
X2008276Y1350670D01*
X2007362Y1364284D01*
X2004669Y1377645D01*
X2000199Y1390548D01*
X1994052Y1402689D01*
X1986330Y1413916D01*
X1977186Y1424076D01*
X1966772Y1432864D01*
X1955292Y1440180D01*
X1942896Y1445920D01*
X1929892Y1449984D01*
X1916430Y1452270D01*
X1902815Y1452676D01*
X1889252Y1451356D01*
X1875942Y1448155D01*
X1863242Y1443278D01*
X1851253Y1436725D01*
X1840280Y1428648D01*
X1830476Y1419148D01*
X1822043Y1408430D01*
X1815084Y1396695D01*
X1809750Y1384147D01*
X1806143Y1370990D01*
X1804365Y1357477D01*
X1804365Y1343863D01*
X1806143Y1330350D01*
X1809750Y1317193D01*
X1815084Y1304645D01*
X1822043Y1292910D01*
X1830476Y1282192D01*
X1840280Y1272692D01*
X1851253Y1264615D01*
X1863242Y1258062D01*
X1875942Y1253185D01*
X1889252Y1249984D01*
G37*
G36*
X2156815Y1248664D02*
G01*
X2170430Y1249121D01*
X2183892Y1251356D01*
X2196896Y1255420D01*
X2209292Y1261160D01*
X2220772Y1268476D01*
X2231186Y1277315D01*
X2240330Y1287424D01*
X2248052Y1298651D01*
X2254199Y1310843D01*
X2258669Y1323695D01*
X2261362Y1337056D01*
X2262276Y1350670D01*
X2261362Y1364284D01*
X2258669Y1377645D01*
X2254199Y1390548D01*
X2248052Y1402689D01*
X2240330Y1413916D01*
X2231186Y1424076D01*
X2220772Y1432864D01*
X2209292Y1440180D01*
X2196896Y1445920D01*
X2183892Y1449984D01*
X2170430Y1452270D01*
X2156815Y1452676D01*
X2143252Y1451356D01*
X2129942Y1448155D01*
X2117242Y1443278D01*
X2105253Y1436725D01*
X2094280Y1428648D01*
X2084476Y1419148D01*
X2076043Y1408430D01*
X2069084Y1396695D01*
X2063750Y1384147D01*
X2060143Y1370990D01*
X2058365Y1357477D01*
X2058365Y1343863D01*
X2060143Y1330350D01*
X2063750Y1317193D01*
X2069084Y1304645D01*
X2076043Y1292910D01*
X2084476Y1282192D01*
X2094280Y1272692D01*
X2105253Y1264615D01*
X2117242Y1258062D01*
X2129942Y1253185D01*
X2143252Y1249984D01*
G37*
G36*
X591769Y1258874D02*
G01*
X591769Y1306220D01*
X544423Y1306220D01*
X545084Y1304645D01*
X552043Y1292910D01*
X560476Y1282192D01*
X570280Y1272692D01*
X581253Y1264615D01*
G37*
G36*
X-1440230Y1258874D02*
G01*
X-1440230Y1306220D01*
X-1487576Y1306220D01*
X-1486916Y1304645D01*
X-1479956Y1292910D01*
X-1471523Y1282192D01*
X-1461719Y1272692D01*
X-1450746Y1264615D01*
G37*
G36*
X2369769Y1258874D02*
G01*
X2369769Y1306220D01*
X2322423Y1306220D01*
X2323084Y1304645D01*
X2330043Y1292910D01*
X2338476Y1282192D01*
X2348280Y1272692D01*
X2359253Y1264615D01*
G37*
G36*
X2458669Y1259027D02*
G01*
X2463292Y1261160D01*
X2474772Y1268476D01*
X2485186Y1277315D01*
X2494330Y1287424D01*
X2502052Y1298651D01*
X2505862Y1306220D01*
X2458669Y1306220D01*
G37*
G36*
X-1351330Y1259027D02*
G01*
X-1346708Y1261160D01*
X-1335227Y1268476D01*
X-1324813Y1277315D01*
X-1315669Y1287424D01*
X-1307947Y1298651D01*
X-1304137Y1306220D01*
X-1351330Y1306220D01*
G37*
G36*
X680669Y1259027D02*
G01*
X685292Y1261160D01*
X696772Y1268476D01*
X707186Y1277315D01*
X716330Y1287424D01*
X724052Y1298651D01*
X727862Y1306220D01*
X680669Y1306220D01*
G37*
G36*
X2458669Y1395120D02*
G01*
X2505862Y1395120D01*
X2502052Y1402689D01*
X2494330Y1413916D01*
X2485186Y1424076D01*
X2474772Y1432864D01*
X2463292Y1440180D01*
X2458669Y1442313D01*
G37*
G36*
X-1351330Y1395120D02*
G01*
X-1304137Y1395120D01*
X-1307947Y1402689D01*
X-1315669Y1413916D01*
X-1324813Y1424076D01*
X-1335227Y1432864D01*
X-1346708Y1440180D01*
X-1351330Y1442313D01*
G37*
G36*
X680669Y1395120D02*
G01*
X727862Y1395120D01*
X724052Y1402689D01*
X716330Y1413916D01*
X707186Y1424076D01*
X696772Y1432864D01*
X685292Y1440180D01*
X680669Y1442313D01*
G37*
G36*
X-1487576Y1395120D02*
G01*
X-1440230Y1395120D01*
X-1440230Y1442466D01*
X-1450746Y1436725D01*
X-1461719Y1428648D01*
X-1471523Y1419148D01*
X-1479956Y1408430D01*
X-1486916Y1396695D01*
G37*
G36*
X544423Y1395120D02*
G01*
X591769Y1395120D01*
X591769Y1442466D01*
X581253Y1436725D01*
X570280Y1428648D01*
X560476Y1419148D01*
X552043Y1408430D01*
X545084Y1396695D01*
G37*
G36*
X2322423Y1395120D02*
G01*
X2369769Y1395120D01*
X2369769Y1442466D01*
X2359253Y1436725D01*
X2348280Y1428648D01*
X2338476Y1419148D01*
X2330043Y1408430D01*
X2323084Y1396695D01*
G37*
G36*
X1139291Y1658162D02*
G01*
X1154074Y1658620D01*
X1168654Y1660906D01*
X1182827Y1664970D01*
X1196441Y1670710D01*
X1209192Y1678076D01*
X1220978Y1686966D01*
X1231595Y1697228D01*
X1240840Y1708759D01*
X1248613Y1721307D01*
X1254760Y1734718D01*
X1259230Y1748739D01*
X1261973Y1763268D01*
X1262888Y1778000D01*
X1261973Y1792732D01*
X1259230Y1807260D01*
X1254760Y1821281D01*
X1248613Y1834692D01*
X1240840Y1847240D01*
X1231595Y1858772D01*
X1220978Y1869033D01*
X1209192Y1877923D01*
X1196441Y1885289D01*
X1182827Y1891030D01*
X1168654Y1895093D01*
X1154074Y1897380D01*
X1139291Y1897786D01*
X1124610Y1896465D01*
X1110183Y1893316D01*
X1096264Y1888388D01*
X1083056Y1881784D01*
X1070762Y1873656D01*
X1059535Y1864055D01*
X1049629Y1853133D01*
X1041095Y1841093D01*
X1034084Y1828088D01*
X1028750Y1814322D01*
X1025194Y1800047D01*
X1023366Y1785366D01*
X1023366Y1770634D01*
X1025194Y1755952D01*
X1028750Y1741678D01*
X1034084Y1727911D01*
X1041095Y1714906D01*
X1049629Y1702866D01*
X1059535Y1691944D01*
X1070762Y1682343D01*
X1083056Y1674215D01*
X1096264Y1667611D01*
X1110183Y1662684D01*
X1124610Y1659534D01*
G37*
G36*
X-1146708Y1658162D02*
G01*
X-1131925Y1658620D01*
X-1117346Y1660906D01*
X-1103172Y1664970D01*
X-1089558Y1670710D01*
X-1076807Y1678076D01*
X-1065022Y1686966D01*
X-1054404Y1697228D01*
X-1045159Y1708759D01*
X-1037386Y1721307D01*
X-1031240Y1734718D01*
X-1026769Y1748739D01*
X-1024026Y1763268D01*
X-1023112Y1778000D01*
X-1024026Y1792732D01*
X-1026769Y1807260D01*
X-1031240Y1821281D01*
X-1037386Y1834692D01*
X-1045159Y1847240D01*
X-1054404Y1858772D01*
X-1065022Y1869033D01*
X-1076807Y1877923D01*
X-1089558Y1885289D01*
X-1103172Y1891030D01*
X-1117346Y1895093D01*
X-1131925Y1897380D01*
X-1146708Y1897786D01*
X-1161389Y1896465D01*
X-1175816Y1893316D01*
X-1189736Y1888388D01*
X-1202944Y1881784D01*
X-1215237Y1873656D01*
X-1226464Y1864055D01*
X-1236370Y1853133D01*
X-1244904Y1841093D01*
X-1251915Y1828088D01*
X-1257249Y1814322D01*
X-1260805Y1800047D01*
X-1262634Y1785366D01*
X-1262634Y1770634D01*
X-1260805Y1755952D01*
X-1257249Y1741678D01*
X-1251915Y1727911D01*
X-1244904Y1714906D01*
X-1236370Y1702866D01*
X-1226464Y1691944D01*
X-1215237Y1682343D01*
X-1202944Y1674215D01*
X-1189736Y1667611D01*
X-1175816Y1662684D01*
X-1161389Y1659534D01*
G37*
G36*
X434340Y1670659D02*
G01*
X447192Y1678076D01*
X458978Y1686966D01*
X469595Y1697228D01*
X478840Y1708759D01*
X486613Y1721307D01*
X488137Y1724660D01*
X434340Y1724660D01*
G37*
G36*
X327660Y1670913D02*
G01*
X327660Y1724660D01*
X273862Y1724660D01*
X279095Y1714906D01*
X287629Y1702866D01*
X297535Y1691944D01*
X308762Y1682343D01*
X321056Y1674215D01*
G37*
G36*
X273862Y1831339D02*
G01*
X327660Y1831339D01*
X327660Y1885086D01*
X321056Y1881784D01*
X308762Y1873656D01*
X297535Y1864055D01*
X287629Y1853133D01*
X279095Y1841093D01*
G37*
G36*
X434340Y1831339D02*
G01*
X488137Y1831339D01*
X486613Y1834692D01*
X478840Y1847240D01*
X469595Y1858772D01*
X458978Y1869033D01*
X447192Y1877923D01*
X434340Y1885340D01*
G37*
G36*
X3599992Y2672486D02*
G01*
X3615385Y2673451D01*
X3630523Y2676194D01*
X3645204Y2680766D01*
X3659225Y2687116D01*
X3672433Y2695092D01*
X3684524Y2704592D01*
X3695395Y2715463D01*
X3704894Y2727553D01*
X3712870Y2740761D01*
X3719220Y2754782D01*
X3723792Y2769463D01*
X3726535Y2784602D01*
X3727500Y2799994D01*
X3726535Y2815386D01*
X3723792Y2830525D01*
X3719220Y2845206D01*
X3712870Y2859227D01*
X3704894Y2872435D01*
X3695395Y2884525D01*
X3684524Y2895396D01*
X3672433Y2904896D01*
X3659225Y2912872D01*
X3645204Y2919222D01*
X3630523Y2923794D01*
X3615385Y2926537D01*
X3599992Y2927502D01*
X3584600Y2926537D01*
X3569462Y2923794D01*
X3554780Y2919222D01*
X3540760Y2912872D01*
X3527551Y2904896D01*
X3515461Y2895396D01*
X3504590Y2884525D01*
X3495090Y2872435D01*
X3487115Y2859227D01*
X3480765Y2845206D01*
X3476193Y2830525D01*
X3473450Y2815386D01*
X3472484Y2799994D01*
X3473450Y2784602D01*
X3476193Y2769463D01*
X3480765Y2754782D01*
X3487115Y2740761D01*
X3495090Y2727553D01*
X3504590Y2715463D01*
X3515461Y2704592D01*
X3527551Y2695092D01*
X3540760Y2687116D01*
X3554780Y2680766D01*
X3569462Y2676194D01*
X3584600Y2673451D01*
G37*
G36*
X-3599992Y2672486D02*
G01*
X-3584600Y2673451D01*
X-3569462Y2676194D01*
X-3554780Y2680766D01*
X-3540760Y2687116D01*
X-3527551Y2695092D01*
X-3515461Y2704592D01*
X-3504590Y2715463D01*
X-3495090Y2727553D01*
X-3487115Y2740761D01*
X-3480765Y2754782D01*
X-3476193Y2769463D01*
X-3473450Y2784602D01*
X-3472484Y2799994D01*
X-3473450Y2815386D01*
X-3476193Y2830525D01*
X-3480765Y2845206D01*
X-3487115Y2859227D01*
X-3495090Y2872435D01*
X-3504590Y2884525D01*
X-3515461Y2895396D01*
X-3527551Y2904896D01*
X-3540760Y2912872D01*
X-3554780Y2919222D01*
X-3569462Y2923794D01*
X-3584600Y2926537D01*
X-3599992Y2927502D01*
X-3615385Y2926537D01*
X-3630523Y2923794D01*
X-3645204Y2919222D01*
X-3659225Y2912872D01*
X-3672433Y2904896D01*
X-3684524Y2895396D01*
X-3695395Y2884525D01*
X-3704894Y2872435D01*
X-3712870Y2859227D01*
X-3719220Y2845206D01*
X-3723792Y2830525D01*
X-3726535Y2815386D01*
X-3727500Y2799994D01*
X-3726535Y2784602D01*
X-3723792Y2769463D01*
X-3719220Y2754782D01*
X-3712870Y2740761D01*
X-3704894Y2727553D01*
X-3695395Y2715463D01*
X-3684524Y2704592D01*
X-3672433Y2695092D01*
X-3659225Y2687116D01*
X-3645204Y2680766D01*
X-3630523Y2676194D01*
X-3615385Y2673451D01*
G37*
G36*
X1199997Y3872484D02*
G01*
X1215390Y3873449D01*
X1230528Y3876192D01*
X1245209Y3880764D01*
X1259230Y3887114D01*
X1272438Y3895090D01*
X1284528Y3904589D01*
X1295400Y3915460D01*
X1304899Y3927551D01*
X1312875Y3940759D01*
X1319225Y3954779D01*
X1323797Y3969461D01*
X1326540Y3984599D01*
X1327505Y3999992D01*
X1326540Y4015384D01*
X1323797Y4030522D01*
X1319225Y4045204D01*
X1312875Y4059224D01*
X1304899Y4072432D01*
X1295400Y4084523D01*
X1284528Y4095394D01*
X1272438Y4104894D01*
X1259230Y4112869D01*
X1245209Y4119219D01*
X1230528Y4123791D01*
X1215390Y4126534D01*
X1199997Y4127500D01*
X1184605Y4126534D01*
X1169466Y4123791D01*
X1154785Y4119219D01*
X1140764Y4112869D01*
X1127556Y4104894D01*
X1115466Y4095394D01*
X1104595Y4084523D01*
X1095095Y4072432D01*
X1087120Y4059224D01*
X1080770Y4045204D01*
X1076198Y4030522D01*
X1073454Y4015384D01*
X1072489Y3999992D01*
X1073454Y3984599D01*
X1076198Y3969461D01*
X1080770Y3954779D01*
X1087120Y3940759D01*
X1095095Y3927551D01*
X1104595Y3915460D01*
X1115466Y3904589D01*
X1127556Y3895090D01*
X1140764Y3887114D01*
X1154785Y3880764D01*
X1169466Y3876192D01*
X1184605Y3873449D01*
G37*
G36*
X-1199997Y3872484D02*
G01*
X-1184605Y3873449D01*
X-1169466Y3876192D01*
X-1154785Y3880764D01*
X-1140764Y3887114D01*
X-1127556Y3895090D01*
X-1115466Y3904589D01*
X-1104595Y3915460D01*
X-1095095Y3927551D01*
X-1087120Y3940759D01*
X-1080770Y3954779D01*
X-1076198Y3969461D01*
X-1073454Y3984599D01*
X-1072489Y3999992D01*
X-1073454Y4015384D01*
X-1076198Y4030522D01*
X-1080770Y4045204D01*
X-1087120Y4059224D01*
X-1095095Y4072432D01*
X-1104595Y4084523D01*
X-1115466Y4095394D01*
X-1127556Y4104894D01*
X-1140764Y4112869D01*
X-1154785Y4119219D01*
X-1169466Y4123791D01*
X-1184605Y4126534D01*
X-1199997Y4127500D01*
X-1215390Y4126534D01*
X-1230528Y4123791D01*
X-1245209Y4119219D01*
X-1259230Y4112869D01*
X-1272438Y4104894D01*
X-1284528Y4095394D01*
X-1295400Y4084523D01*
X-1304899Y4072432D01*
X-1312875Y4059224D01*
X-1319225Y4045204D01*
X-1323797Y4030522D01*
X-1326540Y4015384D01*
X-1327505Y3999992D01*
X-1326540Y3984599D01*
X-1323797Y3969461D01*
X-1319225Y3954779D01*
X-1312875Y3940759D01*
X-1304899Y3927551D01*
X-1295400Y3915460D01*
X-1284528Y3904589D01*
X-1272438Y3895090D01*
X-1259230Y3887114D01*
X-1245209Y3880764D01*
X-1230528Y3876192D01*
X-1215390Y3873449D01*
G37*
G36*
X1999996Y4072483D02*
G01*
X2015388Y4073448D01*
X2030526Y4076192D01*
X2045207Y4080764D01*
X2059228Y4087114D01*
X2072436Y4095089D01*
X2084527Y4104589D01*
X2095398Y4115460D01*
X2104898Y4127550D01*
X2112873Y4140758D01*
X2119223Y4154779D01*
X2123795Y4169460D01*
X2126538Y4184599D01*
X2127504Y4199991D01*
X2126538Y4215384D01*
X2123795Y4230522D01*
X2119223Y4245203D01*
X2112873Y4259224D01*
X2104898Y4272432D01*
X2095398Y4284522D01*
X2084527Y4295394D01*
X2072436Y4304893D01*
X2059228Y4312869D01*
X2045207Y4319219D01*
X2030526Y4323791D01*
X2015388Y4326534D01*
X1999996Y4327499D01*
X1984603Y4326534D01*
X1969465Y4323791D01*
X1954784Y4319219D01*
X1940763Y4312869D01*
X1927555Y4304893D01*
X1915464Y4295394D01*
X1904593Y4284522D01*
X1895093Y4272432D01*
X1887118Y4259224D01*
X1880768Y4245203D01*
X1876196Y4230522D01*
X1873453Y4215384D01*
X1872488Y4199991D01*
X1873453Y4184599D01*
X1876196Y4169460D01*
X1880768Y4154779D01*
X1887118Y4140758D01*
X1895093Y4127550D01*
X1904593Y4115460D01*
X1915464Y4104589D01*
X1927555Y4095089D01*
X1940763Y4087114D01*
X1954784Y4080764D01*
X1969465Y4076192D01*
X1984603Y4073448D01*
G37*
G36*
X-1999996Y4072483D02*
G01*
X-1984603Y4073448D01*
X-1969465Y4076192D01*
X-1954784Y4080764D01*
X-1940763Y4087114D01*
X-1927555Y4095089D01*
X-1915464Y4104589D01*
X-1904593Y4115460D01*
X-1895093Y4127550D01*
X-1887118Y4140758D01*
X-1880768Y4154779D01*
X-1876196Y4169460D01*
X-1873453Y4184599D01*
X-1872488Y4199991D01*
X-1873453Y4215384D01*
X-1876196Y4230522D01*
X-1880768Y4245203D01*
X-1887118Y4259224D01*
X-1895093Y4272432D01*
X-1904593Y4284522D01*
X-1915464Y4295394D01*
X-1927555Y4304893D01*
X-1940763Y4312869D01*
X-1954784Y4319219D01*
X-1969465Y4323791D01*
X-1984603Y4326534D01*
X-1999996Y4327499D01*
X-2015388Y4326534D01*
X-2030526Y4323791D01*
X-2045207Y4319219D01*
X-2059228Y4312869D01*
X-2072436Y4304893D01*
X-2084527Y4295394D01*
X-2095398Y4284522D01*
X-2104898Y4272432D01*
X-2112873Y4259224D01*
X-2119223Y4245203D01*
X-2123795Y4230522D01*
X-2126538Y4215384D01*
X-2127504Y4199991D01*
X-2126538Y4184599D01*
X-2123795Y4169460D01*
X-2119223Y4154779D01*
X-2112873Y4140758D01*
X-2104898Y4127550D01*
X-2095398Y4115460D01*
X-2084527Y4104589D01*
X-2072436Y4095089D01*
X-2059228Y4087114D01*
X-2045207Y4080764D01*
X-2030526Y4076192D01*
X-2015388Y4073448D01*
G37*

%LPD*%
D10*
X-1143010Y-1270010D02*
G01*
X-1017508Y-1395511D01*
X-1017508Y-1395536D01*
X-918448Y-1395536D01*
X-330210Y-1983775D01*
X-330210Y-3156518D01*
X50789Y-3537518D01*
X1396989Y-1270010D02*
G01*
X1396989Y-2191318D01*
X50789Y-3537518D01*
X50789Y-3537518D02*
G01*
X634989Y-4121718D01*
X634989Y-4318010D01*
X-1649790Y1096660D02*
G01*
X-1649790Y195061D01*
X558789Y-2013518D01*
X812789Y-2013518D02*
G01*
X812789Y-1905619D01*
X812789Y-1905619D02*
G01*
X704890Y-1905619D01*
X-252790Y-947938D01*
X-252790Y1649770D01*
X-381010Y1777989D01*
X-1905010Y-1270010D02*
G01*
X-1905010Y-1376664D01*
X-1727210Y-2013518D02*
G01*
X-1727210Y-1554464D01*
X-1905010Y-1376664D01*
X888989Y-1270010D02*
G01*
X708345Y-1450654D01*
X708345Y-1791522D01*
X-457210Y-2013518D02*
G01*
X-999754Y-1470974D01*
X-1450045Y-1470974D01*
X-1651010Y-1270010D01*
X634989Y-1270010D02*
G01*
X634989Y-1376664D01*
X634989Y-1376664D02*
G01*
X626176Y-1385478D01*
X626176Y-1560205D01*
D11*
X2198359Y-2007118D02*
G01*
X2198359Y-1128201D01*
D12*
G01*
X2414219Y1096670D03*
G01*
X2414219Y1350670D03*
G01*
X2160219Y1096670D03*
G01*
X2160219Y1350670D03*
G01*
X1906219Y1096670D03*
G01*
X1906219Y1350670D03*
G01*
X1652219Y1096670D03*
G01*
X1652219Y1350670D03*
G01*
X1398219Y1096670D03*
G01*
X1398219Y1350670D03*
G01*
X1144219Y1096670D03*
G01*
X1144219Y1350670D03*
G01*
X890219Y1096670D03*
G01*
X890219Y1350670D03*
G01*
X636219Y1096670D03*
G01*
X636219Y1350670D03*
G01*
X382219Y1096670D03*
G01*
X382219Y1350670D03*
G01*
X128219Y1096670D03*
G01*
X128219Y1350670D03*
G01*
X-125780Y1096670D03*
G01*
X-125780Y1350670D03*
G01*
X-379780Y1096670D03*
G01*
X-379780Y1350670D03*
G01*
X-633780Y1096670D03*
G01*
X-633780Y1350670D03*
G01*
X-887780Y1096670D03*
G01*
X-887780Y1350670D03*
G01*
X-1141780Y1096670D03*
G01*
X-1141780Y1350670D03*
G01*
X-1395780Y1096670D03*
G01*
X-1395780Y1350670D03*
G01*
X-1649780Y1096670D03*
G01*
X-1649780Y1350670D03*
G01*
X-1903780Y1096670D03*
G01*
X-1903780Y1350670D03*
G01*
X-2157780Y1096670D03*
G01*
X-2157780Y1350670D03*
G01*
X-2411780Y1096670D03*
D13*
G01*
X-2411780Y1350670D03*
D14*
G01*
X-1143000Y1778000D03*
G01*
X-381000Y1778000D03*
G01*
X381000Y1778000D03*
G01*
X1143000Y1778000D03*
D12*
G01*
X1944370Y-2007107D03*
G01*
X2198370Y-2007107D03*
G01*
X2452370Y-2007107D03*
G01*
X2706370Y-2007107D03*
G01*
X2960370Y-2007107D03*
G01*
X2960370Y-3505707D03*
G01*
X2706370Y-3505707D03*
G01*
X2452370Y-3505707D03*
G01*
X2198370Y-3505707D03*
G01*
X1944370Y-3505707D03*
G01*
X1690370Y-3505707D03*
G01*
X1690370Y-2007107D03*
D15*
G01*
X558800Y-3537508D03*
G01*
X50800Y-3537508D03*
G01*
X-457200Y-3537508D03*
G01*
X-965200Y-3537508D03*
G01*
X-1473200Y-3537508D03*
G01*
X-1981200Y-3537508D03*
G01*
X-2489200Y-3537508D03*
G01*
X-2743200Y-2013508D03*
G01*
X-2235200Y-2013508D03*
G01*
X-1727200Y-2013508D03*
G01*
X-1219200Y-2013508D03*
G01*
X-711200Y-2013508D03*
G01*
X-203200Y-2013508D03*
G01*
X304800Y-2013508D03*
G01*
X558800Y-2013508D03*
G01*
X50800Y-2013508D03*
G01*
X-457200Y-2013508D03*
G01*
X-965200Y-2013508D03*
G01*
X-1473200Y-2013508D03*
G01*
X-1981200Y-2013508D03*
G01*
X-2489200Y-2013508D03*
G01*
X-2743200Y-3537508D03*
G01*
X-2235200Y-3537508D03*
G01*
X-1727200Y-3537508D03*
G01*
X-1219200Y-3537508D03*
G01*
X-711200Y-3537508D03*
G01*
X-203200Y-3537508D03*
G01*
X304800Y-3537508D03*
D16*
G01*
X812800Y-3537534D03*
G01*
X812800Y-2013534D03*
D18*
G01*
X381000Y-4318000D03*
D19*
G01*
X635000Y-4318000D03*
G01*
X889000Y-4318000D03*
G01*
X1143000Y-4318000D03*
D18*
G01*
X-1143000Y-4318000D03*
D19*
G01*
X-889000Y-4318000D03*
G01*
X-635000Y-4318000D03*
G01*
X-381000Y-4318000D03*
G01*
X-635000Y-1270000D03*
G01*
X-889000Y-1270000D03*
G01*
X-1143000Y-1270000D03*
G01*
X-1397000Y-1270000D03*
G01*
X-1651000Y-1270000D03*
D18*
G01*
X-1905000Y-1270000D03*
D19*
G01*
X1905000Y-1270000D03*
G01*
X1651000Y-1270000D03*
G01*
X1397000Y-1270000D03*
G01*
X1143000Y-1270000D03*
G01*
X889000Y-1270000D03*
D18*
G01*
X635000Y-1270000D03*
D20*
G01*
X2540000Y-1397000D03*
D21*
G01*
X2540000Y-1143000D03*
D20*
G01*
X-2540000Y-1397000D03*
D21*
G01*
X-2540000Y-1143000D03*
D22*
G01*
X708355Y-1791512D03*
G01*
X626186Y-1560195D03*
G01*
X2198370Y-1128191D03*
M02*
