G04 Layer: TopSilkscreenLayer*
G04 EasyEDA v6.5.51, 2025-09-10 15:25:43*
G04 7811fd6da6e84b80a6dd4c2e862b6bcc,8ef3a173406043228c96bdea823fb63d,10*
G04 Gerber Generator version 0.2*
G04 Scale: 100 percent, Rotated: No, Reflected: No *
G04 Dimensions in millimeters *
G04 leading zeros omitted , absolute positions ,4 integer and 5 decimal *
%FSLAX45Y45*%
%MOMM*%

%ADD10C,0.1500*%
%ADD11C,0.1524*%
%ADD12C,0.2540*%
%ADD13C,0.2032*%
%ADD14C,0.2030*%
%ADD15C,0.0138*%

%LPD*%
G36*
X-3337001Y799998D02*
G01*
X-3380384Y799947D01*
X-3499865Y715619D01*
X-3498494Y686308D01*
G37*
G36*
X-3196132Y799998D02*
G01*
X-3499865Y586232D01*
X-3498494Y556920D01*
X-3153003Y799998D01*
G37*
G36*
X-3011830Y799998D02*
G01*
X-3016605Y797509D01*
X-3499865Y457200D01*
X-3498494Y427583D01*
X-2970580Y799084D01*
X-2970580Y799998D01*
G37*
G36*
X-2829407Y799998D02*
G01*
X-3499865Y328168D01*
X-3498494Y298551D01*
X-2792526Y795477D01*
X-2785465Y799998D01*
G37*
G36*
X-2645511Y799998D02*
G01*
X-3499865Y198831D01*
X-3498494Y169519D01*
X-2603906Y799134D01*
X-2603906Y799998D01*
G37*
G36*
X-2418842Y799998D02*
G01*
X-2462377Y799896D01*
X-3498494Y70561D01*
X-3500018Y39624D01*
X-3497884Y40538D01*
G37*
G36*
X-2278430Y799998D02*
G01*
X-3498494Y-58470D01*
X-3499916Y-89458D01*
X-3493109Y-85445D01*
X-2234844Y799998D01*
G37*
G36*
X-2052167Y799998D02*
G01*
X-2095652Y799896D01*
X-3499865Y-188620D01*
X-3498494Y-218186D01*
X-2053843Y798322D01*
G37*
G36*
X-1911248Y799998D02*
G01*
X-3499865Y-317957D01*
X-3498494Y-347218D01*
X-1868170Y799998D01*
G37*
G36*
X-1727250Y799998D02*
G01*
X-1739544Y791514D01*
X-3499865Y-447293D01*
X-3498494Y-476605D01*
X-1687118Y798068D01*
X-1685493Y799998D01*
G37*
G36*
X-1522780Y799998D02*
G01*
X-1544370Y799947D01*
X-3499865Y-576326D01*
X-3498494Y-605942D01*
X-1509928Y793292D01*
X-1501190Y799998D01*
G37*
G36*
X-1360576Y799998D02*
G01*
X-3499865Y-705358D01*
X-3498494Y-734974D01*
X-1319174Y798677D01*
X-1319174Y799998D01*
G37*
G36*
X-1175816Y799998D02*
G01*
X-1180693Y797509D01*
X-3443935Y-795426D01*
X-3451098Y-799896D01*
X-3407460Y-799896D01*
X-1143203Y793292D01*
X-1134465Y799998D01*
G37*
G36*
X-993140Y799998D02*
G01*
X-3265881Y-799388D01*
X-3225698Y-799998D01*
X-3219754Y-797407D01*
X-956614Y795477D01*
X-949452Y799998D01*
G37*
G36*
X-809447Y799998D02*
G01*
X-836117Y781507D01*
X-3079140Y-797001D01*
X-3081934Y-799998D01*
X-3039059Y-799388D01*
X-769772Y797509D01*
X-767384Y799998D01*
G37*
G36*
X-626414Y799998D02*
G01*
X-2899206Y-799388D01*
X-2856788Y-799998D01*
X-2855569Y-799388D01*
X-583031Y799998D01*
G37*
G36*
X-442722Y799998D02*
G01*
X-2714650Y-798880D01*
X-2714650Y-799998D01*
X-2672384Y-799388D01*
X-403098Y797509D01*
X-400659Y799998D01*
G37*
G36*
X-258317Y799998D02*
G01*
X-265379Y795477D01*
X-2488844Y-769416D01*
X-2532380Y-799896D01*
X-2489301Y-799896D01*
X-218236Y798474D01*
X-216306Y799998D01*
G37*
G36*
X-75438Y799998D02*
G01*
X-2346706Y-798220D01*
X-2348331Y-799896D01*
X-2304846Y-799846D01*
X-43078Y792226D01*
X-31750Y799998D01*
G37*
G36*
X108356Y799998D02*
G01*
X101346Y795477D01*
X-2165654Y-799896D01*
X-2122119Y-799896D01*
X150114Y799134D01*
X150114Y799998D01*
G37*
G36*
X291642Y799998D02*
G01*
X-1981047Y-799388D01*
X-1938782Y-799998D01*
X328168Y795477D01*
X335280Y799998D01*
G37*
G36*
X475538Y799998D02*
G01*
X-1796643Y-799033D01*
X-1796643Y-799998D01*
X-1754225Y-799388D01*
X516635Y798474D01*
X516788Y799998D01*
G37*
G36*
X701802Y799998D02*
G01*
X658317Y799896D01*
X-1603451Y-792124D01*
X-1614779Y-799896D01*
X-1571142Y-799896D01*
X700176Y798322D01*
G37*
G36*
X842264Y799998D02*
G01*
X-1429918Y-798982D01*
X-1429918Y-799998D01*
X-1387094Y-799388D01*
X885698Y799998D01*
G37*
G36*
X1026363Y799998D02*
G01*
X1019403Y795477D01*
X-1223873Y-783386D01*
X-1247749Y-799896D01*
X-1204417Y-799896D01*
X1066850Y798322D01*
X1068527Y799998D01*
G37*
G36*
X1231290Y799998D02*
G01*
X1209598Y799947D01*
X-1057097Y-795172D01*
X-1063396Y-799896D01*
X-1020165Y-799846D01*
X1252931Y799998D01*
G37*
G36*
X1393545Y799998D02*
G01*
X1373936Y786485D01*
X-878636Y-798779D01*
X-878636Y-799998D01*
X-836066Y-799388D01*
X1434693Y798474D01*
X1434795Y799998D01*
G37*
G36*
X1597914Y799998D02*
G01*
X1576324Y799947D01*
X-690372Y-795172D01*
X-696671Y-799896D01*
X-653440Y-799896D01*
X1610766Y793292D01*
X1619504Y799998D01*
G37*
G36*
X1760423Y799998D02*
G01*
X-510692Y-798169D01*
X-512419Y-799998D01*
X-469392Y-799388D01*
X1801418Y798474D01*
X1801520Y799998D01*
G37*
G36*
X1944573Y799998D02*
G01*
X1917852Y781507D01*
X-325170Y-797001D01*
X-327964Y-799998D01*
X-285546Y-799388D01*
X1986127Y799236D01*
X1986127Y799998D01*
G37*
G36*
X2127605Y799998D02*
G01*
X-136601Y-793191D01*
X-145338Y-799896D01*
X-102158Y-799846D01*
X2171090Y799998D01*
G37*
G36*
X2311247Y799998D02*
G01*
X2284577Y781507D01*
X41554Y-797001D01*
X38760Y-799998D01*
X81584Y-799388D01*
X2350922Y797509D01*
X2353360Y799998D01*
G37*
G36*
X2537815Y799998D02*
G01*
X2494330Y799947D01*
X221386Y-799896D01*
X264566Y-799846D01*
G37*
G36*
X2678582Y799998D02*
G01*
X407314Y-798220D01*
X405587Y-799998D01*
X448818Y-799388D01*
X2721508Y799998D01*
G37*
G36*
X2862376Y799998D02*
G01*
X2855315Y795477D01*
X588365Y-799896D01*
X631901Y-799896D01*
X2904083Y799084D01*
X2904083Y799998D01*
G37*
G36*
X3045256Y799998D02*
G01*
X773988Y-798220D01*
X772363Y-799896D01*
X815848Y-799846D01*
X3077616Y792226D01*
X3088944Y799998D01*
G37*
G36*
X3229356Y799998D02*
G01*
X3219704Y793496D01*
X959256Y-797306D01*
X956818Y-799896D01*
X998575Y-799896D01*
X3270808Y799134D01*
X3270808Y799998D01*
G37*
G36*
X3455670Y799998D02*
G01*
X3412337Y799896D01*
X1150569Y-792124D01*
X1139190Y-799896D01*
X1182522Y-799896D01*
X3439414Y788314D01*
G37*
G36*
X3498240Y731012D02*
G01*
X1325270Y-798068D01*
X1323594Y-799998D01*
X1366926Y-799388D01*
X3499713Y701446D01*
X3499713Y731012D01*
G37*
G36*
X3498443Y602183D02*
G01*
X1506067Y-799896D01*
X1549552Y-799896D01*
X3498443Y571500D01*
X3499967Y591566D01*
G37*
G36*
X3498443Y472795D02*
G01*
X1690624Y-799388D01*
X1731010Y-799998D01*
X1736801Y-797407D01*
X3494024Y439521D01*
X3499815Y443992D01*
G37*
G36*
X3498443Y343458D02*
G01*
X1875332Y-798779D01*
X1875332Y-799998D01*
X1917446Y-799388D01*
X3499815Y314147D01*
G37*
G36*
X3498443Y214426D02*
G01*
X2056993Y-799896D01*
X2100529Y-799896D01*
X3499815Y184810D01*
G37*
G36*
X3498443Y85394D02*
G01*
X2242058Y-798779D01*
X2242058Y-799998D01*
X2284628Y-799388D01*
X3499815Y55778D01*
G37*
G36*
X3498443Y-43942D02*
G01*
X2423922Y-799896D01*
X2467254Y-799896D01*
X3499815Y-73253D01*
G37*
G36*
X3498443Y-173329D02*
G01*
X2608783Y-799388D01*
X2648966Y-799998D01*
X2654909Y-797407D01*
X3499815Y-202641D01*
G37*
G36*
X3498443Y-302361D02*
G01*
X2793339Y-798576D01*
X2793339Y-799998D01*
X2835605Y-799388D01*
X3499815Y-331978D01*
G37*
G36*
X3498443Y-431393D02*
G01*
X2975051Y-799896D01*
X3018536Y-799846D01*
X3499815Y-461009D01*
G37*
G36*
X3498443Y-560730D02*
G01*
X3160064Y-798880D01*
X3160064Y-799998D01*
X3202279Y-799388D01*
X3499815Y-590042D01*
G37*
G36*
X3499104Y-689914D02*
G01*
X3498443Y-689965D01*
X3342487Y-799896D01*
X3385464Y-799896D01*
X3499713Y-719429D01*
X3499713Y-689914D01*
G37*
D10*
X584972Y-4047489D02*
G01*
X584972Y-4092955D01*
X625866Y-4097528D01*
X621294Y-4092955D01*
X616722Y-4079494D01*
X616722Y-4065778D01*
X621294Y-4052062D01*
X630438Y-4042918D01*
X643900Y-4038345D01*
X653044Y-4038345D01*
X666760Y-4042918D01*
X675904Y-4052062D01*
X680476Y-4065778D01*
X680476Y-4079494D01*
X675904Y-4092955D01*
X671332Y-4097528D01*
X662188Y-4102100D01*
X584972Y-4008373D02*
G01*
X680476Y-3972052D01*
X584972Y-3935729D02*
G01*
X680476Y-3972052D01*
X353557Y-4034025D02*
G01*
X344413Y-4038343D01*
X335523Y-4047487D01*
X330951Y-4056631D01*
X330951Y-4074919D01*
X335523Y-4083809D01*
X344413Y-4092953D01*
X353557Y-4097525D01*
X367273Y-4102097D01*
X389879Y-4102097D01*
X403595Y-4097525D01*
X412739Y-4092953D01*
X421883Y-4083809D01*
X426455Y-4074919D01*
X426455Y-4056631D01*
X421883Y-4047487D01*
X412739Y-4038343D01*
X403595Y-4034025D01*
X389879Y-4034025D01*
X389879Y-4056631D02*
G01*
X389879Y-4034025D01*
X330951Y-4003799D02*
G01*
X426455Y-4003799D01*
X330951Y-4003799D02*
G01*
X426455Y-3940299D01*
X330951Y-3940299D02*
G01*
X426455Y-3940299D01*
X330951Y-3910327D02*
G01*
X426455Y-3910327D01*
X330951Y-3910327D02*
G01*
X330951Y-3878577D01*
X335523Y-3864861D01*
X344413Y-3855717D01*
X353557Y-3851145D01*
X367273Y-3846573D01*
X389879Y-3846573D01*
X403595Y-3851145D01*
X412739Y-3855717D01*
X421883Y-3864861D01*
X426455Y-3878577D01*
X426455Y-3910327D01*
X852423Y-4038345D02*
G01*
X843534Y-4047489D01*
X838962Y-4061205D01*
X838962Y-4079494D01*
X843534Y-4092955D01*
X852423Y-4102100D01*
X861568Y-4102100D01*
X870712Y-4097528D01*
X875284Y-4092955D01*
X879855Y-4083812D01*
X889000Y-4056634D01*
X893318Y-4047489D01*
X897889Y-4042918D01*
X907034Y-4038345D01*
X920750Y-4038345D01*
X929894Y-4047489D01*
X934465Y-4061205D01*
X934465Y-4079494D01*
X929894Y-4092955D01*
X920750Y-4102100D01*
X838962Y-4008373D02*
G01*
X934465Y-4008373D01*
X838962Y-4008373D02*
G01*
X838962Y-3976623D01*
X843534Y-3962907D01*
X852423Y-3954018D01*
X861568Y-3949445D01*
X875284Y-3944873D01*
X897889Y-3944873D01*
X911605Y-3949445D01*
X920750Y-3954018D01*
X929894Y-3962907D01*
X934465Y-3976623D01*
X934465Y-4008373D01*
X838962Y-3878579D02*
G01*
X934465Y-3914902D01*
X838962Y-3878579D02*
G01*
X934465Y-3842004D01*
X902462Y-3901186D02*
G01*
X902462Y-3855720D01*
X1106423Y-4038345D02*
G01*
X1097534Y-4047489D01*
X1092962Y-4061205D01*
X1092962Y-4079494D01*
X1097534Y-4092955D01*
X1106423Y-4102100D01*
X1115568Y-4102100D01*
X1124712Y-4097528D01*
X1129284Y-4092955D01*
X1133855Y-4083812D01*
X1143000Y-4056634D01*
X1147318Y-4047489D01*
X1151889Y-4042918D01*
X1161034Y-4038345D01*
X1174750Y-4038345D01*
X1183894Y-4047489D01*
X1188465Y-4061205D01*
X1188465Y-4079494D01*
X1183894Y-4092955D01*
X1174750Y-4102100D01*
X1115568Y-3940302D02*
G01*
X1106423Y-3944873D01*
X1097534Y-3954018D01*
X1092962Y-3962907D01*
X1092962Y-3981195D01*
X1097534Y-3990339D01*
X1106423Y-3999484D01*
X1115568Y-4003802D01*
X1129284Y-4008373D01*
X1151889Y-4008373D01*
X1165605Y-4003802D01*
X1174750Y-3999484D01*
X1183894Y-3990339D01*
X1188465Y-3981195D01*
X1188465Y-3962907D01*
X1183894Y-3954018D01*
X1174750Y-3944873D01*
X1165605Y-3940302D01*
X1092962Y-3910329D02*
G01*
X1188465Y-3910329D01*
X1188465Y-3910329D02*
G01*
X1188465Y-3855720D01*
X-1193027Y-4065778D02*
G01*
X-1097523Y-4102100D01*
X-1193027Y-4065778D02*
G01*
X-1097523Y-4029455D01*
X-1129527Y-4088384D02*
G01*
X-1129527Y-4042918D01*
X-1193027Y-3972052D02*
G01*
X-1188455Y-3985768D01*
X-1174993Y-3994912D01*
X-1152133Y-3999484D01*
X-1138671Y-3999484D01*
X-1115811Y-3994912D01*
X-1102095Y-3985768D01*
X-1097523Y-3972052D01*
X-1097523Y-3962907D01*
X-1102095Y-3949445D01*
X-1115811Y-3940302D01*
X-1138671Y-3935729D01*
X-1152133Y-3935729D01*
X-1174993Y-3940302D01*
X-1188455Y-3949445D01*
X-1193027Y-3962907D01*
X-1193027Y-3972052D01*
X-939030Y-4065780D02*
G01*
X-843526Y-4102102D01*
X-939030Y-4065780D02*
G01*
X-843526Y-4029458D01*
X-875530Y-4088386D02*
G01*
X-875530Y-4042920D01*
X-920996Y-3999486D02*
G01*
X-925568Y-3990342D01*
X-939030Y-3976626D01*
X-843526Y-3976626D01*
X-685027Y-4065778D02*
G01*
X-589523Y-4102100D01*
X-685027Y-4065778D02*
G01*
X-589523Y-4029455D01*
X-621527Y-4088384D02*
G01*
X-621527Y-4042918D01*
X-662421Y-3994912D02*
G01*
X-666993Y-3994912D01*
X-675883Y-3990339D01*
X-680455Y-3985768D01*
X-685027Y-3976623D01*
X-685027Y-3958589D01*
X-680455Y-3949445D01*
X-675883Y-3944873D01*
X-666993Y-3940302D01*
X-657849Y-3940302D01*
X-648705Y-3944873D01*
X-634989Y-3954018D01*
X-589523Y-3999484D01*
X-589523Y-3935729D01*
X-431027Y-4065778D02*
G01*
X-335523Y-4102100D01*
X-431027Y-4065778D02*
G01*
X-335523Y-4029455D01*
X-367527Y-4088384D02*
G01*
X-367527Y-4042918D01*
X-431027Y-3990339D02*
G01*
X-431027Y-3940302D01*
X-394705Y-3967479D01*
X-394705Y-3954018D01*
X-390133Y-3944873D01*
X-385561Y-3940302D01*
X-372099Y-3935729D01*
X-362955Y-3935729D01*
X-349239Y-3940302D01*
X-340095Y-3949445D01*
X-335523Y-3962907D01*
X-335523Y-3976623D01*
X-340095Y-3990339D01*
X-344667Y-3994912D01*
X-353811Y-3999484D01*
X1854962Y-1657604D02*
G01*
X1950465Y-1657604D01*
X1854962Y-1657604D02*
G01*
X1950465Y-1621281D01*
X1854962Y-1584960D02*
G01*
X1950465Y-1621281D01*
X1854962Y-1584960D02*
G01*
X1950465Y-1584960D01*
X1868423Y-1514094D02*
G01*
X1950465Y-1514094D01*
X1909318Y-1554987D02*
G01*
X1909318Y-1472945D01*
X1600962Y-1657601D02*
G01*
X1696465Y-1657601D01*
X1600962Y-1657601D02*
G01*
X1696465Y-1621279D01*
X1600962Y-1584957D02*
G01*
X1696465Y-1621279D01*
X1600962Y-1584957D02*
G01*
X1696465Y-1584957D01*
X1655318Y-1554985D02*
G01*
X1655318Y-1472943D01*
X1115557Y-1660395D02*
G01*
X1106413Y-1664713D01*
X1097523Y-1673857D01*
X1092951Y-1683001D01*
X1092951Y-1701289D01*
X1097523Y-1710179D01*
X1106413Y-1719323D01*
X1115557Y-1723895D01*
X1129273Y-1728467D01*
X1151879Y-1728467D01*
X1165595Y-1723895D01*
X1174739Y-1719323D01*
X1183883Y-1710179D01*
X1188455Y-1701289D01*
X1188455Y-1683001D01*
X1183883Y-1673857D01*
X1174739Y-1664713D01*
X1165595Y-1660395D01*
X1151879Y-1660395D01*
X1151879Y-1683001D02*
G01*
X1151879Y-1660395D01*
X1092951Y-1630169D02*
G01*
X1188455Y-1630169D01*
X1092951Y-1630169D02*
G01*
X1188455Y-1566669D01*
X1092951Y-1566669D02*
G01*
X1188455Y-1566669D01*
X1092951Y-1536697D02*
G01*
X1188455Y-1536697D01*
X1092951Y-1536697D02*
G01*
X1092951Y-1504947D01*
X1097523Y-1491231D01*
X1106413Y-1482087D01*
X1115557Y-1477515D01*
X1129273Y-1472943D01*
X1151879Y-1472943D01*
X1165595Y-1477515D01*
X1174739Y-1482087D01*
X1183883Y-1491231D01*
X1188455Y-1504947D01*
X1188455Y-1536697D01*
X1346972Y-1584705D02*
G01*
X1346972Y-1630171D01*
X1387866Y-1634744D01*
X1383294Y-1630171D01*
X1378722Y-1616710D01*
X1378722Y-1602994D01*
X1383294Y-1589278D01*
X1392438Y-1580134D01*
X1405900Y-1575562D01*
X1415044Y-1575562D01*
X1428760Y-1580134D01*
X1437904Y-1589278D01*
X1442476Y-1602994D01*
X1442476Y-1616710D01*
X1437904Y-1630171D01*
X1433332Y-1634744D01*
X1424188Y-1639315D01*
X1346972Y-1545589D02*
G01*
X1442476Y-1509268D01*
X1346972Y-1472945D02*
G01*
X1442476Y-1509268D01*
X838962Y-1509270D02*
G01*
X934465Y-1545592D01*
X838962Y-1509270D02*
G01*
X934465Y-1472948D01*
X902462Y-1531876D02*
G01*
X902462Y-1486410D01*
X584962Y-1536700D02*
G01*
X680465Y-1536700D01*
X584962Y-1536700D02*
G01*
X584962Y-1495805D01*
X589534Y-1482089D01*
X594105Y-1477518D01*
X602995Y-1472945D01*
X612139Y-1472945D01*
X621284Y-1477518D01*
X625855Y-1482089D01*
X630428Y-1495805D01*
X630428Y-1536700D02*
G01*
X630428Y-1495805D01*
X635000Y-1482089D01*
X639318Y-1477518D01*
X648462Y-1472945D01*
X662178Y-1472945D01*
X671321Y-1477518D01*
X675894Y-1482089D01*
X680465Y-1495805D01*
X680465Y-1536700D01*
X-1955037Y-1536700D02*
G01*
X-1859534Y-1536700D01*
X-1955037Y-1536700D02*
G01*
X-1955037Y-1495805D01*
X-1950465Y-1482089D01*
X-1945894Y-1477518D01*
X-1937004Y-1472945D01*
X-1927860Y-1472945D01*
X-1918715Y-1477518D01*
X-1914144Y-1482089D01*
X-1909571Y-1495805D01*
X-1909571Y-1536700D02*
G01*
X-1909571Y-1495805D01*
X-1905000Y-1482089D01*
X-1900681Y-1477518D01*
X-1891537Y-1472945D01*
X-1877821Y-1472945D01*
X-1868678Y-1477518D01*
X-1864105Y-1482089D01*
X-1859534Y-1495805D01*
X-1859534Y-1536700D01*
X-1701037Y-1509270D02*
G01*
X-1605534Y-1545592D01*
X-1701037Y-1509270D02*
G01*
X-1605534Y-1472948D01*
X-1637537Y-1531876D02*
G01*
X-1637537Y-1486410D01*
X-1193027Y-1584705D02*
G01*
X-1193027Y-1630171D01*
X-1152133Y-1634744D01*
X-1156705Y-1630171D01*
X-1161277Y-1616710D01*
X-1161277Y-1602994D01*
X-1156705Y-1589278D01*
X-1147561Y-1580134D01*
X-1134099Y-1575562D01*
X-1124955Y-1575562D01*
X-1111239Y-1580134D01*
X-1102095Y-1589278D01*
X-1097523Y-1602994D01*
X-1097523Y-1616710D01*
X-1102095Y-1630171D01*
X-1106667Y-1634744D01*
X-1115811Y-1639315D01*
X-1193027Y-1545589D02*
G01*
X-1097523Y-1509268D01*
X-1193027Y-1472945D02*
G01*
X-1097523Y-1509268D01*
X-939037Y-1657601D02*
G01*
X-843534Y-1657601D01*
X-939037Y-1657601D02*
G01*
X-843534Y-1621279D01*
X-939037Y-1584957D02*
G01*
X-843534Y-1621279D01*
X-939037Y-1584957D02*
G01*
X-843534Y-1584957D01*
X-884681Y-1554985D02*
G01*
X-884681Y-1472943D01*
X-685037Y-1657604D02*
G01*
X-589534Y-1657604D01*
X-685037Y-1657604D02*
G01*
X-589534Y-1621281D01*
X-685037Y-1584960D02*
G01*
X-589534Y-1621281D01*
X-685037Y-1584960D02*
G01*
X-589534Y-1584960D01*
X-671576Y-1514094D02*
G01*
X-589534Y-1514094D01*
X-630681Y-1554987D02*
G01*
X-630681Y-1472945D01*
X-1424442Y-1660395D02*
G01*
X-1433586Y-1664713D01*
X-1442476Y-1673857D01*
X-1447048Y-1683001D01*
X-1447048Y-1701289D01*
X-1442476Y-1710179D01*
X-1433586Y-1719323D01*
X-1424442Y-1723895D01*
X-1410726Y-1728467D01*
X-1388120Y-1728467D01*
X-1374404Y-1723895D01*
X-1365260Y-1719323D01*
X-1356116Y-1710179D01*
X-1351544Y-1701289D01*
X-1351544Y-1683001D01*
X-1356116Y-1673857D01*
X-1365260Y-1664713D01*
X-1374404Y-1660395D01*
X-1388120Y-1660395D01*
X-1388120Y-1683001D02*
G01*
X-1388120Y-1660395D01*
X-1447048Y-1630169D02*
G01*
X-1351544Y-1630169D01*
X-1447048Y-1630169D02*
G01*
X-1351544Y-1566669D01*
X-1447048Y-1566669D02*
G01*
X-1351544Y-1566669D01*
X-1447048Y-1536697D02*
G01*
X-1351544Y-1536697D01*
X-1447048Y-1536697D02*
G01*
X-1447048Y-1504947D01*
X-1442476Y-1491231D01*
X-1433586Y-1482087D01*
X-1424442Y-1477515D01*
X-1410726Y-1472943D01*
X-1388120Y-1472943D01*
X-1374404Y-1477515D01*
X-1365260Y-1482087D01*
X-1356116Y-1491231D01*
X-1351544Y-1504947D01*
X-1351544Y-1536697D01*
X2743200Y-1346962D02*
G01*
X2779522Y-1442465D01*
X2815843Y-1346962D02*
G01*
X2779522Y-1442465D01*
X2914141Y-1369568D02*
G01*
X2909570Y-1360423D01*
X2900425Y-1351534D01*
X2891281Y-1346962D01*
X2873247Y-1346962D01*
X2864104Y-1351534D01*
X2854959Y-1360423D01*
X2850388Y-1369568D01*
X2845815Y-1383284D01*
X2845815Y-1405889D01*
X2850388Y-1419605D01*
X2854959Y-1428750D01*
X2864104Y-1437894D01*
X2873247Y-1442465D01*
X2891281Y-1442465D01*
X2900425Y-1437894D01*
X2909570Y-1428750D01*
X2914141Y-1419605D01*
X3012186Y-1369568D02*
G01*
X3007868Y-1360423D01*
X2998724Y-1351534D01*
X2989579Y-1346962D01*
X2971291Y-1346962D01*
X2962402Y-1351534D01*
X2953258Y-1360423D01*
X2948686Y-1369568D01*
X2944113Y-1383284D01*
X2944113Y-1405889D01*
X2948686Y-1419605D01*
X2953258Y-1428750D01*
X2962402Y-1437894D01*
X2971291Y-1442465D01*
X2989579Y-1442465D01*
X2998724Y-1437894D01*
X3007868Y-1428750D01*
X3012186Y-1419605D01*
X3042411Y-1474215D02*
G01*
X3124200Y-1474215D01*
X3154172Y-1346962D02*
G01*
X3154172Y-1442465D01*
X3154172Y-1346962D02*
G01*
X3190493Y-1442465D01*
X3226815Y-1346962D02*
G01*
X3190493Y-1442465D01*
X3226815Y-1346962D02*
G01*
X3226815Y-1442465D01*
X2811272Y-1115568D02*
G01*
X2806954Y-1106423D01*
X2797809Y-1097534D01*
X2788665Y-1092962D01*
X2770377Y-1092962D01*
X2761488Y-1097534D01*
X2752343Y-1106423D01*
X2747772Y-1115568D01*
X2743200Y-1129284D01*
X2743200Y-1151889D01*
X2747772Y-1165605D01*
X2752343Y-1174750D01*
X2761488Y-1183894D01*
X2770377Y-1188465D01*
X2788665Y-1188465D01*
X2797809Y-1183894D01*
X2806954Y-1174750D01*
X2811272Y-1165605D01*
X2811272Y-1151889D01*
X2788665Y-1151889D02*
G01*
X2811272Y-1151889D01*
X2841497Y-1092962D02*
G01*
X2841497Y-1188465D01*
X2841497Y-1092962D02*
G01*
X2904997Y-1188465D01*
X2904997Y-1092962D02*
G01*
X2904997Y-1188465D01*
X2934970Y-1092962D02*
G01*
X2934970Y-1188465D01*
X2934970Y-1092962D02*
G01*
X2966720Y-1092962D01*
X2980436Y-1097534D01*
X2989579Y-1106423D01*
X2994152Y-1115568D01*
X2998724Y-1129284D01*
X2998724Y-1151889D01*
X2994152Y-1165605D01*
X2989579Y-1174750D01*
X2980436Y-1183894D01*
X2966720Y-1188465D01*
X2934970Y-1188465D01*
X-2929887Y-1346962D02*
G01*
X-2975353Y-1346962D01*
X-2979925Y-1387855D01*
X-2975353Y-1383284D01*
X-2961891Y-1378712D01*
X-2948175Y-1378712D01*
X-2934459Y-1383284D01*
X-2925315Y-1392428D01*
X-2920743Y-1405889D01*
X-2920743Y-1415034D01*
X-2925315Y-1428750D01*
X-2934459Y-1437894D01*
X-2948175Y-1442465D01*
X-2961891Y-1442465D01*
X-2975353Y-1437894D01*
X-2979925Y-1433321D01*
X-2984497Y-1424178D01*
X-2890771Y-1346962D02*
G01*
X-2854449Y-1442465D01*
X-2818127Y-1346962D02*
G01*
X-2854449Y-1442465D01*
X-2747261Y-1360423D02*
G01*
X-2747261Y-1442465D01*
X-2788155Y-1401318D02*
G01*
X-2706367Y-1401318D01*
X-2916425Y-1115568D02*
G01*
X-2920743Y-1106423D01*
X-2929887Y-1097534D01*
X-2939031Y-1092962D01*
X-2957319Y-1092962D01*
X-2966209Y-1097534D01*
X-2975353Y-1106423D01*
X-2979925Y-1115568D01*
X-2984497Y-1129284D01*
X-2984497Y-1151889D01*
X-2979925Y-1165605D01*
X-2975353Y-1174750D01*
X-2966209Y-1183894D01*
X-2957319Y-1188465D01*
X-2939031Y-1188465D01*
X-2929887Y-1183894D01*
X-2920743Y-1174750D01*
X-2916425Y-1165605D01*
X-2916425Y-1151889D01*
X-2939031Y-1151889D02*
G01*
X-2916425Y-1151889D01*
X-2886199Y-1092962D02*
G01*
X-2886199Y-1188465D01*
X-2886199Y-1092962D02*
G01*
X-2822699Y-1188465D01*
X-2822699Y-1092962D02*
G01*
X-2822699Y-1188465D01*
X-2792727Y-1092962D02*
G01*
X-2792727Y-1188465D01*
X-2792727Y-1092962D02*
G01*
X-2760977Y-1092962D01*
X-2747261Y-1097534D01*
X-2738117Y-1106423D01*
X-2733545Y-1115568D01*
X-2728973Y-1129284D01*
X-2728973Y-1151889D01*
X-2733545Y-1165605D01*
X-2738117Y-1174750D01*
X-2747261Y-1183894D01*
X-2760977Y-1188465D01*
X-2792727Y-1188465D01*
X-391924Y4025137D02*
G01*
X-396242Y4034281D01*
X-405386Y4043171D01*
X-414530Y4047744D01*
X-432818Y4047744D01*
X-441708Y4043171D01*
X-450852Y4034281D01*
X-455424Y4025137D01*
X-459996Y4011421D01*
X-459996Y3988815D01*
X-455424Y3975100D01*
X-450852Y3965955D01*
X-441708Y3956812D01*
X-432818Y3952239D01*
X-414530Y3952239D01*
X-405386Y3956812D01*
X-396242Y3965955D01*
X-391924Y3975100D01*
X-307342Y4015994D02*
G01*
X-307342Y3952239D01*
X-307342Y4002278D02*
G01*
X-316486Y4011421D01*
X-325376Y4015994D01*
X-339092Y4015994D01*
X-348236Y4011421D01*
X-357380Y4002278D01*
X-361698Y3988815D01*
X-361698Y3979671D01*
X-357380Y3965955D01*
X-348236Y3956812D01*
X-339092Y3952239D01*
X-325376Y3952239D01*
X-316486Y3956812D01*
X-307342Y3965955D01*
X-227332Y4002278D02*
G01*
X-231904Y4011421D01*
X-245366Y4015994D01*
X-259082Y4015994D01*
X-272798Y4011421D01*
X-277370Y4002278D01*
X-272798Y3993387D01*
X-263654Y3988815D01*
X-240794Y3984244D01*
X-231904Y3979671D01*
X-227332Y3970528D01*
X-227332Y3965955D01*
X-231904Y3956812D01*
X-245366Y3952239D01*
X-259082Y3952239D01*
X-272798Y3956812D01*
X-277370Y3965955D01*
X-183644Y4047744D02*
G01*
X-183644Y3970528D01*
X-179072Y3956812D01*
X-169928Y3952239D01*
X-160784Y3952239D01*
X-197360Y4015994D02*
G01*
X-165356Y4015994D01*
X-130812Y3988815D02*
G01*
X-76456Y3988815D01*
X-76456Y3997705D01*
X-81028Y4006850D01*
X-85346Y4011421D01*
X-94490Y4015994D01*
X-108206Y4015994D01*
X-117350Y4011421D01*
X-126240Y4002278D01*
X-130812Y3988815D01*
X-130812Y3979671D01*
X-126240Y3965955D01*
X-117350Y3956812D01*
X-108206Y3952239D01*
X-94490Y3952239D01*
X-85346Y3956812D01*
X-76456Y3965955D01*
X-46484Y4015994D02*
G01*
X-46484Y3952239D01*
X-46484Y3988815D02*
G01*
X-41912Y4002278D01*
X-32768Y4011421D01*
X-23624Y4015994D01*
X-9908Y4015994D01*
X89913Y4047744D02*
G01*
X112773Y3952239D01*
X135379Y4047744D02*
G01*
X112773Y3952239D01*
X135379Y4047744D02*
G01*
X158239Y3952239D01*
X180845Y4047744D02*
G01*
X158239Y3952239D01*
X210817Y4047744D02*
G01*
X210817Y3952239D01*
X210817Y3997705D02*
G01*
X224533Y4011421D01*
X233677Y4015994D01*
X247393Y4015994D01*
X256283Y4011421D01*
X260855Y3997705D01*
X260855Y3952239D01*
X290827Y3988815D02*
G01*
X345437Y3988815D01*
X345437Y3997705D01*
X340865Y4006850D01*
X336293Y4011421D01*
X327149Y4015994D01*
X313687Y4015994D01*
X304543Y4011421D01*
X295399Y4002278D01*
X290827Y3988815D01*
X290827Y3979671D01*
X295399Y3965955D01*
X304543Y3956812D01*
X313687Y3952239D01*
X327149Y3952239D01*
X336293Y3956812D01*
X345437Y3965955D01*
X375409Y3988815D02*
G01*
X430019Y3988815D01*
X430019Y3997705D01*
X425447Y4006850D01*
X420875Y4011421D01*
X411731Y4015994D01*
X398269Y4015994D01*
X389125Y4011421D01*
X379981Y4002278D01*
X375409Y3988815D01*
X375409Y3979671D01*
X379981Y3965955D01*
X389125Y3956812D01*
X398269Y3952239D01*
X411731Y3952239D01*
X420875Y3956812D01*
X430019Y3965955D01*
X459991Y4047744D02*
G01*
X459991Y3952239D01*
X-654933Y2498750D02*
G01*
X-654933Y2403246D01*
X-654933Y2498750D02*
G01*
X-614039Y2498750D01*
X-600323Y2494178D01*
X-595751Y2489606D01*
X-591179Y2480716D01*
X-591179Y2471572D01*
X-595751Y2462428D01*
X-600323Y2457856D01*
X-614039Y2453284D01*
X-654933Y2453284D01*
X-623183Y2453284D02*
G01*
X-591179Y2403246D01*
X-506851Y2467000D02*
G01*
X-506851Y2403246D01*
X-506851Y2453284D02*
G01*
X-515741Y2462428D01*
X-524885Y2467000D01*
X-538601Y2467000D01*
X-547745Y2462428D01*
X-556635Y2453284D01*
X-561207Y2439822D01*
X-561207Y2430678D01*
X-556635Y2416962D01*
X-547745Y2407818D01*
X-538601Y2403246D01*
X-524885Y2403246D01*
X-515741Y2407818D01*
X-506851Y2416962D01*
X-426841Y2453284D02*
G01*
X-431413Y2462428D01*
X-444875Y2467000D01*
X-458591Y2467000D01*
X-472307Y2462428D01*
X-476625Y2453284D01*
X-472307Y2444394D01*
X-463163Y2439822D01*
X-440303Y2435250D01*
X-431413Y2430678D01*
X-426841Y2421534D01*
X-426841Y2416962D01*
X-431413Y2407818D01*
X-444875Y2403246D01*
X-458591Y2403246D01*
X-472307Y2407818D01*
X-476625Y2416962D01*
X-396869Y2467000D02*
G01*
X-396869Y2371496D01*
X-396869Y2453284D02*
G01*
X-387725Y2462428D01*
X-378581Y2467000D01*
X-364865Y2467000D01*
X-355721Y2462428D01*
X-346831Y2453284D01*
X-342259Y2439822D01*
X-342259Y2430678D01*
X-346831Y2416962D01*
X-355721Y2407818D01*
X-364865Y2403246D01*
X-378581Y2403246D01*
X-387725Y2407818D01*
X-396869Y2416962D01*
X-312287Y2498750D02*
G01*
X-312287Y2403246D01*
X-312287Y2453284D02*
G01*
X-303143Y2462428D01*
X-293999Y2467000D01*
X-280283Y2467000D01*
X-271393Y2462428D01*
X-262249Y2453284D01*
X-257677Y2439822D01*
X-257677Y2430678D01*
X-262249Y2416962D01*
X-271393Y2407818D01*
X-280283Y2403246D01*
X-293999Y2403246D01*
X-303143Y2407818D01*
X-312287Y2416962D01*
X-227705Y2439822D02*
G01*
X-173095Y2439822D01*
X-173095Y2448712D01*
X-177667Y2457856D01*
X-182239Y2462428D01*
X-191383Y2467000D01*
X-204845Y2467000D01*
X-213989Y2462428D01*
X-223133Y2453284D01*
X-227705Y2439822D01*
X-227705Y2430678D01*
X-223133Y2416962D01*
X-213989Y2407818D01*
X-204845Y2403246D01*
X-191383Y2403246D01*
X-182239Y2407818D01*
X-173095Y2416962D01*
X-143123Y2467000D02*
G01*
X-143123Y2403246D01*
X-143123Y2439822D02*
G01*
X-138551Y2453284D01*
X-129407Y2462428D01*
X-120263Y2467000D01*
X-106801Y2467000D01*
X-76829Y2467000D02*
G01*
X-76829Y2403246D01*
X-76829Y2439822D02*
G01*
X-72257Y2453284D01*
X-63113Y2462428D01*
X-53969Y2467000D01*
X-40507Y2467000D01*
X-5963Y2467000D02*
G01*
X21468Y2403246D01*
X48646Y2467000D02*
G01*
X21468Y2403246D01*
X12324Y2385212D01*
X3180Y2376068D01*
X-5963Y2371496D01*
X-10281Y2371496D01*
X148722Y2498750D02*
G01*
X148722Y2403246D01*
X148722Y2498750D02*
G01*
X189616Y2498750D01*
X203332Y2494178D01*
X207904Y2489606D01*
X212222Y2480716D01*
X212222Y2467000D01*
X207904Y2457856D01*
X203332Y2453284D01*
X189616Y2448712D01*
X148722Y2448712D01*
X242448Y2498750D02*
G01*
X246766Y2494178D01*
X251338Y2498750D01*
X246766Y2503322D01*
X242448Y2498750D01*
X246766Y2467000D02*
G01*
X246766Y2403246D01*
X415168Y2498750D02*
G01*
X351414Y2403246D01*
X351414Y2498750D02*
G01*
X415168Y2498750D01*
X351414Y2403246D02*
G01*
X415168Y2403246D01*
X445140Y2439822D02*
G01*
X499496Y2439822D01*
X499496Y2448712D01*
X495178Y2457856D01*
X490606Y2462428D01*
X481462Y2467000D01*
X467746Y2467000D01*
X458602Y2462428D01*
X449712Y2453284D01*
X445140Y2439822D01*
X445140Y2430678D01*
X449712Y2416962D01*
X458602Y2407818D01*
X467746Y2403246D01*
X481462Y2403246D01*
X490606Y2407818D01*
X499496Y2416962D01*
X529722Y2467000D02*
G01*
X529722Y2403246D01*
X529722Y2439822D02*
G01*
X534040Y2453284D01*
X543184Y2462428D01*
X552328Y2467000D01*
X566044Y2467000D01*
X618622Y2467000D02*
G01*
X609732Y2462428D01*
X600588Y2453284D01*
X596016Y2439822D01*
X596016Y2430678D01*
X600588Y2416962D01*
X609732Y2407818D01*
X618622Y2403246D01*
X632338Y2403246D01*
X641482Y2407818D01*
X650626Y2416962D01*
X654944Y2430678D01*
X654944Y2439822D01*
X650626Y2453284D01*
X641482Y2462428D01*
X632338Y2467000D01*
X618622Y2467000D01*
D11*
X-762000Y2020315D02*
G01*
X-762000Y1911350D01*
X-762000Y2020315D02*
G01*
X-715263Y2020315D01*
X-699770Y2015236D01*
X-694436Y2009902D01*
X-689355Y1999487D01*
X-689355Y1989073D01*
X-694436Y1978660D01*
X-699770Y1973579D01*
X-715263Y1968500D01*
X-762000Y1968500D01*
X-725678Y1968500D02*
G01*
X-689355Y1911350D01*
X-655065Y1999487D02*
G01*
X-644652Y2004821D01*
X-628904Y2020315D01*
X-628904Y1911350D01*
X762000Y2020315D02*
G01*
X762000Y1911350D01*
X762000Y2020315D02*
G01*
X808736Y2020315D01*
X824229Y2015236D01*
X829563Y2009902D01*
X834644Y1999487D01*
X834644Y1989073D01*
X829563Y1978660D01*
X824229Y1973579D01*
X808736Y1968500D01*
X762000Y1968500D01*
X798321Y1968500D02*
G01*
X834644Y1911350D01*
X874268Y1994407D02*
G01*
X874268Y1999487D01*
X879347Y2009902D01*
X884681Y2015236D01*
X895095Y2020315D01*
X915670Y2020315D01*
X926084Y2015236D01*
X931418Y2009902D01*
X936497Y1999487D01*
X936497Y1989073D01*
X931418Y1978660D01*
X921004Y1963165D01*
X868934Y1911350D01*
X941831Y1911350D01*
D10*
X2019551Y-2727705D02*
G01*
X2019551Y-2823210D01*
X2019551Y-2727705D02*
G01*
X2051301Y-2727705D01*
X2065017Y-2732278D01*
X2074161Y-2741168D01*
X2078733Y-2750312D01*
X2083305Y-2764028D01*
X2083305Y-2786634D01*
X2078733Y-2800350D01*
X2074161Y-2809494D01*
X2065017Y-2818637D01*
X2051301Y-2823210D01*
X2019551Y-2823210D01*
X2113277Y-2727705D02*
G01*
X2113277Y-2823210D01*
X2113277Y-2727705D02*
G01*
X2154171Y-2727705D01*
X2167633Y-2732278D01*
X2172205Y-2736850D01*
X2176777Y-2745739D01*
X2176777Y-2754884D01*
X2172205Y-2764028D01*
X2167633Y-2768600D01*
X2154171Y-2773171D01*
X2113277Y-2773171D01*
X2145027Y-2773171D02*
G01*
X2176777Y-2823210D01*
X2206749Y-2727705D02*
G01*
X2243071Y-2823210D01*
X2279647Y-2727705D02*
G01*
X2243071Y-2823210D01*
X2332225Y-2727705D02*
G01*
X2318763Y-2732278D01*
X2314191Y-2741168D01*
X2314191Y-2750312D01*
X2318763Y-2759455D01*
X2327653Y-2764028D01*
X2345941Y-2768600D01*
X2359657Y-2773171D01*
X2368547Y-2782062D01*
X2373119Y-2791205D01*
X2373119Y-2804921D01*
X2368547Y-2814065D01*
X2363975Y-2818637D01*
X2350513Y-2823210D01*
X2332225Y-2823210D01*
X2318763Y-2818637D01*
X2314191Y-2814065D01*
X2309619Y-2804921D01*
X2309619Y-2791205D01*
X2314191Y-2782062D01*
X2323081Y-2773171D01*
X2336797Y-2768600D01*
X2355085Y-2764028D01*
X2363975Y-2759455D01*
X2368547Y-2750312D01*
X2368547Y-2741168D01*
X2363975Y-2732278D01*
X2350513Y-2727705D01*
X2332225Y-2727705D01*
X2425951Y-2727705D02*
G01*
X2412235Y-2732278D01*
X2407663Y-2741168D01*
X2407663Y-2750312D01*
X2412235Y-2759455D01*
X2421379Y-2764028D01*
X2439667Y-2768600D01*
X2453129Y-2773171D01*
X2462273Y-2782062D01*
X2466845Y-2791205D01*
X2466845Y-2804921D01*
X2462273Y-2814065D01*
X2457701Y-2818637D01*
X2443985Y-2823210D01*
X2425951Y-2823210D01*
X2412235Y-2818637D01*
X2407663Y-2814065D01*
X2403091Y-2804921D01*
X2403091Y-2791205D01*
X2407663Y-2782062D01*
X2416807Y-2773171D01*
X2430523Y-2768600D01*
X2448557Y-2764028D01*
X2457701Y-2759455D01*
X2462273Y-2750312D01*
X2462273Y-2741168D01*
X2457701Y-2732278D01*
X2443985Y-2727705D01*
X2425951Y-2727705D01*
X2505961Y-2727705D02*
G01*
X2555999Y-2727705D01*
X2528567Y-2764028D01*
X2542283Y-2764028D01*
X2551427Y-2768600D01*
X2555999Y-2773171D01*
X2560571Y-2786634D01*
X2560571Y-2795778D01*
X2555999Y-2809494D01*
X2546855Y-2818637D01*
X2533139Y-2823210D01*
X2519677Y-2823210D01*
X2505961Y-2818637D01*
X2501389Y-2814065D01*
X2496817Y-2804921D01*
X2599433Y-2727705D02*
G01*
X2649471Y-2727705D01*
X2622293Y-2764028D01*
X2636009Y-2764028D01*
X2644899Y-2768600D01*
X2649471Y-2773171D01*
X2654043Y-2786634D01*
X2654043Y-2795778D01*
X2649471Y-2809494D01*
X2640581Y-2818637D01*
X2626865Y-2823210D01*
X2613149Y-2823210D01*
X2599433Y-2818637D01*
X2595115Y-2814065D01*
X2590543Y-2804921D01*
X2915409Y-2375407D02*
G01*
X3010913Y-2375407D01*
X2915409Y-2375407D02*
G01*
X2915409Y-2316226D01*
X2960875Y-2375407D02*
G01*
X2960875Y-2339086D01*
X3010913Y-2375407D02*
G01*
X3010913Y-2316226D01*
X2915409Y-2286254D02*
G01*
X3010913Y-2286254D01*
X2915409Y-2286254D02*
G01*
X2915409Y-2227326D01*
X2960875Y-2286254D02*
G01*
X2960875Y-2249931D01*
X3010913Y-2286254D02*
G01*
X3010913Y-2227326D01*
X2915409Y-2197100D02*
G01*
X3010913Y-2197100D01*
X2915409Y-2197100D02*
G01*
X2915409Y-2156205D01*
X2919981Y-2142744D01*
X2924553Y-2138171D01*
X2933443Y-2133600D01*
X2947159Y-2133600D01*
X2956303Y-2138171D01*
X2960875Y-2142744D01*
X2965447Y-2156205D01*
X2965447Y-2197100D01*
X2669537Y-2419093D02*
G01*
X2673855Y-2428237D01*
X2682999Y-2437127D01*
X2692143Y-2441699D01*
X2705859Y-2446271D01*
X2728465Y-2446271D01*
X2742181Y-2441699D01*
X2751325Y-2437127D01*
X2760215Y-2428237D01*
X2764787Y-2419093D01*
X2764787Y-2400805D01*
X2760215Y-2391661D01*
X2751325Y-2382771D01*
X2742181Y-2378199D01*
X2728465Y-2373627D01*
X2705859Y-2373627D01*
X2692143Y-2378199D01*
X2682999Y-2382771D01*
X2673855Y-2391661D01*
X2669537Y-2400805D01*
X2669537Y-2419093D01*
X2669537Y-2343655D02*
G01*
X2737609Y-2343655D01*
X2751325Y-2339083D01*
X2760215Y-2329939D01*
X2764787Y-2316223D01*
X2764787Y-2307333D01*
X2760215Y-2293617D01*
X2751325Y-2284473D01*
X2737609Y-2279901D01*
X2669537Y-2279901D01*
X2669537Y-2218179D02*
G01*
X2764787Y-2218179D01*
X2669537Y-2249929D02*
G01*
X2669537Y-2186429D01*
X2687571Y-2156203D02*
G01*
X2682999Y-2147313D01*
X2669537Y-2133597D01*
X2764787Y-2133597D01*
X2402837Y-2459989D02*
G01*
X2407155Y-2469134D01*
X2416299Y-2478023D01*
X2425443Y-2482595D01*
X2439159Y-2487168D01*
X2461765Y-2487168D01*
X2475481Y-2482595D01*
X2484625Y-2478023D01*
X2493515Y-2469134D01*
X2498087Y-2459989D01*
X2498087Y-2441702D01*
X2493515Y-2432557D01*
X2484625Y-2423668D01*
X2475481Y-2419095D01*
X2461765Y-2414523D01*
X2439159Y-2414523D01*
X2425443Y-2419095D01*
X2416299Y-2423668D01*
X2407155Y-2432557D01*
X2402837Y-2441702D01*
X2402837Y-2459989D01*
X2402837Y-2384552D02*
G01*
X2470909Y-2384552D01*
X2484625Y-2379979D01*
X2493515Y-2370836D01*
X2498087Y-2357120D01*
X2498087Y-2348229D01*
X2493515Y-2334513D01*
X2484625Y-2325370D01*
X2470909Y-2320797D01*
X2402837Y-2320797D01*
X2402837Y-2259076D02*
G01*
X2498087Y-2259076D01*
X2402837Y-2290826D02*
G01*
X2402837Y-2227326D01*
X2425443Y-2192781D02*
G01*
X2420871Y-2192781D01*
X2411727Y-2188210D01*
X2407155Y-2183637D01*
X2402837Y-2174494D01*
X2402837Y-2156205D01*
X2407155Y-2147315D01*
X2411727Y-2142744D01*
X2420871Y-2138171D01*
X2430015Y-2138171D01*
X2439159Y-2142744D01*
X2452621Y-2151887D01*
X2498087Y-2197100D01*
X2498087Y-2133600D01*
X2148837Y-2459989D02*
G01*
X2153155Y-2469134D01*
X2162299Y-2478023D01*
X2171443Y-2482595D01*
X2185159Y-2487168D01*
X2207765Y-2487168D01*
X2221481Y-2482595D01*
X2230625Y-2478023D01*
X2239515Y-2469134D01*
X2244087Y-2459989D01*
X2244087Y-2441702D01*
X2239515Y-2432557D01*
X2230625Y-2423668D01*
X2221481Y-2419095D01*
X2207765Y-2414523D01*
X2185159Y-2414523D01*
X2171443Y-2419095D01*
X2162299Y-2423668D01*
X2153155Y-2432557D01*
X2148837Y-2441702D01*
X2148837Y-2459989D01*
X2148837Y-2384552D02*
G01*
X2216909Y-2384552D01*
X2230625Y-2379979D01*
X2239515Y-2370836D01*
X2244087Y-2357120D01*
X2244087Y-2348229D01*
X2239515Y-2334513D01*
X2230625Y-2325370D01*
X2216909Y-2320797D01*
X2148837Y-2320797D01*
X2148837Y-2259076D02*
G01*
X2244087Y-2259076D01*
X2148837Y-2290826D02*
G01*
X2148837Y-2227326D01*
X2148837Y-2188210D02*
G01*
X2148837Y-2138171D01*
X2185159Y-2165350D01*
X2185159Y-2151887D01*
X2189731Y-2142744D01*
X2194049Y-2138171D01*
X2207765Y-2133600D01*
X2216909Y-2133600D01*
X2230625Y-2138171D01*
X2239515Y-2147315D01*
X2244087Y-2160778D01*
X2244087Y-2174494D01*
X2239515Y-2188210D01*
X2235197Y-2192781D01*
X2226053Y-2197100D01*
X1894837Y-2464559D02*
G01*
X1899155Y-2473703D01*
X1908299Y-2482593D01*
X1917443Y-2487165D01*
X1931159Y-2491737D01*
X1953765Y-2491737D01*
X1967481Y-2487165D01*
X1976625Y-2482593D01*
X1985515Y-2473703D01*
X1990087Y-2464559D01*
X1990087Y-2446271D01*
X1985515Y-2437127D01*
X1976625Y-2428237D01*
X1967481Y-2423665D01*
X1953765Y-2419093D01*
X1931159Y-2419093D01*
X1917443Y-2423665D01*
X1908299Y-2428237D01*
X1899155Y-2437127D01*
X1894837Y-2446271D01*
X1894837Y-2464559D01*
X1894837Y-2389121D02*
G01*
X1962909Y-2389121D01*
X1976625Y-2384549D01*
X1985515Y-2375405D01*
X1990087Y-2361689D01*
X1990087Y-2352799D01*
X1985515Y-2339083D01*
X1976625Y-2329939D01*
X1962909Y-2325367D01*
X1894837Y-2325367D01*
X1894837Y-2263645D02*
G01*
X1990087Y-2263645D01*
X1894837Y-2295395D02*
G01*
X1894837Y-2231895D01*
X1894837Y-2156457D02*
G01*
X1958337Y-2201669D01*
X1958337Y-2133597D01*
X1894837Y-2156457D02*
G01*
X1990087Y-2156457D01*
X1640837Y-2375410D02*
G01*
X1708909Y-2375410D01*
X1722625Y-2370838D01*
X1731515Y-2361948D01*
X1736087Y-2348232D01*
X1736087Y-2339088D01*
X1731515Y-2325372D01*
X1722625Y-2316482D01*
X1708909Y-2311910D01*
X1640837Y-2311910D01*
X1640837Y-2281938D02*
G01*
X1736087Y-2281938D01*
X1736087Y-2281938D02*
G01*
X1736087Y-2227328D01*
X1640837Y-2165352D02*
G01*
X1736087Y-2165352D01*
X1640837Y-2197356D02*
G01*
X1640837Y-2133602D01*
X1653537Y-3347872D02*
G01*
X1748787Y-3347872D01*
X1653537Y-3317900D02*
G01*
X1748787Y-3317900D01*
X1653537Y-3317900D02*
G01*
X1748787Y-3254400D01*
X1653537Y-3254400D02*
G01*
X1748787Y-3254400D01*
X1671571Y-3224174D02*
G01*
X1666999Y-3215284D01*
X1653537Y-3201568D01*
X1748787Y-3201568D01*
X1894837Y-3347872D02*
G01*
X1990087Y-3347872D01*
X1894837Y-3317900D02*
G01*
X1990087Y-3317900D01*
X1894837Y-3317900D02*
G01*
X1990087Y-3254400D01*
X1894837Y-3254400D02*
G01*
X1990087Y-3254400D01*
X1917443Y-3219856D02*
G01*
X1912871Y-3219856D01*
X1903727Y-3215284D01*
X1899155Y-3210712D01*
X1894837Y-3201568D01*
X1894837Y-3183280D01*
X1899155Y-3174390D01*
X1903727Y-3169818D01*
X1912871Y-3165246D01*
X1922015Y-3165246D01*
X1931159Y-3169818D01*
X1944621Y-3178708D01*
X1990087Y-3224174D01*
X1990087Y-3160674D01*
X2148664Y-3348045D02*
G01*
X2244168Y-3311723D01*
X2148664Y-3275401D02*
G01*
X2244168Y-3311723D01*
X2171524Y-3177103D02*
G01*
X2162380Y-3181675D01*
X2153236Y-3190819D01*
X2148664Y-3199963D01*
X2148664Y-3217997D01*
X2153236Y-3227141D01*
X2162380Y-3236285D01*
X2171524Y-3240857D01*
X2184986Y-3245429D01*
X2207846Y-3245429D01*
X2221562Y-3240857D01*
X2230452Y-3236285D01*
X2239596Y-3227141D01*
X2244168Y-3217997D01*
X2244168Y-3199963D01*
X2239596Y-3190819D01*
X2230452Y-3181675D01*
X2221562Y-3177103D01*
X2171524Y-3079059D02*
G01*
X2162380Y-3083631D01*
X2153236Y-3092521D01*
X2148664Y-3101665D01*
X2148664Y-3119953D01*
X2153236Y-3129097D01*
X2162380Y-3137987D01*
X2171524Y-3142559D01*
X2184986Y-3147131D01*
X2207846Y-3147131D01*
X2221562Y-3142559D01*
X2230452Y-3137987D01*
X2239596Y-3129097D01*
X2244168Y-3119953D01*
X2244168Y-3101665D01*
X2239596Y-3092521D01*
X2230452Y-3083631D01*
X2221562Y-3079059D01*
X2425369Y-3279874D02*
G01*
X2416225Y-3284446D01*
X2407335Y-3293336D01*
X2402763Y-3302480D01*
X2402763Y-3320768D01*
X2407335Y-3329912D01*
X2416225Y-3338802D01*
X2425369Y-3343374D01*
X2439085Y-3347946D01*
X2461691Y-3347946D01*
X2475407Y-3343374D01*
X2484551Y-3338802D01*
X2493695Y-3329912D01*
X2498267Y-3320768D01*
X2498267Y-3302480D01*
X2493695Y-3293336D01*
X2484551Y-3284446D01*
X2475407Y-3279874D01*
X2461691Y-3279874D01*
X2461691Y-3302480D02*
G01*
X2461691Y-3279874D01*
X2402763Y-3249902D02*
G01*
X2498267Y-3249902D01*
X2402763Y-3249902D02*
G01*
X2498267Y-3186148D01*
X2402763Y-3186148D02*
G01*
X2498267Y-3186148D01*
X2402763Y-3156176D02*
G01*
X2498267Y-3156176D01*
X2402763Y-3156176D02*
G01*
X2402763Y-3124426D01*
X2407335Y-3110710D01*
X2416225Y-3101566D01*
X2425369Y-3096994D01*
X2439085Y-3092422D01*
X2461691Y-3092422D01*
X2475407Y-3096994D01*
X2484551Y-3101566D01*
X2493695Y-3110710D01*
X2498267Y-3124426D01*
X2498267Y-3156176D01*
X2667002Y-3348070D02*
G01*
X2762506Y-3348070D01*
X2667002Y-3318098D02*
G01*
X2762506Y-3318098D01*
X2667002Y-3318098D02*
G01*
X2762506Y-3254598D01*
X2667002Y-3254598D02*
G01*
X2762506Y-3254598D01*
X2667002Y-3215482D02*
G01*
X2667002Y-3165444D01*
X2703578Y-3192622D01*
X2703578Y-3179160D01*
X2707896Y-3170016D01*
X2712468Y-3165444D01*
X2726184Y-3160872D01*
X2735328Y-3160872D01*
X2749044Y-3165444D01*
X2757934Y-3174588D01*
X2762506Y-3188050D01*
X2762506Y-3201766D01*
X2757934Y-3215482D01*
X2753362Y-3220054D01*
X2744472Y-3224626D01*
X2911856Y-3348174D02*
G01*
X3007359Y-3348174D01*
X2911856Y-3317948D02*
G01*
X3007359Y-3317948D01*
X2911856Y-3317948D02*
G01*
X3007359Y-3254448D01*
X2911856Y-3254448D02*
G01*
X3007359Y-3254448D01*
X2911856Y-3179010D02*
G01*
X2975609Y-3224476D01*
X2975609Y-3156150D01*
X2911856Y-3179010D02*
G01*
X3007359Y-3179010D01*
X-1393195Y-2714058D02*
G01*
X-1429771Y-2809562D01*
X-1393195Y-2714058D02*
G01*
X-1356873Y-2809562D01*
X-1416055Y-2777812D02*
G01*
X-1370589Y-2777812D01*
X-1326901Y-2745808D02*
G01*
X-1326901Y-2809562D01*
X-1326901Y-2773240D02*
G01*
X-1322329Y-2759524D01*
X-1313185Y-2750380D01*
X-1304295Y-2745808D01*
X-1290579Y-2745808D01*
X-1205997Y-2714058D02*
G01*
X-1205997Y-2809562D01*
X-1205997Y-2759524D02*
G01*
X-1215141Y-2750380D01*
X-1224285Y-2745808D01*
X-1237747Y-2745808D01*
X-1246891Y-2750380D01*
X-1256035Y-2759524D01*
X-1260607Y-2773240D01*
X-1260607Y-2782384D01*
X-1256035Y-2795846D01*
X-1246891Y-2804990D01*
X-1237747Y-2809562D01*
X-1224285Y-2809562D01*
X-1215141Y-2804990D01*
X-1205997Y-2795846D01*
X-1176025Y-2745808D02*
G01*
X-1176025Y-2791274D01*
X-1171453Y-2804990D01*
X-1162309Y-2809562D01*
X-1148847Y-2809562D01*
X-1139703Y-2804990D01*
X-1125987Y-2791274D01*
X-1125987Y-2745808D02*
G01*
X-1125987Y-2809562D01*
X-1096015Y-2714058D02*
G01*
X-1091443Y-2718630D01*
X-1086871Y-2714058D01*
X-1091443Y-2709486D01*
X-1096015Y-2714058D01*
X-1091443Y-2745808D02*
G01*
X-1091443Y-2809562D01*
X-1056899Y-2745808D02*
G01*
X-1056899Y-2809562D01*
X-1056899Y-2764096D02*
G01*
X-1043183Y-2750380D01*
X-1034293Y-2745808D01*
X-1020577Y-2745808D01*
X-1011433Y-2750380D01*
X-1006861Y-2764096D01*
X-1006861Y-2809562D01*
X-954283Y-2745808D02*
G01*
X-963173Y-2750380D01*
X-972317Y-2759524D01*
X-976889Y-2773240D01*
X-976889Y-2782384D01*
X-972317Y-2795846D01*
X-963173Y-2804990D01*
X-954283Y-2809562D01*
X-940567Y-2809562D01*
X-931423Y-2804990D01*
X-922279Y-2795846D01*
X-917707Y-2782384D01*
X-917707Y-2773240D01*
X-922279Y-2759524D01*
X-931423Y-2750380D01*
X-940567Y-2745808D01*
X-954283Y-2745808D01*
X-817885Y-2714058D02*
G01*
X-817885Y-2809562D01*
X-817885Y-2714058D02*
G01*
X-754131Y-2809562D01*
X-754131Y-2714058D02*
G01*
X-754131Y-2809562D01*
X-669549Y-2745808D02*
G01*
X-669549Y-2809562D01*
X-669549Y-2759524D02*
G01*
X-678693Y-2750380D01*
X-687837Y-2745808D01*
X-701553Y-2745808D01*
X-710443Y-2750380D01*
X-719587Y-2759524D01*
X-724159Y-2773240D01*
X-724159Y-2782384D01*
X-719587Y-2795846D01*
X-710443Y-2804990D01*
X-701553Y-2809562D01*
X-687837Y-2809562D01*
X-678693Y-2804990D01*
X-669549Y-2795846D01*
X-639577Y-2745808D02*
G01*
X-639577Y-2809562D01*
X-639577Y-2764096D02*
G01*
X-626115Y-2750380D01*
X-616971Y-2745808D01*
X-603255Y-2745808D01*
X-594111Y-2750380D01*
X-589539Y-2764096D01*
X-589539Y-2809562D01*
X-536961Y-2745808D02*
G01*
X-546105Y-2750380D01*
X-554995Y-2759524D01*
X-559567Y-2773240D01*
X-559567Y-2782384D01*
X-554995Y-2795846D01*
X-546105Y-2804990D01*
X-536961Y-2809562D01*
X-523245Y-2809562D01*
X-514101Y-2804990D01*
X-505211Y-2795846D01*
X-500639Y-2782384D01*
X-500639Y-2773240D01*
X-505211Y-2759524D01*
X-514101Y-2750380D01*
X-523245Y-2745808D01*
X-536961Y-2745808D01*
X-2789240Y-3374532D02*
G01*
X-2693736Y-3374532D01*
X-2789240Y-3374532D02*
G01*
X-2789240Y-3342782D01*
X-2784668Y-3329066D01*
X-2775778Y-3319922D01*
X-2766634Y-3315350D01*
X-2752918Y-3310778D01*
X-2730312Y-3310778D01*
X-2716596Y-3315350D01*
X-2707452Y-3319922D01*
X-2698308Y-3329066D01*
X-2693736Y-3342782D01*
X-2693736Y-3374532D01*
X-2771206Y-3280806D02*
G01*
X-2775778Y-3271916D01*
X-2789240Y-3258200D01*
X-2693736Y-3258200D01*
X-2789240Y-3219084D02*
G01*
X-2789240Y-3169046D01*
X-2752918Y-3196224D01*
X-2752918Y-3182762D01*
X-2748346Y-3173618D01*
X-2743774Y-3169046D01*
X-2730312Y-3164474D01*
X-2721168Y-3164474D01*
X-2707452Y-3169046D01*
X-2698308Y-3178190D01*
X-2693736Y-3191906D01*
X-2693736Y-3205368D01*
X-2698308Y-3219084D01*
X-2702880Y-3223656D01*
X-2712024Y-3228228D01*
X-2535245Y-3365393D02*
G01*
X-2535245Y-3315355D01*
X-2498923Y-3342787D01*
X-2498923Y-3329071D01*
X-2494351Y-3319927D01*
X-2489779Y-3315355D01*
X-2476317Y-3310783D01*
X-2467173Y-3310783D01*
X-2453457Y-3315355D01*
X-2444313Y-3324499D01*
X-2439741Y-3338215D01*
X-2439741Y-3351931D01*
X-2444313Y-3365393D01*
X-2448885Y-3369965D01*
X-2458029Y-3374537D01*
X-2535245Y-3280811D02*
G01*
X-2439741Y-3244489D01*
X-2535245Y-3208167D02*
G01*
X-2439741Y-3244489D01*
X-2535245Y-3169051D02*
G01*
X-2535245Y-3119013D01*
X-2498923Y-3146445D01*
X-2498923Y-3132729D01*
X-2494351Y-3123585D01*
X-2489779Y-3119013D01*
X-2476317Y-3114441D01*
X-2467173Y-3114441D01*
X-2453457Y-3119013D01*
X-2444313Y-3128157D01*
X-2439741Y-3141873D01*
X-2439741Y-3155335D01*
X-2444313Y-3169051D01*
X-2448885Y-3173623D01*
X-2458029Y-3178195D01*
X-2281245Y-3374537D02*
G01*
X-2185741Y-3374537D01*
X-2281245Y-3374537D02*
G01*
X-2281245Y-3333643D01*
X-2276673Y-3319927D01*
X-2272101Y-3315355D01*
X-2263211Y-3310783D01*
X-2254067Y-3310783D01*
X-2244923Y-3315355D01*
X-2240351Y-3319927D01*
X-2235779Y-3333643D01*
X-2235779Y-3374537D01*
X-2235779Y-3342787D02*
G01*
X-2185741Y-3310783D01*
X-2281245Y-3280811D02*
G01*
X-2185741Y-3280811D01*
X-2281245Y-3280811D02*
G01*
X-2281245Y-3221883D01*
X-2235779Y-3280811D02*
G01*
X-2235779Y-3244489D01*
X-2185741Y-3280811D02*
G01*
X-2185741Y-3221883D01*
X-2281245Y-3191911D02*
G01*
X-2185741Y-3191911D01*
X-2281245Y-3191911D02*
G01*
X-2281245Y-3132729D01*
X-2235779Y-3191911D02*
G01*
X-2235779Y-3155335D01*
X-2027242Y-3338212D02*
G01*
X-1931738Y-3374534D01*
X-2027242Y-3338212D02*
G01*
X-1931738Y-3301890D01*
X-1963742Y-3360818D02*
G01*
X-1963742Y-3315352D01*
X-2027242Y-3244486D02*
G01*
X-2022670Y-3258202D01*
X-2009208Y-3267346D01*
X-1986348Y-3271918D01*
X-1972886Y-3271918D01*
X-1950026Y-3267346D01*
X-1936310Y-3258202D01*
X-1931738Y-3244486D01*
X-1931738Y-3235342D01*
X-1936310Y-3221880D01*
X-1950026Y-3212736D01*
X-1972886Y-3208164D01*
X-1986348Y-3208164D01*
X-2009208Y-3212736D01*
X-2022670Y-3221880D01*
X-2027242Y-3235342D01*
X-2027242Y-3244486D01*
X-1773245Y-3338215D02*
G01*
X-1677741Y-3374537D01*
X-1773245Y-3338215D02*
G01*
X-1677741Y-3301893D01*
X-1709745Y-3360821D02*
G01*
X-1709745Y-3315355D01*
X-1755211Y-3271921D02*
G01*
X-1759783Y-3262777D01*
X-1773245Y-3249061D01*
X-1677741Y-3249061D01*
X-1519242Y-3338212D02*
G01*
X-1423738Y-3374534D01*
X-1519242Y-3338212D02*
G01*
X-1423738Y-3301890D01*
X-1455742Y-3360818D02*
G01*
X-1455742Y-3315352D01*
X-1496636Y-3267346D02*
G01*
X-1501208Y-3267346D01*
X-1510098Y-3262774D01*
X-1514670Y-3258202D01*
X-1519242Y-3249058D01*
X-1519242Y-3231024D01*
X-1514670Y-3221880D01*
X-1510098Y-3217308D01*
X-1501208Y-3212736D01*
X-1492064Y-3212736D01*
X-1482920Y-3217308D01*
X-1469204Y-3226452D01*
X-1423738Y-3271918D01*
X-1423738Y-3208164D01*
X-1265242Y-3338212D02*
G01*
X-1169738Y-3374534D01*
X-1265242Y-3338212D02*
G01*
X-1169738Y-3301890D01*
X-1201742Y-3360818D02*
G01*
X-1201742Y-3315352D01*
X-1265242Y-3262774D02*
G01*
X-1265242Y-3212736D01*
X-1228920Y-3239914D01*
X-1228920Y-3226452D01*
X-1224348Y-3217308D01*
X-1219776Y-3212736D01*
X-1206314Y-3208164D01*
X-1197170Y-3208164D01*
X-1183454Y-3212736D01*
X-1174310Y-3221880D01*
X-1169738Y-3235342D01*
X-1169738Y-3249058D01*
X-1174310Y-3262774D01*
X-1178882Y-3267346D01*
X-1188026Y-3271918D01*
X-1011240Y-3338210D02*
G01*
X-915736Y-3374532D01*
X-1011240Y-3338210D02*
G01*
X-915736Y-3301888D01*
X-947740Y-3360816D02*
G01*
X-947740Y-3315350D01*
X-1011240Y-3226450D02*
G01*
X-947740Y-3271916D01*
X-947740Y-3203590D01*
X-1011240Y-3226450D02*
G01*
X-915736Y-3226450D01*
X-757242Y-3338212D02*
G01*
X-661738Y-3374534D01*
X-757242Y-3338212D02*
G01*
X-661738Y-3301890D01*
X-693742Y-3360818D02*
G01*
X-693742Y-3315352D01*
X-757242Y-3217308D02*
G01*
X-757242Y-3262774D01*
X-716348Y-3267346D01*
X-720920Y-3262774D01*
X-725492Y-3249058D01*
X-725492Y-3235342D01*
X-720920Y-3221880D01*
X-711776Y-3212736D01*
X-698314Y-3208164D01*
X-689170Y-3208164D01*
X-675454Y-3212736D01*
X-666310Y-3221880D01*
X-661738Y-3235342D01*
X-661738Y-3249058D01*
X-666310Y-3262774D01*
X-670882Y-3267346D01*
X-680026Y-3271918D01*
X-503240Y-3338210D02*
G01*
X-407736Y-3374532D01*
X-503240Y-3338210D02*
G01*
X-407736Y-3301888D01*
X-439740Y-3360816D02*
G01*
X-439740Y-3315350D01*
X-489778Y-3217306D02*
G01*
X-498668Y-3221878D01*
X-503240Y-3235340D01*
X-503240Y-3244484D01*
X-498668Y-3258200D01*
X-485206Y-3267344D01*
X-462346Y-3271916D01*
X-439740Y-3271916D01*
X-421452Y-3267344D01*
X-412308Y-3258200D01*
X-407736Y-3244484D01*
X-407736Y-3239912D01*
X-412308Y-3226450D01*
X-421452Y-3217306D01*
X-435168Y-3212734D01*
X-439740Y-3212734D01*
X-453202Y-3217306D01*
X-462346Y-3226450D01*
X-466918Y-3239912D01*
X-466918Y-3244484D01*
X-462346Y-3258200D01*
X-453202Y-3267344D01*
X-439740Y-3271916D01*
X-249242Y-3338212D02*
G01*
X-153738Y-3374534D01*
X-249242Y-3338212D02*
G01*
X-153738Y-3301890D01*
X-185742Y-3360818D02*
G01*
X-185742Y-3315352D01*
X-249242Y-3208164D02*
G01*
X-153738Y-3253630D01*
X-249242Y-3271918D02*
G01*
X-249242Y-3208164D01*
X4757Y-3319924D02*
G01*
X4757Y-3365390D01*
X45651Y-3369962D01*
X41079Y-3365390D01*
X36507Y-3351928D01*
X36507Y-3338212D01*
X41079Y-3324496D01*
X50223Y-3315352D01*
X63685Y-3310780D01*
X72829Y-3310780D01*
X86545Y-3315352D01*
X95689Y-3324496D01*
X100261Y-3338212D01*
X100261Y-3351928D01*
X95689Y-3365390D01*
X91117Y-3369962D01*
X81973Y-3374534D01*
X4757Y-3280808D02*
G01*
X100261Y-3244486D01*
X4757Y-3208164D02*
G01*
X100261Y-3244486D01*
X258754Y-3374537D02*
G01*
X354258Y-3374537D01*
X258754Y-3374537D02*
G01*
X258754Y-3333643D01*
X263326Y-3319927D01*
X267898Y-3315355D01*
X276788Y-3310783D01*
X285932Y-3310783D01*
X295076Y-3315355D01*
X299648Y-3319927D01*
X304220Y-3333643D01*
X304220Y-3374537D01*
X304220Y-3342787D02*
G01*
X354258Y-3310783D01*
X272216Y-3217311D02*
G01*
X263326Y-3226455D01*
X258754Y-3239917D01*
X258754Y-3258205D01*
X263326Y-3271921D01*
X272216Y-3280811D01*
X281360Y-3280811D01*
X290504Y-3276239D01*
X295076Y-3271921D01*
X299648Y-3262777D01*
X308792Y-3235345D01*
X313110Y-3226455D01*
X317682Y-3221883D01*
X326826Y-3217311D01*
X340542Y-3217311D01*
X349686Y-3226455D01*
X354258Y-3239917D01*
X354258Y-3258205D01*
X349686Y-3271921D01*
X340542Y-3280811D01*
X258754Y-3155335D02*
G01*
X354258Y-3155335D01*
X258754Y-3187339D02*
G01*
X258754Y-3123585D01*
X535363Y-3306462D02*
G01*
X526219Y-3310780D01*
X517329Y-3319924D01*
X512757Y-3329068D01*
X512757Y-3347356D01*
X517329Y-3356246D01*
X526219Y-3365390D01*
X535363Y-3369962D01*
X549079Y-3374534D01*
X571685Y-3374534D01*
X585401Y-3369962D01*
X594545Y-3365390D01*
X603689Y-3356246D01*
X608261Y-3347356D01*
X608261Y-3329068D01*
X603689Y-3319924D01*
X594545Y-3310780D01*
X585401Y-3306462D01*
X571685Y-3306462D01*
X571685Y-3329068D02*
G01*
X571685Y-3306462D01*
X512757Y-3276236D02*
G01*
X608261Y-3276236D01*
X512757Y-3276236D02*
G01*
X608261Y-3212736D01*
X512757Y-3212736D02*
G01*
X608261Y-3212736D01*
X512757Y-3182764D02*
G01*
X608261Y-3182764D01*
X512757Y-3182764D02*
G01*
X512757Y-3151014D01*
X517329Y-3137298D01*
X526219Y-3128154D01*
X535363Y-3123582D01*
X549079Y-3119010D01*
X571685Y-3119010D01*
X585401Y-3123582D01*
X594545Y-3128154D01*
X603689Y-3137298D01*
X608261Y-3151014D01*
X608261Y-3182764D01*
X766759Y-3374532D02*
G01*
X862263Y-3338210D01*
X766759Y-3301888D02*
G01*
X862263Y-3338210D01*
X766759Y-3271916D02*
G01*
X862263Y-3271916D01*
X766759Y-3241690D02*
G01*
X862263Y-3241690D01*
X766759Y-3241690D02*
G01*
X862263Y-3178190D01*
X766759Y-3178190D02*
G01*
X862263Y-3178190D01*
X-2791244Y-2385634D02*
G01*
X-2695740Y-2385634D01*
X-2791244Y-2385634D02*
G01*
X-2791244Y-2353884D01*
X-2786672Y-2340168D01*
X-2777782Y-2331024D01*
X-2768638Y-2326452D01*
X-2754922Y-2321880D01*
X-2732316Y-2321880D01*
X-2718600Y-2326452D01*
X-2709456Y-2331024D01*
X-2700312Y-2340168D01*
X-2695740Y-2353884D01*
X-2695740Y-2385634D01*
X-2773210Y-2291908D02*
G01*
X-2777782Y-2283018D01*
X-2791244Y-2269302D01*
X-2695740Y-2269302D01*
X-2768638Y-2234758D02*
G01*
X-2773210Y-2234758D01*
X-2782100Y-2230186D01*
X-2786672Y-2225614D01*
X-2791244Y-2216470D01*
X-2791244Y-2198436D01*
X-2786672Y-2189292D01*
X-2782100Y-2184720D01*
X-2773210Y-2180148D01*
X-2764066Y-2180148D01*
X-2754922Y-2184720D01*
X-2741206Y-2193864D01*
X-2695740Y-2239330D01*
X-2695740Y-2175576D01*
X-2537246Y-2344740D02*
G01*
X-2441742Y-2344740D01*
X-2537246Y-2344740D02*
G01*
X-2537246Y-2312990D01*
X-2532674Y-2299274D01*
X-2523784Y-2290130D01*
X-2514640Y-2285558D01*
X-2500924Y-2280986D01*
X-2478318Y-2280986D01*
X-2464602Y-2285558D01*
X-2455458Y-2290130D01*
X-2446314Y-2299274D01*
X-2441742Y-2312990D01*
X-2441742Y-2344740D01*
X-2519212Y-2251014D02*
G01*
X-2523784Y-2242124D01*
X-2537246Y-2228408D01*
X-2441742Y-2228408D01*
X-2519212Y-2198436D02*
G01*
X-2523784Y-2189292D01*
X-2537246Y-2175576D01*
X-2441742Y-2175576D01*
X-2283244Y-2385634D02*
G01*
X-2187740Y-2385634D01*
X-2283244Y-2385634D02*
G01*
X-2283244Y-2353884D01*
X-2278672Y-2340168D01*
X-2269782Y-2331024D01*
X-2260638Y-2326452D01*
X-2246922Y-2321880D01*
X-2224316Y-2321880D01*
X-2210600Y-2326452D01*
X-2201456Y-2331024D01*
X-2192312Y-2340168D01*
X-2187740Y-2353884D01*
X-2187740Y-2385634D01*
X-2265210Y-2291908D02*
G01*
X-2269782Y-2283018D01*
X-2283244Y-2269302D01*
X-2187740Y-2269302D01*
X-2283244Y-2211898D02*
G01*
X-2278672Y-2225614D01*
X-2265210Y-2234758D01*
X-2242350Y-2239330D01*
X-2228888Y-2239330D01*
X-2206028Y-2234758D01*
X-2192312Y-2225614D01*
X-2187740Y-2211898D01*
X-2187740Y-2203008D01*
X-2192312Y-2189292D01*
X-2206028Y-2180148D01*
X-2228888Y-2175576D01*
X-2242350Y-2175576D01*
X-2265210Y-2180148D01*
X-2278672Y-2189292D01*
X-2283244Y-2203008D01*
X-2283244Y-2211898D01*
X-2029244Y-2328230D02*
G01*
X-1933740Y-2328230D01*
X-2029244Y-2328230D02*
G01*
X-2029244Y-2296480D01*
X-2024672Y-2282764D01*
X-2015782Y-2273620D01*
X-2006638Y-2269048D01*
X-1992922Y-2264476D01*
X-1970316Y-2264476D01*
X-1956600Y-2269048D01*
X-1947456Y-2273620D01*
X-1938312Y-2282764D01*
X-1933740Y-2296480D01*
X-1933740Y-2328230D01*
X-1997494Y-2175576D02*
G01*
X-1983778Y-2180148D01*
X-1974888Y-2189038D01*
X-1970316Y-2202754D01*
X-1970316Y-2207326D01*
X-1974888Y-2221042D01*
X-1983778Y-2229932D01*
X-1997494Y-2234504D01*
X-2002066Y-2234504D01*
X-2015782Y-2229932D01*
X-2024672Y-2221042D01*
X-2029244Y-2207326D01*
X-2029244Y-2202754D01*
X-2024672Y-2189038D01*
X-2015782Y-2180148D01*
X-1997494Y-2175576D01*
X-1974888Y-2175576D01*
X-1952028Y-2180148D01*
X-1938312Y-2189038D01*
X-1933740Y-2202754D01*
X-1933740Y-2211898D01*
X-1938312Y-2225614D01*
X-1947456Y-2229932D01*
X-1775246Y-2332802D02*
G01*
X-1679742Y-2332802D01*
X-1775246Y-2332802D02*
G01*
X-1775246Y-2301052D01*
X-1770674Y-2287336D01*
X-1761784Y-2278192D01*
X-1752640Y-2273620D01*
X-1738924Y-2269048D01*
X-1716318Y-2269048D01*
X-1702602Y-2273620D01*
X-1693458Y-2278192D01*
X-1684314Y-2287336D01*
X-1679742Y-2301052D01*
X-1679742Y-2332802D01*
X-1775246Y-2216470D02*
G01*
X-1770674Y-2230186D01*
X-1761784Y-2234504D01*
X-1752640Y-2234504D01*
X-1743496Y-2230186D01*
X-1738924Y-2221042D01*
X-1734352Y-2202754D01*
X-1729780Y-2189292D01*
X-1720890Y-2180148D01*
X-1711746Y-2175576D01*
X-1698030Y-2175576D01*
X-1688886Y-2180148D01*
X-1684314Y-2184720D01*
X-1679742Y-2198182D01*
X-1679742Y-2216470D01*
X-1684314Y-2230186D01*
X-1688886Y-2234504D01*
X-1698030Y-2239076D01*
X-1711746Y-2239076D01*
X-1720890Y-2234504D01*
X-1729780Y-2225614D01*
X-1734352Y-2211898D01*
X-1738924Y-2193610D01*
X-1743496Y-2184720D01*
X-1752640Y-2180148D01*
X-1761784Y-2180148D01*
X-1770674Y-2184720D01*
X-1775246Y-2198182D01*
X-1775246Y-2216470D01*
X-1521244Y-2332802D02*
G01*
X-1425740Y-2332802D01*
X-1521244Y-2332802D02*
G01*
X-1521244Y-2301052D01*
X-1516672Y-2287336D01*
X-1507782Y-2278192D01*
X-1498638Y-2273620D01*
X-1484922Y-2269048D01*
X-1462316Y-2269048D01*
X-1448600Y-2273620D01*
X-1439456Y-2278192D01*
X-1430312Y-2287336D01*
X-1425740Y-2301052D01*
X-1425740Y-2332802D01*
X-1521244Y-2175576D02*
G01*
X-1425740Y-2221042D01*
X-1521244Y-2239076D02*
G01*
X-1521244Y-2175576D01*
X-1267244Y-2328230D02*
G01*
X-1171740Y-2328230D01*
X-1267244Y-2328230D02*
G01*
X-1267244Y-2296480D01*
X-1262672Y-2282764D01*
X-1253782Y-2273620D01*
X-1244638Y-2269048D01*
X-1230922Y-2264476D01*
X-1208316Y-2264476D01*
X-1194600Y-2269048D01*
X-1185456Y-2273620D01*
X-1176312Y-2282764D01*
X-1171740Y-2296480D01*
X-1171740Y-2328230D01*
X-1253782Y-2180148D02*
G01*
X-1262672Y-2184720D01*
X-1267244Y-2198182D01*
X-1267244Y-2207326D01*
X-1262672Y-2221042D01*
X-1249210Y-2229932D01*
X-1226350Y-2234504D01*
X-1203744Y-2234504D01*
X-1185456Y-2229932D01*
X-1176312Y-2221042D01*
X-1171740Y-2207326D01*
X-1171740Y-2202754D01*
X-1176312Y-2189038D01*
X-1185456Y-2180148D01*
X-1199172Y-2175576D01*
X-1203744Y-2175576D01*
X-1217206Y-2180148D01*
X-1226350Y-2189038D01*
X-1230922Y-2202754D01*
X-1230922Y-2207326D01*
X-1226350Y-2221042D01*
X-1217206Y-2229932D01*
X-1203744Y-2234504D01*
X-1013246Y-2332802D02*
G01*
X-917742Y-2332802D01*
X-1013246Y-2332802D02*
G01*
X-1013246Y-2301052D01*
X-1008674Y-2287336D01*
X-999784Y-2278192D01*
X-990640Y-2273620D01*
X-976924Y-2269048D01*
X-954318Y-2269048D01*
X-940602Y-2273620D01*
X-931458Y-2278192D01*
X-922314Y-2287336D01*
X-917742Y-2301052D01*
X-917742Y-2332802D01*
X-1013246Y-2184720D02*
G01*
X-1013246Y-2230186D01*
X-972352Y-2234504D01*
X-976924Y-2230186D01*
X-981496Y-2216470D01*
X-981496Y-2202754D01*
X-976924Y-2189292D01*
X-967780Y-2180148D01*
X-954318Y-2175576D01*
X-945174Y-2175576D01*
X-931458Y-2180148D01*
X-922314Y-2189292D01*
X-917742Y-2202754D01*
X-917742Y-2216470D01*
X-922314Y-2230186D01*
X-926886Y-2234504D01*
X-936030Y-2239076D01*
X-759244Y-2337374D02*
G01*
X-663740Y-2337374D01*
X-759244Y-2337374D02*
G01*
X-759244Y-2305624D01*
X-754672Y-2291908D01*
X-745782Y-2282764D01*
X-736638Y-2278192D01*
X-722922Y-2273620D01*
X-700316Y-2273620D01*
X-686600Y-2278192D01*
X-677456Y-2282764D01*
X-668312Y-2291908D01*
X-663740Y-2305624D01*
X-663740Y-2337374D01*
X-759244Y-2198182D02*
G01*
X-695744Y-2243648D01*
X-695744Y-2175576D01*
X-759244Y-2198182D02*
G01*
X-663740Y-2198182D01*
X-505244Y-2332802D02*
G01*
X-409740Y-2332802D01*
X-505244Y-2332802D02*
G01*
X-505244Y-2301052D01*
X-500672Y-2287336D01*
X-491782Y-2278192D01*
X-482638Y-2273620D01*
X-468922Y-2269048D01*
X-446316Y-2269048D01*
X-432600Y-2273620D01*
X-423456Y-2278192D01*
X-414312Y-2287336D01*
X-409740Y-2301052D01*
X-409740Y-2332802D01*
X-505244Y-2230186D02*
G01*
X-505244Y-2180148D01*
X-468922Y-2207326D01*
X-468922Y-2193610D01*
X-464350Y-2184720D01*
X-459778Y-2180148D01*
X-446316Y-2175576D01*
X-437172Y-2175576D01*
X-423456Y-2180148D01*
X-414312Y-2189292D01*
X-409740Y-2202754D01*
X-409740Y-2216470D01*
X-414312Y-2230186D01*
X-418884Y-2234504D01*
X-428028Y-2239076D01*
X-251246Y-2332802D02*
G01*
X-155742Y-2332802D01*
X-251246Y-2332802D02*
G01*
X-251246Y-2301052D01*
X-246674Y-2287336D01*
X-237784Y-2278192D01*
X-228640Y-2273620D01*
X-214924Y-2269048D01*
X-192318Y-2269048D01*
X-178602Y-2273620D01*
X-169458Y-2278192D01*
X-160314Y-2287336D01*
X-155742Y-2301052D01*
X-155742Y-2332802D01*
X-228640Y-2234504D02*
G01*
X-233212Y-2234504D01*
X-242102Y-2230186D01*
X-246674Y-2225614D01*
X-251246Y-2216470D01*
X-251246Y-2198182D01*
X-246674Y-2189292D01*
X-242102Y-2184720D01*
X-233212Y-2180148D01*
X-224068Y-2180148D01*
X-214924Y-2184720D01*
X-201208Y-2193610D01*
X-155742Y-2239076D01*
X-155742Y-2175576D01*
X25361Y-2363028D02*
G01*
X16217Y-2367346D01*
X7327Y-2376490D01*
X2755Y-2385634D01*
X2755Y-2403922D01*
X7327Y-2412812D01*
X16217Y-2421956D01*
X25361Y-2426528D01*
X39077Y-2431100D01*
X61683Y-2431100D01*
X75399Y-2426528D01*
X84543Y-2421956D01*
X93687Y-2412812D01*
X98259Y-2403922D01*
X98259Y-2385634D01*
X93687Y-2376490D01*
X84543Y-2367346D01*
X75399Y-2363028D01*
X61683Y-2363028D01*
X61683Y-2385634D02*
G01*
X61683Y-2363028D01*
X2755Y-2332802D02*
G01*
X98259Y-2332802D01*
X2755Y-2332802D02*
G01*
X98259Y-2269302D01*
X2755Y-2269302D02*
G01*
X98259Y-2269302D01*
X2755Y-2239330D02*
G01*
X98259Y-2239330D01*
X2755Y-2239330D02*
G01*
X2755Y-2207580D01*
X7327Y-2193864D01*
X16217Y-2184720D01*
X25361Y-2180148D01*
X39077Y-2175576D01*
X61683Y-2175576D01*
X75399Y-2180148D01*
X84543Y-2184720D01*
X93687Y-2193864D01*
X98259Y-2207580D01*
X98259Y-2239330D01*
X256755Y-2426528D02*
G01*
X352259Y-2426528D01*
X256755Y-2426528D02*
G01*
X256755Y-2385634D01*
X261327Y-2371918D01*
X265899Y-2367346D01*
X274789Y-2362774D01*
X283933Y-2362774D01*
X293077Y-2367346D01*
X297649Y-2371918D01*
X302221Y-2385634D01*
X302221Y-2426528D01*
X302221Y-2394778D02*
G01*
X352259Y-2362774D01*
X270217Y-2269302D02*
G01*
X261327Y-2278446D01*
X256755Y-2291908D01*
X256755Y-2310196D01*
X261327Y-2323912D01*
X270217Y-2332802D01*
X279361Y-2332802D01*
X288505Y-2328230D01*
X293077Y-2323912D01*
X297649Y-2314768D01*
X306793Y-2287336D01*
X311111Y-2278446D01*
X315683Y-2273874D01*
X324827Y-2269302D01*
X338543Y-2269302D01*
X347687Y-2278446D01*
X352259Y-2291908D01*
X352259Y-2310196D01*
X347687Y-2323912D01*
X338543Y-2332802D01*
X256755Y-2207326D02*
G01*
X352259Y-2207326D01*
X256755Y-2239330D02*
G01*
X256755Y-2175576D01*
X510753Y-2426528D02*
G01*
X606257Y-2426528D01*
X510753Y-2426528D02*
G01*
X510753Y-2385634D01*
X515325Y-2371918D01*
X519897Y-2367346D01*
X528787Y-2362774D01*
X537931Y-2362774D01*
X547075Y-2367346D01*
X551647Y-2371918D01*
X556219Y-2385634D01*
X556219Y-2426528D01*
X556219Y-2394778D02*
G01*
X606257Y-2362774D01*
X510753Y-2332802D02*
G01*
X606257Y-2269302D01*
X510753Y-2269302D02*
G01*
X606257Y-2332802D01*
X510753Y-2239330D02*
G01*
X606257Y-2239330D01*
X510753Y-2239330D02*
G01*
X510753Y-2207326D01*
X515325Y-2193864D01*
X524215Y-2184720D01*
X533359Y-2180148D01*
X547075Y-2175576D01*
X569681Y-2175576D01*
X583397Y-2180148D01*
X592541Y-2184720D01*
X601685Y-2193864D01*
X606257Y-2207326D01*
X606257Y-2239330D01*
X764755Y-2394778D02*
G01*
X860259Y-2394778D01*
X764755Y-2426528D02*
G01*
X764755Y-2362774D01*
X764755Y-2332802D02*
G01*
X860259Y-2269302D01*
X764755Y-2269302D02*
G01*
X860259Y-2332802D01*
X764755Y-2239330D02*
G01*
X860259Y-2239330D01*
X764755Y-2239330D02*
G01*
X764755Y-2207326D01*
X769327Y-2193864D01*
X778217Y-2184720D01*
X787361Y-2180148D01*
X801077Y-2175576D01*
X823683Y-2175576D01*
X837399Y-2180148D01*
X846543Y-2184720D01*
X855687Y-2193864D01*
X860259Y-2207326D01*
X860259Y-2239330D01*
D12*
X-2949994Y3868064D02*
G01*
X2949994Y3868064D01*
X3249993Y3568064D02*
G01*
X3249993Y1168069D01*
X-2949994Y868070D02*
G01*
X2949994Y868070D01*
X-3249993Y1168069D02*
G01*
X-3249993Y3568064D01*
X-1016000Y1778000D02*
G01*
X-1041400Y1778000D01*
X-508000Y1778000D02*
G01*
X-482600Y1778000D01*
X-1016000Y1778000D02*
G01*
X-1016000Y1854200D01*
X-1016000Y1701800D02*
G01*
X-1016000Y1778000D01*
X-508000Y1701800D02*
G01*
X-1016000Y1701800D01*
X-508000Y1778000D02*
G01*
X-508000Y1701800D01*
X-508000Y1854200D02*
G01*
X-508000Y1778000D01*
X-1016000Y1854200D02*
G01*
X-508000Y1854200D01*
X508000Y1778000D02*
G01*
X482600Y1778000D01*
X1016000Y1778000D02*
G01*
X1041400Y1778000D01*
X508000Y1778000D02*
G01*
X508000Y1854200D01*
X508000Y1701800D02*
G01*
X508000Y1778000D01*
X1016000Y1701800D02*
G01*
X508000Y1701800D01*
X1016000Y1778000D02*
G01*
X1016000Y1701800D01*
X1016000Y1854200D02*
G01*
X1016000Y1778000D01*
X508000Y1854200D02*
G01*
X1016000Y1854200D01*
X3130547Y-1854707D02*
G01*
X3130547Y-3696207D01*
X1543047Y-3696207D01*
X1543047Y-1854707D01*
X3130547Y-1854707D01*
X-3131822Y-1878909D02*
G01*
X1201409Y-1878909D01*
X1201409Y-3672146D01*
X-3131822Y-3672146D01*
X-3131822Y-1878909D01*
D13*
X1270000Y-4191000D02*
G01*
X1270000Y-4445000D01*
X254000Y-4445000D01*
X254000Y-4191000D01*
X444500Y-4191000D01*
D14*
X1270000Y-4191000D02*
G01*
X444500Y-4191000D01*
D13*
X-254000Y-4191000D02*
G01*
X-254000Y-4445000D01*
X-1270000Y-4445000D01*
X-1270000Y-4191000D01*
X-1079500Y-4191000D01*
D14*
X-254000Y-4191000D02*
G01*
X-1079500Y-4191000D01*
D13*
X-1841500Y-1143000D02*
G01*
X-2032000Y-1143000D01*
X-2032000Y-1397000D01*
X-508000Y-1397000D01*
X-508000Y-1143000D01*
D14*
X-508000Y-1143000D02*
G01*
X-1841500Y-1143000D01*
D13*
X698500Y-1143000D02*
G01*
X508000Y-1143000D01*
X508000Y-1397000D01*
X2032000Y-1397000D01*
X2032000Y-1143000D01*
D14*
X2032000Y-1143000D02*
G01*
X698500Y-1143000D01*
X2413000Y-1016000D02*
G01*
X2413000Y-1333500D01*
D13*
X2413000Y-1016000D02*
G01*
X2667000Y-1016000D01*
X2667000Y-1524000D01*
X2413000Y-1524000D01*
X2413000Y-1333500D01*
D14*
X-2667000Y-1016000D02*
G01*
X-2667000Y-1333500D01*
D13*
X-2667000Y-1016000D02*
G01*
X-2413000Y-1016000D01*
X-2413000Y-1524000D01*
X-2667000Y-1524000D01*
X-2667000Y-1333500D01*
D12*
G75*
G01*
X3249867Y1168044D02*
G02*
X2949892Y868070I-300000J26D01*
G75*
G01*
X2949892Y3868064D02*
G02*
X3249867Y3568090I-25J-299999D01*
G75*
G01*
X-3249993Y3568090D02*
G02*
X-2950019Y3868064I299999J-25D01*
G75*
G01*
X-2950019Y868070D02*
G02*
X-3249993Y1168044I25J300000D01*
G75*
G01
X799998Y3999992D02*
G03X799998Y3999992I-799998J0D01*
X-3499993Y799998D02*
G01*
X3499993Y799998D01*
X3499993Y-799998D01*
X-3499993Y-799998D01*
X-3499993Y799998D01*
M02*
